<svg width="255" height="255" viewBox="0 0 255 255" fill="none" xmlns="http://www.w3.org/2000/svg">
<path d="M229.449 203.23H212.558V203.357H229.449V203.23Z" fill="#EBEBEB"/>
<path d="M168.922 204.617H164.49V204.745H168.922V204.617Z" fill="#EBEBEB"/>
<path d="M212.048 198.497H202.261V198.625H212.048V198.497Z" fill="#EBEBEB"/>
<path d="M48.7815 199.354H26.7546V199.482H48.7815V199.354Z" fill="#EBEBEB"/>
<path d="M56.5539 199.354H53.3256V199.482H56.5539V199.354Z" fill="#EBEBEB"/>
<path d="M114.826 201.506H67.0497V201.634H114.826V201.506Z" fill="#EBEBEB"/>
<path d="M121.584 172.278H23.103C22.3307 172.278 21.5899 171.971 21.0438 171.425C20.4977 170.879 20.1909 170.138 20.1909 169.366V30.9366C20.1976 30.1687 20.5074 29.4346 21.0528 28.8939C21.5982 28.3533 22.335 28.05 23.103 28.05H121.584C121.966 28.05 122.345 28.1254 122.698 28.2717C123.052 28.4181 123.373 28.6326 123.643 28.903C123.914 29.1734 124.128 29.4944 124.274 29.8477C124.421 30.201 124.496 30.5797 124.496 30.9621V169.366C124.496 169.748 124.421 170.127 124.274 170.48C124.128 170.834 123.914 171.155 123.643 171.425C123.373 171.696 123.052 171.91 122.698 172.056C122.345 172.203 121.966 172.278 121.584 172.278ZM23.103 28.152C22.3649 28.1534 21.6574 28.4472 21.1355 28.9691C20.6135 29.4911 20.3197 30.1985 20.3184 30.9366V169.366C20.3197 170.104 20.6135 170.812 21.1355 171.333C21.6574 171.855 22.3649 172.149 23.103 172.151H121.584C122.322 172.149 123.03 171.855 123.552 171.333C124.073 170.812 124.367 170.104 124.369 169.366V30.9366C124.367 30.1985 124.073 29.4911 123.552 28.9691C123.03 28.4472 122.322 28.1534 121.584 28.152H23.103Z" fill="#EBEBEB"/>
<path d="M231.897 172.278H133.416C132.644 172.278 131.903 171.971 131.357 171.425C130.811 170.879 130.504 170.138 130.504 169.366V30.9366C130.511 30.1687 130.82 29.4346 131.366 28.8939C131.911 28.3533 132.648 28.05 133.416 28.05H231.897C232.669 28.05 233.41 28.3569 233.956 28.903C234.502 29.4491 234.809 30.1898 234.809 30.9621V169.366C234.809 170.138 234.502 170.879 233.956 171.425C233.41 171.971 232.669 172.278 231.897 172.278ZM133.416 28.152C132.678 28.1534 131.97 28.4472 131.448 28.9691C130.927 29.4911 130.633 30.1985 130.631 30.9366V169.366C130.633 170.104 130.927 170.812 131.448 171.333C131.97 171.855 132.678 172.149 133.416 172.151H231.897C232.635 172.149 233.343 171.855 233.865 171.333C234.386 170.812 234.68 170.104 234.682 169.366V30.9366C234.68 30.1985 234.386 29.4911 233.865 28.9691C233.343 28.4472 232.635 28.1534 231.897 28.152H133.416Z" fill="#EBEBEB"/>
<path d="M255 195.024H0V195.152H255V195.024Z" fill="#EBEBEB"/>
<path d="M191.25 191.49L176.929 188.491V114.362H172.339V188.491L158.018 191.49C157.206 191.661 156.478 192.106 155.955 192.75C155.432 193.395 155.147 194.199 155.147 195.029H194.101C194.102 194.202 193.82 193.4 193.301 192.756C192.782 192.111 192.058 191.665 191.25 191.49Z" fill="#E0E0E0"/>
<path d="M174.298 70.0486H182.458C186.102 70.0486 189.596 71.4961 192.173 74.0728C194.749 76.6494 196.197 80.1441 196.197 83.788V102.622C196.197 104.427 195.842 106.213 195.151 107.88C194.461 109.547 193.449 111.062 192.173 112.338C190.897 113.613 189.382 114.625 187.715 115.316C186.049 116.006 184.262 116.362 182.458 116.362H174.298V70.0537V70.0486Z" fill="#E6E6E6"/>
<path d="M182.483 110.767H174.298V116.377H182.483C186.126 116.376 189.619 114.928 192.195 112.351C194.771 109.775 196.217 106.281 196.217 102.638V97.0276C196.217 100.671 194.771 104.165 192.195 106.741C189.619 109.318 186.126 110.766 182.483 110.767Z" fill="#E0E0E0"/>
<path d="M175.267 70.0486H162.981C158.761 70.0486 155.341 73.469 155.341 77.6884V108.717C155.341 112.936 158.761 116.357 162.981 116.357H175.267C179.486 116.357 182.906 112.936 182.906 108.717V77.6884C182.906 73.469 179.486 70.0486 175.267 70.0486Z" fill="#F0F0F0"/>
<path d="M169.126 91.0962C174.171 91.0962 178.26 87.0067 178.26 81.9621C178.26 76.9175 174.171 72.828 169.126 72.828C164.082 72.828 159.992 76.9175 159.992 81.9621C159.992 87.0067 164.082 91.0962 169.126 91.0962Z" fill="#E0E0E0"/>
<path d="M169.126 112.945C174.171 112.945 178.26 108.855 178.26 103.811C178.26 98.766 174.171 94.6765 169.126 94.6765C164.082 94.6765 159.992 98.766 159.992 103.811C159.992 108.855 164.082 112.945 169.126 112.945Z" fill="#E0E0E0"/>
<path d="M169.126 89.5765C173.331 89.5765 176.74 86.1675 176.74 81.9622C176.74 77.7569 173.331 74.3479 169.126 74.3479C164.921 74.3479 161.512 77.7569 161.512 81.9622C161.512 86.1675 164.921 89.5765 169.126 89.5765Z" fill="#EBEBEB"/>
<path d="M172.171 81.9621C172.171 82.5673 171.991 83.1589 171.655 83.6621C171.319 84.1654 170.841 84.5576 170.282 84.7892C169.723 85.0208 169.108 85.0814 168.514 84.9633C167.92 84.8452 167.375 84.5538 166.947 84.1258C166.519 83.6979 166.228 83.1527 166.11 82.5591C165.992 81.9655 166.052 81.3502 166.284 80.7911C166.515 80.2319 166.908 79.754 167.411 79.4178C167.914 79.0816 168.506 78.9021 169.111 78.9021C169.922 78.9021 170.701 79.2245 171.275 79.7984C171.849 80.3722 172.171 81.1505 172.171 81.9621Z" fill="#E0E0E0"/>
<path d="M169.126 111.425C173.331 111.425 176.74 108.016 176.74 103.811C176.74 99.6053 173.331 96.1963 169.126 96.1963C164.921 96.1963 161.512 99.6053 161.512 103.811C161.512 108.016 164.921 111.425 169.126 111.425Z" fill="#EBEBEB"/>
<path d="M172.171 103.81C172.171 104.416 171.991 105.007 171.655 105.511C171.319 106.014 170.841 106.406 170.282 106.638C169.723 106.869 169.108 106.93 168.514 106.812C167.92 106.694 167.375 106.402 166.947 105.974C166.519 105.546 166.228 105.001 166.11 104.407C165.992 103.814 166.052 103.199 166.284 102.639C166.515 102.08 166.908 101.602 167.411 101.266C167.914 100.93 168.506 100.75 169.111 100.75C169.922 100.75 170.701 101.073 171.275 101.647C171.849 102.221 172.171 102.999 172.171 103.81Z" fill="#E0E0E0"/>
<path d="M219.586 42.1005H35.0778C34.8919 42.1012 34.7076 42.0652 34.5356 41.9945C34.3636 41.9238 34.2073 41.8198 34.0756 41.6886C33.9439 41.5573 33.8393 41.4014 33.768 41.2296C33.6967 41.0579 33.66 40.8738 33.66 40.6878C33.6593 40.5015 33.6956 40.3168 33.7666 40.1445C33.8376 39.9721 33.942 39.8156 34.0738 39.6838C34.2056 39.552 34.3621 39.4476 34.5344 39.3766C34.7068 39.3056 34.8914 39.2694 35.0778 39.27H219.586C219.772 39.2694 219.957 39.3056 220.129 39.3766C220.301 39.4476 220.458 39.552 220.59 39.6838C220.721 39.8156 220.826 39.9721 220.897 40.1445C220.968 40.3168 221.004 40.5015 221.003 40.6878C221.003 40.8738 220.967 41.0579 220.895 41.2296C220.824 41.4014 220.72 41.5573 220.588 41.6886C220.456 41.8198 220.3 41.9238 220.128 41.9945C219.956 42.0652 219.772 42.1012 219.586 42.1005Z" fill="#E6E6E6"/>
<path d="M65.8767 59.211C65.4149 59.6729 64.8667 60.0393 64.2634 60.2892C63.66 60.5392 63.0133 60.6678 62.3602 60.6678C61.7072 60.6678 61.0605 60.5392 60.4571 60.2892C59.8537 60.0393 59.3055 59.6729 58.8438 59.211L57.0027 57.3699C56.0715 56.4376 55.5485 55.1738 55.5485 53.856C55.5485 52.5383 56.0715 51.2745 57.0027 50.3421C57.4644 49.8803 58.0126 49.5139 58.616 49.264C59.2194 49.014 59.8661 48.8854 60.5191 48.8854C61.1722 48.8854 61.8189 49.014 62.4223 49.264C63.0256 49.5139 63.5738 49.8803 64.0356 50.3421L65.8767 52.1781C66.3385 52.6399 66.7049 53.1881 66.9549 53.7915C67.2048 54.3948 67.3335 55.0415 67.3335 55.6946C67.3335 56.3477 67.2048 56.9944 66.9549 57.5977C66.7049 58.2011 66.3385 58.7493 65.8767 59.211Z" fill="#E0E0E0"/>
<path d="M60.7665 57.217C60.5282 57.4505 60.3385 57.729 60.2085 58.0363C60.0785 58.3436 60.0107 58.6736 60.009 59.0073C60.0073 59.3409 60.0718 59.6716 60.1987 59.9802C60.3256 60.2888 60.5124 60.5692 60.7484 60.8051C60.9843 61.041 61.2647 61.2279 61.5733 61.3548C61.8819 61.4817 62.2126 61.5462 62.5462 61.5445C62.8799 61.5428 63.2099 61.475 63.5172 61.345C63.8245 61.2149 64.103 61.0253 64.3365 60.787L67.4577 57.6658C67.696 57.4322 67.8857 57.1538 68.0157 56.8465C68.1457 56.5392 68.2135 56.2092 68.2152 55.8755C68.2169 55.5418 68.1524 55.2112 68.0255 54.9026C67.8986 54.594 67.7118 54.3136 67.4758 54.0777C67.2399 53.8417 66.9595 53.6549 66.6509 53.528C66.3423 53.4011 66.0116 53.3366 65.678 53.3383C65.3443 53.34 65.0143 53.4078 64.707 53.5378C64.3997 53.6678 64.1212 53.8575 63.8877 54.0958L60.7665 57.217Z" fill="#F5F5F5"/>
<path d="M61.1541 51C61.1541 51.5492 60.9359 52.0759 60.5476 52.4642C60.1593 52.8525 59.6326 53.0706 59.0835 53.0706C58.5343 53.0706 58.0077 52.8525 57.6193 52.4642C57.231 52.0759 57.0129 51.5492 57.0129 51V41.7435H61.1541V51Z" fill="#F0F0F0"/>
<path d="M60.2208 51.0001C60.2208 51.225 60.1541 51.4449 60.0292 51.6319C59.9042 51.819 59.7266 51.9647 59.5188 52.0508C59.3109 52.1369 59.0823 52.1594 58.8617 52.1155C58.641 52.0717 58.4384 51.9633 58.2793 51.8043C58.1203 51.6452 58.012 51.4426 57.9681 51.222C57.9242 51.0014 57.9467 50.7727 58.0328 50.5649C58.1189 50.3571 58.2646 50.1794 58.4517 50.0545C58.6387 49.9295 58.8586 49.8628 59.0835 49.8628C59.2329 49.8628 59.3808 49.8922 59.5188 49.9494C59.6567 50.0065 59.7821 50.0903 59.8877 50.1959C59.9933 50.3015 60.0771 50.4269 60.1343 50.5649C60.1914 50.7029 60.2208 50.8507 60.2208 51.0001Z" fill="#E0E0E0"/>
<path d="M111.103 59.211C110.642 59.6729 110.094 60.0393 109.49 60.2892C108.887 60.5392 108.24 60.6678 107.587 60.6678C106.934 60.6678 106.287 60.5392 105.684 60.2892C105.081 60.0393 104.532 59.6729 104.071 59.211L102.229 57.3699C101.298 56.4376 100.775 55.1738 100.775 53.856C100.775 52.5383 101.298 51.2745 102.229 50.3421C102.691 49.8803 103.239 49.5139 103.843 49.264C104.446 49.014 105.093 48.8854 105.746 48.8854C106.399 48.8854 107.046 49.014 107.649 49.264C108.252 49.5139 108.801 49.8803 109.262 50.3421L111.103 52.1781C111.565 52.6399 111.932 53.1881 112.182 53.7915C112.432 54.3948 112.56 55.0415 112.56 55.6946C112.56 56.3477 112.432 56.9944 112.182 57.5977C111.932 58.2011 111.565 58.7493 111.103 59.211Z" fill="#E0E0E0"/>
<path d="M105.993 57.217C105.755 57.4505 105.565 57.729 105.435 58.0363C105.305 58.3436 105.237 58.6736 105.236 59.0073C105.234 59.3409 105.299 59.6716 105.426 59.9802C105.552 60.2888 105.739 60.5692 105.975 60.8051C106.211 61.041 106.491 61.2279 106.8 61.3548C107.109 61.4817 107.439 61.5462 107.773 61.5445C108.107 61.5428 108.437 61.475 108.744 61.345C109.051 61.2149 109.33 61.0253 109.563 60.787L112.685 57.6658C112.923 57.4322 113.112 57.1538 113.242 56.8465C113.373 56.5392 113.44 56.2092 113.442 55.8755C113.444 55.5418 113.379 55.2112 113.252 54.9026C113.125 54.594 112.939 54.3136 112.703 54.0777C112.467 53.8417 112.186 53.6549 111.878 53.528C111.569 53.4011 111.238 53.3366 110.905 53.3383C110.571 53.34 110.241 53.4078 109.934 53.5378C109.627 53.6678 109.348 53.8575 109.115 54.0958L105.993 57.217Z" fill="#F5F5F5"/>
<path d="M106.381 51C106.381 51.5492 106.163 52.0759 105.774 52.4642C105.386 52.8525 104.859 53.0706 104.31 53.0706C103.761 53.0706 103.234 52.8525 102.846 52.4642C102.458 52.0759 102.24 51.5492 102.24 51V41.7435H106.381V51Z" fill="#F0F0F0"/>
<path d="M105.448 51.0001C105.448 51.225 105.381 51.4449 105.256 51.6319C105.131 51.819 104.953 51.9647 104.745 52.0508C104.538 52.1369 104.309 52.1594 104.088 52.1155C103.868 52.0717 103.665 51.9633 103.506 51.8043C103.347 51.6452 103.239 51.4426 103.195 51.222C103.151 51.0014 103.173 50.7727 103.26 50.5649C103.346 50.3571 103.491 50.1794 103.678 50.0545C103.865 49.9295 104.085 49.8628 104.31 49.8628C104.612 49.8628 104.901 49.9826 105.114 50.1959C105.328 50.4092 105.448 50.6985 105.448 51.0001Z" fill="#E0E0E0"/>
<path d="M193.346 59.2111C193.808 59.6729 194.356 60.0393 194.959 60.2893C195.563 60.5392 196.209 60.6679 196.863 60.6679C197.516 60.6679 198.162 60.5392 198.766 60.2893C199.369 60.0393 199.917 59.6729 200.379 59.2111L202.215 57.37C202.677 56.9087 203.043 56.3609 203.293 55.758C203.543 55.155 203.671 54.5088 203.671 53.8561C203.671 53.2034 203.543 52.5572 203.293 51.9542C203.043 51.3513 202.677 50.8035 202.215 50.3422C201.754 49.8805 201.206 49.5143 200.603 49.2644C200 49.0145 199.354 48.8859 198.701 48.8859C198.048 48.8859 197.402 49.0145 196.799 49.2644C196.196 49.5143 195.649 49.8805 195.187 50.3422L193.346 52.1782C192.884 52.64 192.518 53.1882 192.268 53.7915C192.018 54.3949 191.889 55.0416 191.889 55.6947C191.889 56.3477 192.018 56.9944 192.268 57.5978C192.518 58.2011 192.884 58.7493 193.346 59.2111Z" fill="#E0E0E0"/>
<path d="M198.456 57.2169C198.695 57.4505 198.884 57.7289 199.014 58.0362C199.144 58.3435 199.212 58.6735 199.214 59.0072C199.215 59.3409 199.151 59.6716 199.024 59.9801C198.897 60.2887 198.71 60.5691 198.474 60.805C198.238 61.041 197.958 61.2278 197.65 61.3547C197.341 61.4816 197.01 61.5461 196.677 61.5444C196.343 61.5427 196.013 61.4749 195.706 61.3449C195.398 61.2149 195.12 61.0252 194.886 60.7869L191.785 57.63C191.547 57.3965 191.358 57.118 191.228 56.8107C191.097 56.5034 191.03 56.1734 191.028 55.8397C191.026 55.5061 191.091 55.1754 191.218 54.8668C191.345 54.5582 191.531 54.2778 191.767 54.0419C192.003 53.806 192.284 53.6191 192.592 53.4922C192.901 53.3653 193.232 53.3008 193.565 53.3025C193.899 53.3042 194.229 53.372 194.536 53.502C194.843 53.6321 195.122 53.8217 195.355 54.06L198.456 57.2169Z" fill="#F5F5F5"/>
<path d="M198.069 51C198.069 51.5492 198.287 52.0759 198.675 52.4642C199.064 52.8525 199.59 53.0706 200.139 53.0706C200.688 53.0706 201.215 52.8525 201.603 52.4642C201.992 52.0759 202.21 51.5492 202.21 51V41.7435H198.069V51Z" fill="#F0F0F0"/>
<path d="M199.002 51.0001C199.002 51.225 199.069 51.4449 199.194 51.6319C199.319 51.819 199.496 51.9647 199.704 52.0508C199.912 52.1369 200.141 52.1594 200.361 52.1155C200.582 52.0717 200.784 51.9633 200.943 51.8043C201.103 51.6452 201.211 51.4426 201.255 51.222C201.299 51.0014 201.276 50.7727 201.19 50.5649C201.104 50.3571 200.958 50.1794 200.771 50.0545C200.584 49.9295 200.364 49.8628 200.139 49.8628C199.99 49.8628 199.842 49.8922 199.704 49.9494C199.566 50.0065 199.441 50.0903 199.335 50.1959C199.23 50.3015 199.146 50.4269 199.089 50.5649C199.031 50.7029 199.002 50.8507 199.002 51.0001Z" fill="#E0E0E0"/>
<path d="M148.119 59.2111C148.581 59.6729 149.129 60.0393 149.733 60.2893C150.336 60.5392 150.983 60.6679 151.636 60.6679C152.289 60.6679 152.936 60.5392 153.539 60.2893C154.142 60.0393 154.69 59.6729 155.152 59.2111L156.988 57.37C157.45 56.9087 157.816 56.3609 158.066 55.758C158.316 55.155 158.445 54.5088 158.445 53.8561C158.445 53.2034 158.316 52.5572 158.066 51.9542C157.816 51.3513 157.45 50.8035 156.988 50.3422C156.527 49.8805 155.979 49.5143 155.376 49.2644C154.773 49.0145 154.127 48.8859 153.474 48.8859C152.822 48.8859 152.175 49.0145 151.572 49.2644C150.97 49.5143 150.422 49.8805 149.96 50.3422L148.119 52.1782C147.657 52.64 147.291 53.1882 147.041 53.7915C146.791 54.3949 146.663 55.0416 146.663 55.6947C146.663 56.3477 146.791 56.9944 147.041 57.5978C147.291 58.2011 147.657 58.7493 148.119 59.2111Z" fill="#E0E0E0"/>
<path d="M153.229 57.2169C153.468 57.4505 153.657 57.7289 153.787 58.0362C153.917 58.3435 153.985 58.6735 153.987 59.0072C153.989 59.3409 153.924 59.6716 153.797 59.9801C153.67 60.2887 153.484 60.5691 153.248 60.805C153.012 61.041 152.731 61.2278 152.423 61.3547C152.114 61.4816 151.783 61.5461 151.45 61.5444C151.116 61.5427 150.786 61.4749 150.479 61.3449C150.171 61.2149 149.893 61.0252 149.659 60.7869L146.559 57.63C146.32 57.3965 146.131 57.118 146.001 56.8107C145.871 56.5034 145.803 56.1734 145.801 55.8397C145.799 55.5061 145.864 55.1754 145.991 54.8668C146.118 54.5582 146.305 54.2778 146.541 54.0419C146.777 53.806 147.057 53.6191 147.365 53.4922C147.674 53.3653 148.005 53.3008 148.338 53.3025C148.672 53.3042 149.002 53.372 149.309 53.502C149.617 53.6321 149.895 53.8217 150.129 54.06L153.229 57.2169Z" fill="#F5F5F5"/>
<path d="M152.842 51C152.842 51.5492 153.06 52.0759 153.448 52.4642C153.837 52.8525 154.363 53.0706 154.913 53.0706C155.462 53.0706 155.988 52.8525 156.377 52.4642C156.765 52.0759 156.983 51.5492 156.983 51V41.7435H152.842V51Z" fill="#F0F0F0"/>
<path d="M153.775 51.0001C153.775 51.225 153.842 51.4449 153.967 51.6319C154.092 51.819 154.269 51.9647 154.477 52.0508C154.685 52.1369 154.914 52.1594 155.134 52.1155C155.355 52.0717 155.558 51.9633 155.717 51.8043C155.876 51.6452 155.984 51.4426 156.028 51.222C156.072 51.0014 156.049 50.7727 155.963 50.5649C155.877 50.3571 155.731 50.1794 155.544 50.0545C155.357 49.9295 155.137 49.8628 154.913 49.8628C154.611 49.8628 154.322 49.9826 154.108 50.1959C153.895 50.4092 153.775 50.6985 153.775 51.0001Z" fill="#E0E0E0"/>
<path d="M127.913 217.775C188.984 217.775 238.491 215.19 238.491 212.002C238.491 208.814 188.984 206.229 127.913 206.229C66.8424 206.229 17.3349 208.814 17.3349 212.002C17.3349 215.19 66.8424 217.775 127.913 217.775Z" fill="#F5F5F5"/>
<path opacity="0.3" d="M216.98 153.143C223.502 153.143 228.149 158.003 227.807 164.48L227.057 178.638C227.002 179.685 226.55 180.672 225.791 181.396C225.033 182.121 224.026 182.528 222.977 182.534H196.763L202.179 164.48C204.092 158.003 210.452 153.143 216.98 153.143Z" fill="white"/>
<path d="M82.7118 206.025H22.3788V211.895H82.7118V206.025Z" fill="#407BFF"/>
<path opacity="0.3" d="M82.7118 206.025H22.3788V211.895H82.7118V206.025Z" fill="white"/>
<path d="M175.44 206.025H77.622V211.895H175.44V206.025Z" fill="#407BFF"/>
<path opacity="0.7" d="M175.44 206.025H77.622V211.895H175.44V206.025Z" fill="white"/>
<path d="M44.4516 205.897C44.3171 205.886 44.1927 205.821 44.1057 205.718C44.0187 205.615 43.9762 205.481 43.9875 205.346L54.2487 82.4008H55.2687V83.4208H55.1871L44.9871 205.433C44.9754 205.565 44.913 205.687 44.8131 205.773C44.7132 205.86 44.5836 205.904 44.4516 205.897Z" fill="#263238"/>
<path d="M90.0507 205.897C90.1177 205.892 90.1831 205.874 90.243 205.843C90.303 205.813 90.3563 205.771 90.3999 205.719C90.4435 205.668 90.4765 205.609 90.4971 205.545C90.5177 205.481 90.5255 205.413 90.5199 205.346L80.2587 82.4008H79.2387V83.4208H79.3254L85.884 162.042H52.8717L46.2417 82.4008H45.2217V83.4208H45.3033L55.5033 205.433C55.515 205.568 55.5795 205.692 55.6827 205.779C55.786 205.866 55.9195 205.909 56.0541 205.897C56.1886 205.886 56.313 205.821 56.4 205.718C56.487 205.615 56.5295 205.481 56.5182 205.346L52.989 163.062H86.0013L89.5356 205.433C89.5471 205.561 89.6066 205.68 89.7021 205.766C89.7976 205.852 89.9221 205.899 90.0507 205.897Z" fill="#263238"/>
<path d="M92.412 145.804H43.6611L37.5054 72.0477H86.2563L92.412 145.804Z" fill="#407BFF"/>
<path opacity="0.8" d="M92.412 145.804H43.6611L37.5054 72.0477H86.2563L92.412 145.804Z" fill="white"/>
<path d="M86.2155 73.7817H37.4289C37.0001 73.7817 36.5889 73.6114 36.2857 73.3082C35.9825 73.005 35.8122 72.5938 35.8122 72.165C35.8122 71.7363 35.9825 71.325 36.2857 71.0219C36.5889 70.7187 37.0001 70.5483 37.4289 70.5483H86.2155C86.6443 70.5483 87.0555 70.7187 87.3587 71.0219C87.6619 71.325 87.8322 71.7363 87.8322 72.165C87.8322 72.5938 87.6619 73.005 87.3587 73.3082C87.0555 73.6114 86.6443 73.7817 86.2155 73.7817Z" fill="#407BFF"/>
<path opacity="0.5" d="M86.2155 73.7817H37.4289C37.0001 73.7817 36.5889 73.6114 36.2857 73.3082C35.9825 73.005 35.8122 72.5938 35.8122 72.165C35.8122 71.7363 35.9825 71.325 36.2857 71.0219C36.5889 70.7187 37.0001 70.5483 37.4289 70.5483H86.2155C86.6443 70.5483 87.0555 70.7187 87.3587 71.0219C87.6619 71.325 87.8322 71.7363 87.8322 72.165C87.8322 72.5938 87.6619 73.005 87.3587 73.3082C87.0555 73.6114 86.6443 73.7817 86.2155 73.7817Z" fill="white"/>
<path d="M66.1521 118.024L65.4279 109.39C65.4223 109.323 65.4301 109.256 65.4507 109.192C65.4713 109.127 65.5043 109.068 65.5479 109.017C65.5915 108.966 65.6448 108.924 65.7048 108.893C65.7647 108.863 65.8301 108.844 65.8971 108.839C66.0317 108.828 66.1652 108.87 66.2684 108.957C66.3717 109.044 66.4362 109.169 66.4479 109.303L67.167 117.938C67.1783 118.072 67.1358 118.206 67.0488 118.309C66.9618 118.412 66.8374 118.477 66.7029 118.488C66.5684 118.5 66.4348 118.457 66.3316 118.37C66.2283 118.283 66.1638 118.159 66.1521 118.024Z" fill="#407BFF"/>
<path d="M57.9768 109.599C51.6375 109.599 46.0275 104.438 45.4716 98.0985C45.3122 96.6351 45.466 95.1545 45.9229 93.7551C46.3799 92.3558 47.1294 91.0697 48.1217 89.9824C49.114 88.895 50.3264 88.0313 51.6782 87.4487C53.0301 86.866 54.4905 86.5778 55.9623 86.6031C59.0907 86.6624 62.0892 87.8641 64.3927 89.9817C66.6963 92.0992 68.1456 94.9862 68.4675 98.0985C68.626 99.562 68.4716 101.042 68.0144 102.442C67.5572 103.841 66.8077 105.127 65.8157 106.215C64.8236 107.302 63.6117 108.166 62.2602 108.75C60.9087 109.333 59.4487 109.623 57.9768 109.599ZM56.0082 87.1131C54.6018 87.0897 53.2066 87.3658 51.915 87.9228C50.6235 88.4799 49.4652 89.3052 48.5169 90.3441C47.5687 91.383 46.8523 92.6117 46.4152 93.9486C45.9781 95.2855 45.8303 96.7001 45.9816 98.0985C46.2864 101.074 47.6703 103.835 49.8719 105.86C52.0734 107.885 54.9403 109.034 57.9309 109.089C59.3378 109.112 60.7335 108.836 62.0254 108.279C63.3174 107.722 64.476 106.896 65.4243 105.856C66.3726 104.817 67.0889 103.588 67.5256 102.25C67.9624 100.912 68.1096 99.4973 67.9575 98.0985C67.6515 95.1238 66.2671 92.3641 64.0657 90.3402C61.8642 88.3164 58.9981 87.1684 56.0082 87.1131Z" fill="#407BFF"/>
<path d="M73.95 109.599C67.6107 109.599 62.0007 104.438 61.4448 98.0985C61.2862 96.6353 61.4406 95.155 61.8978 93.756C62.3551 92.357 63.1046 91.0713 64.0968 89.9841C65.0889 88.897 66.3009 88.0333 67.6524 87.4504C69.0039 86.8674 70.4639 86.5786 71.9355 86.6031C75.0638 86.6625 78.0624 87.8642 80.3659 89.9817C82.6694 92.0992 84.1188 94.9862 84.4407 98.0985C84.6 99.5622 84.4462 101.043 83.9893 102.443C83.5324 103.842 82.783 105.129 81.7908 106.216C80.7985 107.304 79.5862 108.168 78.2344 108.751C76.8825 109.335 75.4221 109.624 73.95 109.599ZM71.9814 87.1131C70.575 87.0898 69.1797 87.3658 67.8882 87.9228C66.5966 88.4799 65.4383 89.3052 64.4901 90.3441C63.5419 91.383 62.8254 92.6117 62.3883 93.9486C61.9512 95.2855 61.8034 96.7001 61.9548 98.0985C62.2596 101.074 63.6435 103.835 65.845 105.86C68.0466 107.885 70.9134 109.034 73.9041 109.089C75.3109 109.112 76.7067 108.836 77.9986 108.279C79.2905 107.722 80.4491 106.896 81.3974 105.856C82.3457 104.817 83.062 103.588 83.4988 102.25C83.9356 100.912 84.0828 99.4973 83.9307 98.0985C83.6248 95.1247 82.2411 92.3657 80.0407 90.3419C77.8404 88.3182 74.9754 87.1697 71.9865 87.1131H71.9814Z" fill="#407BFF"/>
<path d="M61.71 98.3127L66.5346 93.0291C66.4428 92.871 66.3408 92.7129 66.2439 92.5599L61.6539 97.5834C61.6539 97.7568 61.6539 97.9302 61.6845 98.0934C61.71 98.1699 61.71 98.2413 61.71 98.3127Z" fill="#407BFF"/>
<path d="M67.1619 94.1766C67.0803 94.0032 66.9987 93.8298 66.9069 93.6666L61.8579 99.2001C61.8936 99.4194 61.9395 99.6336 61.9905 99.8427L67.1619 94.1766Z" fill="#407BFF"/>
<path d="M67.6566 95.4414C67.5954 95.2476 67.5291 95.0589 67.4577 94.8702L62.22 100.618C62.2812 100.812 62.3475 101 62.4138 101.189L67.6566 95.4414Z" fill="#407BFF"/>
<path d="M65.8614 91.9786L65.5299 91.5502L61.761 95.6812C61.7202 95.9719 61.6947 96.2626 61.6794 96.5584L65.8614 91.9786Z" fill="#407BFF"/>
<path d="M65.0811 91.0197C64.9638 90.8871 64.8414 90.7596 64.7139 90.6321L62.4291 93.1413C62.2648 93.545 62.1268 93.959 62.016 94.3806L65.0811 91.0197Z" fill="#407BFF"/>
<path d="M67.6209 102.724C67.7603 102.34 67.8778 101.949 67.9728 101.551L64.77 105.06C64.8873 105.193 65.0097 105.325 65.1321 105.453L67.6209 102.724Z" fill="#407BFF"/>
<path d="M66.3459 105.142L65.6013 105.958L65.6523 106.009C65.8989 105.732 66.1304 105.443 66.3459 105.142Z" fill="#407BFF"/>
<path d="M68.0289 96.844C67.9881 96.6298 67.9371 96.4206 67.8861 96.2115L62.6994 101.898C62.7776 102.071 62.8592 102.241 62.9442 102.408L68.0289 96.844Z" fill="#407BFF"/>
<path d="M68.187 100.292C68.2176 100.011 68.238 99.7254 68.2431 99.4398L63.9795 104.111C64.0866 104.259 64.1937 104.402 64.3059 104.545L68.187 100.292Z" fill="#407BFF"/>
<path d="M68.2329 98.43C68.2329 98.3178 68.2329 98.2056 68.2329 98.0934L68.187 97.7058L63.3114 103.051C63.4032 103.21 63.5001 103.369 63.6021 103.525L68.2329 98.43Z" fill="#407BFF"/>
<path d="M83.2524 123.165H51.1632C50.7084 123.156 50.2727 122.981 49.9382 122.673C49.6037 122.365 49.3936 121.945 49.3476 121.492C49.3284 121.28 49.3538 121.066 49.422 120.864C49.4903 120.662 49.5999 120.477 49.744 120.32C49.888 120.163 50.0632 120.038 50.2584 119.953C50.4536 119.867 50.6645 119.824 50.8776 119.824H82.9668C83.4207 119.833 83.8558 120.008 84.1902 120.315C84.5246 120.622 84.7352 121.041 84.7824 121.492C84.8023 121.705 84.7775 121.919 84.7096 122.122C84.6417 122.324 84.5322 122.51 84.388 122.668C84.2439 122.825 84.0684 122.951 83.8728 123.036C83.6773 123.122 83.4659 123.166 83.2524 123.165Z" fill="#407BFF"/>
<path d="M79.8558 129.933H57.4566C57.0018 129.924 56.5661 129.749 56.2316 129.441C55.8971 129.132 55.687 128.712 55.641 128.26C55.6218 128.048 55.6472 127.834 55.7154 127.632C55.7837 127.43 55.8933 127.245 56.0374 127.088C56.1814 126.931 56.3566 126.806 56.5518 126.72C56.747 126.635 56.9579 126.591 57.171 126.592H79.56C80.0143 126.6 80.45 126.774 80.7846 127.081C81.1192 127.389 81.3295 127.808 81.3756 128.26C81.3954 128.472 81.3709 128.685 81.3036 128.887C81.2363 129.089 81.1277 129.274 80.9847 129.432C80.8417 129.589 80.6674 129.715 80.473 129.801C80.2787 129.887 80.0684 129.932 79.8558 129.933Z" fill="#407BFF"/>
<path d="M83.2524 123.165H51.1632C50.7084 123.156 50.2727 122.981 49.9382 122.673C49.6037 122.365 49.3936 121.945 49.3476 121.492C49.3284 121.28 49.3538 121.066 49.422 120.864C49.4903 120.662 49.5999 120.477 49.744 120.32C49.888 120.163 50.0632 120.038 50.2584 119.953C50.4536 119.867 50.6645 119.824 50.8776 119.824H82.9668C83.4207 119.833 83.8558 120.008 84.1902 120.315C84.5246 120.622 84.7352 121.041 84.7824 121.492C84.8023 121.705 84.7775 121.919 84.7096 122.122C84.6417 122.324 84.5322 122.51 84.388 122.668C84.2439 122.825 84.0684 122.951 83.8728 123.036C83.6773 123.122 83.4659 123.166 83.2524 123.165Z" fill="#407BFF"/>
<path d="M79.8558 129.933H57.4566C57.0018 129.924 56.5661 129.749 56.2316 129.441C55.8971 129.132 55.687 128.712 55.641 128.26C55.6218 128.048 55.6472 127.834 55.7154 127.632C55.7837 127.43 55.8933 127.245 56.0374 127.088C56.1814 126.931 56.3566 126.806 56.5518 126.72C56.747 126.635 56.9579 126.591 57.171 126.592H79.56C80.0143 126.6 80.45 126.774 80.7846 127.081C81.1192 127.389 81.3295 127.808 81.3756 128.26C81.3954 128.472 81.3709 128.685 81.3036 128.887C81.2363 129.089 81.1277 129.274 80.9847 129.432C80.8417 129.589 80.6674 129.715 80.473 129.801C80.2787 129.887 80.0684 129.932 79.8558 129.933Z" fill="#407BFF"/>
<path d="M119.656 201.108L122.839 200.104L121.553 192.795L118.366 193.8L119.656 201.108Z" fill="#CE7A63"/>
<path d="M122.91 199.69L119.34 200.818C119.28 200.836 119.228 200.876 119.195 200.929C119.161 200.982 119.148 201.046 119.156 201.108L119.636 203.913C119.65 203.987 119.68 204.056 119.725 204.117C119.769 204.178 119.826 204.228 119.891 204.264C119.957 204.3 120.03 204.321 120.105 204.326C120.18 204.33 120.255 204.318 120.324 204.291C121.564 203.878 122.145 203.617 123.721 203.123C124.69 202.817 128.821 201.593 130.167 201.19C131.514 200.787 131.187 199.497 130.565 199.558C127.903 199.838 124.578 200.109 123.517 199.706C123.322 199.631 123.108 199.626 122.91 199.69Z" fill="#263238"/>
<path opacity="0.2" d="M118.366 193.8L121.553 192.795L122.216 196.564L119.029 197.569L118.366 193.8Z" fill="black"/>
<path d="M117.3 119.85C117.3 119.85 119.381 146.37 119.876 155.621C120.416 165.755 123.446 195.401 123.446 195.401L117.555 196.993C117.555 196.993 111.848 168.28 110.384 158.431C108.793 147.721 105.667 119.87 105.667 119.87L117.3 119.85Z" fill="#263238"/>
<path d="M117.371 197.059L123.68 195.361L123.782 192.851L116.637 195.254L117.371 197.059Z" fill="#263238"/>
<path d="M124.18 199.874C123.894 199.957 123.6 200.01 123.303 200.032C123.289 200.033 123.275 200.029 123.264 200.022C123.252 200.014 123.242 200.004 123.236 199.991C123.228 199.979 123.224 199.965 123.224 199.951C123.224 199.936 123.228 199.922 123.236 199.91C123.323 199.808 124.083 198.925 124.506 198.951C124.554 198.952 124.6 198.967 124.64 198.993C124.679 199.019 124.711 199.056 124.731 199.099C124.768 199.163 124.788 199.236 124.788 199.311C124.788 199.385 124.768 199.458 124.731 199.522C124.594 199.7 124.399 199.825 124.18 199.874ZM123.486 199.874C124.083 199.803 124.506 199.655 124.613 199.461C124.637 199.419 124.65 199.372 124.65 199.323C124.65 199.275 124.637 199.228 124.613 199.186C124.604 199.165 124.589 199.147 124.57 199.135C124.551 199.122 124.529 199.115 124.506 199.114C124.267 199.089 123.797 199.517 123.486 199.864V199.874Z" fill="#407BFF"/>
<path d="M123.323 200.027H123.287C123.275 200.024 123.264 200.018 123.254 200.01C123.245 200.002 123.237 199.992 123.231 199.981C123.231 199.94 122.935 199.073 123.185 198.67C123.218 198.619 123.262 198.575 123.313 198.54C123.364 198.506 123.421 198.483 123.481 198.472C123.541 198.452 123.606 198.454 123.664 198.478C123.722 198.503 123.77 198.547 123.797 198.604C123.955 198.92 123.629 199.716 123.359 200.002L123.323 200.027ZM123.461 198.635C123.4 198.654 123.347 198.693 123.313 198.747C123.209 199.091 123.218 199.459 123.338 199.798C123.579 199.48 123.694 199.083 123.66 198.686C123.66 198.645 123.609 198.604 123.496 198.625L123.461 198.635Z" fill="#407BFF"/>
<path opacity="0.6" d="M109.971 128.051C108.758 123.318 107.518 124.45 106.636 126.521C106.728 127.974 106.825 129.504 106.932 131.111C107.656 137.328 108.574 145.024 109.375 151.246C110.874 145.013 111.69 134.64 109.971 128.051Z" fill="black"/>
<path d="M95.6403 202.531H98.8992L99.9804 194.988H96.7266L95.6403 202.531Z" fill="#CE7A63"/>
<path d="M99.1032 202.154H95.4414C95.3785 202.154 95.3178 202.177 95.2701 202.218C95.2225 202.259 95.191 202.316 95.1813 202.378L94.7529 205.275C94.7434 205.347 94.7496 205.421 94.7709 205.491C94.7923 205.56 94.8283 205.625 94.8767 205.679C94.925 205.734 94.9845 205.778 95.0511 205.807C95.1178 205.837 95.19 205.852 95.2629 205.851C96.5379 205.851 97.1499 205.754 98.7615 205.754C99.7509 205.754 103.953 205.862 105.32 205.862C106.687 205.862 106.769 204.51 106.197 204.383C103.647 203.837 100.496 203.077 99.6387 202.343C99.4871 202.22 99.2981 202.154 99.1032 202.154Z" fill="#263238"/>
<path opacity="0.2" d="M96.7215 194.988H99.9804L99.4245 198.88H96.1656L96.7215 194.988Z" fill="black"/>
<path d="M111.445 119.656C111.445 119.656 109.579 144.554 108.232 153.882C106.763 164.082 100.904 197.941 100.904 197.941H94.9365C94.9365 197.941 97.9965 164.924 98.5065 154.811C99.0777 143.835 100.179 119.656 100.179 119.656H111.445Z" fill="#263238"/>
<path d="M94.6968 197.941H101.143L101.699 195.677L94.5489 196.029L94.6968 197.941Z" fill="#263238"/>
<path d="M100.21 202.725C99.9208 202.718 99.6333 202.679 99.3531 202.608C99.3385 202.605 99.3253 202.597 99.3152 202.586C99.3052 202.575 99.2988 202.561 99.297 202.547C99.2974 202.531 99.3013 202.517 99.3084 202.503C99.3154 202.49 99.3255 202.479 99.3378 202.47C99.4449 202.399 100.424 201.766 100.807 201.924C100.851 201.941 100.889 201.97 100.917 202.008C100.945 202.046 100.962 202.091 100.965 202.139C100.98 202.213 100.976 202.289 100.954 202.361C100.932 202.434 100.892 202.499 100.837 202.552C100.655 202.681 100.433 202.743 100.21 202.725ZM99.5673 202.496C99.9503 202.63 100.37 202.611 100.74 202.445C100.774 202.409 100.799 202.366 100.813 202.319C100.826 202.272 100.827 202.222 100.817 202.174C100.816 202.151 100.809 202.128 100.795 202.109C100.781 202.09 100.762 202.075 100.74 202.067C100.536 201.96 99.96 202.256 99.5673 202.496Z" fill="#407BFF"/>
<path d="M99.3684 202.608H99.3327C99.3223 202.601 99.3136 202.592 99.3073 202.582C99.3011 202.571 99.2976 202.559 99.297 202.547C99.297 202.506 99.297 201.567 99.6642 201.251C99.7079 201.21 99.7604 201.178 99.8178 201.16C99.8751 201.141 99.936 201.136 99.9957 201.144C100.059 201.146 100.119 201.17 100.165 201.212C100.212 201.254 100.242 201.311 100.251 201.374C100.292 201.731 99.7407 202.394 99.4092 202.603C99.3965 202.609 99.3822 202.61 99.3684 202.608ZM99.9294 201.287C99.8672 201.288 99.8075 201.312 99.7611 201.353C99.5592 201.655 99.4525 202.01 99.4551 202.373C99.7611 202.133 100.128 201.618 100.098 201.384C100.098 201.343 100.072 201.287 99.9651 201.277L99.9294 201.287Z" fill="#407BFF"/>
<path d="M118.646 93.1515C119.442 94.9926 120.345 96.9102 121.298 98.685C121.773 99.5826 122.283 100.444 122.828 101.235C123.289 101.979 123.839 102.664 124.466 103.275C124.573 103.375 124.687 103.467 124.807 103.55C124.899 103.617 124.96 103.642 124.96 103.647C124.96 103.652 124.899 103.673 124.96 103.678C125.041 103.681 125.121 103.666 125.195 103.632C125.521 103.499 125.822 103.313 126.087 103.081C126.447 102.798 126.788 102.492 127.107 102.163C128.467 100.656 129.707 99.0444 130.815 97.3437L132.855 98.3025C132.158 100.475 131.151 102.536 129.866 104.422C129.512 104.931 129.12 105.411 128.693 105.861C128.193 106.387 127.619 106.839 126.99 107.202C126.593 107.435 126.163 107.607 125.715 107.712C125.183 107.822 124.635 107.822 124.103 107.712C123.255 107.525 122.462 107.143 121.788 106.595C120.8 105.789 119.927 104.852 119.192 103.81C118.515 102.88 117.891 101.913 117.32 100.914C116.765 99.9294 116.239 98.9451 115.765 97.9404C115.291 96.9357 114.832 95.9514 114.408 94.8804L118.646 93.1515Z" fill="#CE7A63"/>
<path d="M124.037 100.98L118.891 104.82C118.891 104.82 118.692 104.606 118.381 104.229C118.142 103.948 117.836 103.581 117.479 103.153C115.479 100.715 112.557 96.2676 112.532 94.0899C112.496 90.8412 115.867 90.3618 119.672 93.6819C121.304 95.115 122.16 97.4967 122.987 98.9706C123.262 99.4551 123.497 99.8835 123.675 100.215C123.894 100.679 124.037 100.98 124.037 100.98Z" fill="#407BFF"/>
<path opacity="0.6" d="M124.037 100.98L118.891 104.82C118.891 104.82 118.692 104.606 118.381 104.229C118.142 103.948 117.836 103.581 117.479 103.153C115.479 100.715 112.557 96.2676 112.532 94.0899C112.496 90.8412 115.867 90.3618 119.672 93.6819C121.304 95.115 122.16 97.4967 122.987 98.9706C123.262 99.4551 123.497 99.8835 123.675 100.215C123.894 100.679 124.037 100.98 124.037 100.98Z" fill="white"/>
<path opacity="0.3" d="M112.481 94.4469C113.643 93.6768 114.495 95.6709 116.795 97.3488C117.815 98.0985 120.064 102.989 119.881 104.065L118.886 104.805C118.886 104.805 112.455 97.6854 112.481 94.4469Z" fill="black"/>
<path d="M130.524 97.4762L131.646 93.9062L134.553 96.0432C134.553 96.0432 132.967 99.2357 131.891 98.945L130.524 97.4762Z" fill="#CE7A63"/>
<path d="M124.037 100.465L118.412 104.672L119.111 105.407L124.466 101.454L124.037 100.465Z" fill="#407BFF"/>
<path opacity="0.8" d="M124.037 100.465L118.412 104.672L119.111 105.407L124.466 101.454L124.037 100.465Z" fill="white"/>
<path d="M117.611 119.85H100.184C100.062 118.32 100.419 113.22 100.154 106.784C99.986 102.005 99.4058 97.2492 98.4198 92.5701C98.3433 92.2182 98.2617 91.8714 98.1801 91.5195C98.1801 91.5195 99.0624 91.341 100.327 91.1574C101.378 91.0044 102.699 90.8412 103.989 90.78C106.455 90.6422 108.928 90.6422 111.394 90.78C112.532 90.8871 113.643 91.0758 114.531 91.2492C115.668 91.4787 116.336 91.6725 116.336 91.6725C116.336 91.6725 120.63 101.49 117.611 119.85Z" fill="#407BFF"/>
<path opacity="0.6" d="M117.611 119.85H100.184C100.062 118.32 100.419 113.22 100.154 106.784C99.986 102.005 99.4058 97.2492 98.4198 92.5701C98.3433 92.2182 98.2617 91.8714 98.1801 91.5195C98.1801 91.5195 99.0624 91.341 100.327 91.1574C101.378 91.0044 102.699 90.8412 103.989 90.78C106.455 90.6422 108.928 90.6422 111.394 90.78C112.532 90.8871 113.643 91.0758 114.531 91.2492C115.668 91.4787 116.336 91.6725 116.336 91.6725C116.336 91.6725 120.63 101.49 117.611 119.85Z" fill="white"/>
<path d="M134.711 92.519L136.349 94.5284L134.553 96.0227L131.646 93.8909L134.711 92.519Z" fill="#CE7A63"/>
<path d="M100.771 94.8957C100.598 96.0024 100.373 97.0172 100.133 98.0678C99.8937 99.1184 99.6234 100.144 99.2868 101.184C98.9611 102.238 98.5815 103.275 98.1495 104.29C97.6867 105.401 97.098 106.455 96.3951 107.431C95.942 108.048 95.3866 108.583 94.7529 109.012C94.3278 109.292 93.8564 109.494 93.3606 109.609C92.8051 109.737 92.228 109.737 91.6725 109.609C90.8135 109.37 90.0426 108.887 89.454 108.217C89.0143 107.731 88.6358 107.193 88.3269 106.615C87.7847 105.613 87.3537 104.555 87.0417 103.459C86.8836 102.949 86.7561 102.403 86.6439 101.872C86.5317 101.342 86.4246 100.852 86.3532 100.261L88.5462 99.6591C89.3219 101.412 90.2719 103.083 91.3818 104.647C91.612 104.948 91.8736 105.223 92.1621 105.468C92.4018 105.667 92.6109 105.708 92.5497 105.652C92.5008 105.626 92.4467 105.612 92.3916 105.611C92.3508 105.611 92.3508 105.611 92.3916 105.57C92.5864 105.382 92.7577 105.172 92.9016 104.943C93.3543 104.213 93.7271 103.437 94.0134 102.627C94.3449 101.76 94.6305 100.837 94.8957 99.8988C95.4057 98.0322 95.8749 96.0483 96.2421 94.1613L100.771 94.8957Z" fill="#CE7A63"/>
<path d="M88.8063 99.8427L87.6894 96.2727L84.7773 98.4096C84.7773 98.4096 86.3685 101.602 87.4446 101.311L88.8063 99.8427Z" fill="#CE7A63"/>
<path d="M84.6192 94.8855L82.9821 96.8949L84.7773 98.3943L87.6894 96.2574L84.6192 94.8855Z" fill="#CE7A63"/>
<path opacity="0.3" d="M100.154 106.758C99.986 101.979 99.4058 97.2238 98.4198 92.5446C99.5877 92.4477 101.577 92.5446 101.908 94.4418C102.26 96.4614 101.816 101.22 100.154 106.758Z" fill="black"/>
<path d="M102.337 97.0887C101.626 99.3058 100.785 101.479 99.8172 103.596C99.6081 104.076 99.4143 104.499 99.2562 104.841L98.8023 105.81L92.2794 102.51C92.2794 102.51 92.3508 102.24 92.4834 101.781C92.5803 101.434 92.7078 100.985 92.871 100.46C93.8298 97.3998 95.8239 91.8918 97.971 91.5093C101.123 90.9075 103.499 93.2127 102.337 97.0887Z" fill="#407BFF"/>
<path opacity="0.6" d="M102.337 97.0887C101.626 99.3058 100.785 101.479 99.8172 103.596C99.6081 104.076 99.4143 104.499 99.2562 104.841L98.8023 105.81L92.2794 102.51C92.2794 102.51 92.3508 102.24 92.4834 101.781C92.5803 101.434 92.7078 100.985 92.871 100.46C93.8298 97.3998 95.8239 91.8918 97.971 91.5093C101.123 90.9075 103.499 93.2127 102.337 97.0887Z" fill="white"/>
<path d="M108.258 93.2025C103.953 93.0852 103.306 90.984 103.28 90.8922V90.8004L104.014 90.7545C106.481 90.6167 108.953 90.6167 111.42 90.7545L111.838 90.8004C112.018 90.9508 112.156 91.1442 112.241 91.3627C112.326 91.5812 112.354 91.8176 112.322 92.0499C112.134 92.7843 111.124 93.0291 110.242 93.1311L108.258 93.2025Z" fill="white"/>
<path d="M92.4324 101.312L99.5622 104.958L98.7564 105.947L92.1264 102.505L92.4324 101.312Z" fill="#407BFF"/>
<path opacity="0.8" d="M92.4324 101.312L99.5622 104.958L98.7564 105.947L92.1264 102.505L92.4324 101.312Z" fill="white"/>
<path d="M107.896 93.5238L110.782 93.2025L110.145 95.1405C110.145 95.1405 112.129 105.473 112.516 108.951C112.746 111.037 112.95 117.326 112.95 117.326L111.445 118.983L109.211 117.922C109.211 117.922 109.262 110.843 109.252 108.487C109.252 105.147 109.084 95.1405 109.084 95.1405L107.789 93.891L107.896 93.5238Z" fill="#263238"/>
<path d="M107.192 95.4261L109.293 93.5136L111.884 95.2986C111.884 95.2986 114.566 92.7486 112.572 90.8973C112.19 90.8412 111.797 90.7953 111.394 90.7545C108.928 90.6167 106.455 90.6167 103.989 90.7545C103.479 90.78 102.969 90.8208 102.459 90.8718C102.627 91.5909 103.387 93.9522 107.192 95.4261Z" fill="#407BFF"/>
<path opacity="0.8" d="M107.192 95.4261L109.293 93.5136L111.884 95.2986C111.884 95.2986 114.566 92.7486 112.572 90.8973C112.19 90.8412 111.797 90.7953 111.394 90.7545C108.928 90.6167 106.455 90.6167 103.989 90.7545C103.479 90.78 102.969 90.8208 102.459 90.8718C102.627 91.5909 103.387 93.9522 107.192 95.4261Z" fill="white"/>
<path d="M108.395 92.769C104.249 92.6976 103.703 90.7749 103.703 90.7749C105.315 89.1837 104.698 84.8385 104.147 82.4517L106.131 84.0939L108.829 86.3379C108.747 86.6956 108.689 87.0586 108.656 87.4242C108.513 88.8879 108.89 90.219 111.042 90.729C111.042 90.729 113.592 92.4222 109.808 92.7282L108.395 92.769Z" fill="#CE7A63"/>
<path opacity="0.2" d="M108.829 86.3379C108.747 86.6957 108.689 87.0586 108.655 87.4242C107.635 87.2253 106.304 86.1492 106.167 85.1241C106.117 84.7865 106.105 84.4444 106.131 84.1041L108.829 86.3379Z" fill="black"/>
<path d="M103.331 79.0193C104.02 82.1864 104.259 84.0683 106.131 85.5167C106.736 85.993 107.46 86.2945 108.224 86.3886C108.989 86.4827 109.764 86.3658 110.467 86.0505C111.169 85.7353 111.772 85.2337 112.21 84.6002C112.647 83.9666 112.903 83.2254 112.95 82.4567C113.2 79.5089 112.032 74.8067 108.696 73.9244C107.977 73.709 107.214 73.6874 106.483 73.8617C105.753 74.0361 105.082 74.4001 104.537 74.9171C103.993 75.4342 103.595 76.0858 103.383 76.8061C103.171 77.5264 103.153 78.2899 103.331 79.0193Z" fill="#CE7A63"/>
<path d="M108.329 79.3305C108.37 79.5906 108.538 79.7844 108.712 79.764C108.885 79.7436 108.987 79.5192 108.946 79.254C108.905 78.9888 108.737 78.8001 108.564 78.8205C108.39 78.8409 108.288 79.05 108.329 79.3305Z" fill="#263238"/>
<path d="M111.277 78.9836C111.318 79.2437 111.491 79.4375 111.659 79.4171C111.828 79.3967 111.935 79.1672 111.899 78.9071C111.863 78.647 111.685 78.4532 111.517 78.4736C111.348 78.494 111.241 78.7235 111.277 78.9836Z" fill="#263238"/>
<path d="M110.359 79.2234C110.795 79.9826 111.33 80.6806 111.95 81.2991C111.789 81.4476 111.597 81.5584 111.388 81.6237C111.179 81.689 110.958 81.707 110.741 81.6765L110.359 79.2234Z" fill="#BA4D3C"/>
<path d="M107.268 78.4941C107.245 78.5015 107.22 78.5015 107.197 78.4941C107.179 78.4845 107.163 78.4714 107.151 78.4557C107.138 78.4399 107.128 78.4218 107.123 78.4024C107.117 78.3829 107.115 78.3625 107.117 78.3424C107.12 78.3222 107.126 78.3027 107.136 78.285C107.248 78.0695 107.412 77.8853 107.613 77.7491C107.815 77.6129 108.046 77.5289 108.288 77.5047C108.309 77.5026 108.329 77.5047 108.348 77.5108C108.368 77.517 108.386 77.5271 108.401 77.5405C108.416 77.5539 108.429 77.5703 108.437 77.5887C108.446 77.6071 108.451 77.6272 108.451 77.6475C108.453 77.668 108.45 77.6886 108.443 77.708C108.437 77.7274 108.426 77.7453 108.412 77.7605C108.398 77.7758 108.382 77.788 108.363 77.7967C108.344 77.8053 108.324 77.8101 108.304 77.8107C108.115 77.8343 107.935 77.9032 107.778 78.0115C107.622 78.1199 107.494 78.2644 107.406 78.4329C107.39 78.4534 107.369 78.4697 107.345 78.4803C107.321 78.491 107.294 78.4957 107.268 78.4941Z" fill="#263238"/>
<path d="M112.389 77.8208C112.364 77.8199 112.34 77.8134 112.318 77.802C112.295 77.7905 112.276 77.7743 112.261 77.7545C112.155 77.5877 112.012 77.4475 111.843 77.3449C111.674 77.2422 111.484 77.18 111.287 77.1629C111.247 77.1629 111.208 77.1468 111.179 77.1181C111.15 77.0894 111.134 77.0505 111.134 77.0099C111.134 76.9694 111.15 76.9304 111.179 76.9018C111.208 76.8731 111.247 76.8569 111.287 76.8569C111.534 76.8733 111.773 76.9473 111.985 77.0731C112.198 77.1989 112.378 77.3729 112.511 77.5811C112.523 77.5978 112.531 77.6166 112.535 77.6365C112.539 77.6564 112.539 77.6768 112.536 77.6968C112.532 77.7167 112.524 77.7357 112.513 77.7526C112.502 77.7695 112.487 77.7841 112.47 77.7953C112.446 77.8105 112.418 77.8193 112.389 77.8208Z" fill="#263238"/>
<path d="M104.484 81.6C104.484 81.6 105.886 82.5231 105.759 81.4062C105.631 80.2893 105.121 76.5306 105.121 76.5306L106.682 75.2556C106.682 75.2556 113.312 75.3015 112.904 71.9304C112.496 68.5593 109.39 71.2266 109.39 71.2266C109.39 71.2266 110.022 69.3243 107.794 69.36C107.191 69.3506 106.605 69.5623 106.148 69.955C105.69 70.3478 105.392 70.8944 105.31 71.4918C105.31 71.4918 103.209 70.2525 102.173 71.3643C101.861 71.7491 101.63 72.1935 101.495 72.6706C101.36 73.1476 101.323 73.6471 101.388 74.1387C101.388 74.1387 96.288 74.8578 99.603 79.7487C102.918 84.6396 105.376 85.2261 104.484 81.6Z" fill="#263238"/>
<path d="M102.602 82.3241C103.114 82.9427 103.824 83.366 104.611 83.5226C105.631 83.6909 105.835 82.7627 105.325 81.8702C104.871 81.0644 103.795 80.0087 102.908 80.2433C102.02 80.4779 101.954 81.5438 102.602 82.3241Z" fill="#CE7A63"/>
<path d="M107.253 85.7616C106.799 84.609 106.172 82.5792 106.84 80.8299C107.508 79.0806 109.966 82.1049 110.823 82.1049C111.68 82.1049 112.409 80.7636 112.924 81.6867C113.439 82.6098 111.241 87.9189 110.777 86.5266C110.777 86.5266 110.155 87.4803 109.584 86.6082C109.584 86.6082 109.196 87.3426 108.594 86.6082C108.594 86.6082 107.738 86.9856 107.253 85.7616Z" fill="#263238"/>
<path opacity="0.3" d="M107.253 85.7616C106.799 84.609 106.172 82.5792 106.84 80.8299C107.508 79.0806 109.966 82.1049 110.823 82.1049C111.68 82.1049 112.409 80.7636 112.924 81.6867C113.439 82.6098 111.241 87.9189 110.777 86.5266C110.777 86.5266 110.155 87.4803 109.584 86.6082C109.584 86.6082 109.196 87.3426 108.594 86.6082C108.594 86.6082 107.738 86.9856 107.253 85.7616Z" fill="white"/>
<path d="M111.624 82.5384C110.406 82.3137 109.17 82.2061 107.931 82.2171C108.227 83.0433 108.803 83.7471 110.201 83.7471C110.375 83.7676 110.551 83.752 110.719 83.7013C110.887 83.6506 111.042 83.566 111.175 83.4525C111.309 83.3391 111.418 83.1994 111.495 83.0421C111.572 82.8849 111.616 82.7134 111.624 82.5384Z" fill="#263238"/>
<path d="M109.574 83.0892C110.117 83.0702 110.653 83.2238 111.104 83.5278C110.839 83.6904 110.531 83.7687 110.221 83.7523C109.677 83.7782 109.139 83.6241 108.691 83.3137C108.955 83.1486 109.263 83.0701 109.574 83.0892Z" fill="#A02724"/>
<path d="M111.496 82.5129C111.467 82.6128 111.411 82.7026 111.333 82.7721C111.256 82.8415 111.16 82.8877 111.058 82.9056C110.242 82.8794 109.43 82.7839 108.63 82.62C108.503 82.6067 108.381 82.5613 108.275 82.4882C108.17 82.4151 108.085 82.3166 108.028 82.2018C109.191 82.213 110.35 82.317 111.496 82.5129Z" fill="white"/>
<path d="M208.08 121.171C207.886 121.125 207.647 121.298 207.57 121.589C207.494 121.88 207.539 122.181 207.733 122.227C207.927 122.273 208.167 122.099 208.243 121.808C208.32 121.518 208.248 121.217 208.08 121.171Z" fill="#2E353A"/>
<path d="M207.014 124.323C206.796 124.3 206.586 124.23 206.398 124.118C206.21 124.005 206.05 123.852 205.928 123.67C206.678 123.216 207.364 122.663 207.968 122.028L207.014 124.323Z" fill="#A02724"/>
<path d="M209.355 120.722C209.317 120.505 209.228 120.299 209.096 120.122C208.964 119.945 208.792 119.801 208.595 119.702C208.573 119.693 208.554 119.68 208.537 119.664C208.52 119.648 208.507 119.628 208.497 119.607C208.479 119.563 208.478 119.514 208.496 119.47C208.513 119.426 208.548 119.391 208.591 119.372C208.635 119.354 208.684 119.353 208.728 119.371C208.986 119.491 209.21 119.673 209.381 119.901C209.552 120.128 209.664 120.395 209.707 120.676C209.714 120.722 209.704 120.769 209.677 120.807C209.65 120.845 209.61 120.871 209.564 120.88H209.467C209.436 120.866 209.409 120.844 209.389 120.817C209.37 120.789 209.358 120.756 209.355 120.722Z" fill="#2E353A"/>
<path d="M216.561 134.885C216.76 135.767 216.893 136.185 216.102 136.568C214.471 137.424 212.608 137.733 210.788 137.45C208.906 137.129 208.57 136.456 208.646 135.92C208.711 135.713 208.823 135.524 208.974 135.367C209.124 135.211 209.309 135.091 209.513 135.017C209.931 134.837 210.286 134.536 210.534 134.154C210.781 133.772 210.911 133.326 210.905 132.87C210.982 132.386 210.972 131.892 210.875 131.412L214.241 129.183L216.791 126.353C216.155 129.154 216.077 132.053 216.561 134.885Z" fill="#B55B52"/>
<path d="M205.974 136.853C205.974 136.853 207.218 133.421 209.238 132.626C211.257 131.83 217.311 132.279 217.311 132.279C217.596 133.518 217.975 134.733 218.443 135.915L205.974 136.853Z" fill="#407BFF"/>
<path d="M218.331 122.553C218.314 121.879 218.163 121.215 217.888 120.6C217.613 119.985 217.219 119.43 216.728 118.968C216.237 118.506 215.659 118.146 215.029 117.909C214.398 117.672 213.726 117.562 213.053 117.586C209.156 117.728 206.876 122.731 206.53 126.143C206.142 129.928 209.87 133.105 213.445 131.381C215.822 130.234 216.505 128.163 217.913 124.751C218.213 124.058 218.356 123.308 218.331 122.553Z" fill="#B55B52"/>
<path opacity="0.2" d="M217.709 133.773C217.923 134.497 218.168 135.211 218.443 135.915L206.922 136.782C207.207 136.101 207.565 135.453 207.988 134.849C210.773 133.722 215.638 133.717 217.709 133.773Z" fill="black"/>
<path d="M215.597 129.902C214.984 129.773 214.35 129.773 213.736 129.902C213.435 129.967 213.121 129.929 212.844 129.795C212.567 129.661 212.342 129.439 212.206 129.163L210.385 125.378C210.385 125.378 207.774 124.511 210.972 119.294C210.972 119.294 204.887 117.28 209.381 113.144C213.874 109.007 210.972 114.602 210.972 114.602C210.972 114.602 216.653 111.542 213.812 115.418C213.812 115.418 222.482 115.857 220.346 120.559C220.346 120.559 223.916 120.63 216.923 129.402C216.771 129.601 216.566 129.752 216.332 129.841C216.097 129.929 215.843 129.95 215.597 129.902Z" fill="#263238"/>
<path d="M211.752 122.941C210.773 122.798 209.712 123.782 209.375 124.659C208.993 125.679 209.493 126.801 210.523 126.526C211.318 126.297 212.002 125.786 212.446 125.088C212.996 124.216 212.731 123.083 211.752 122.941Z" fill="#B55B52"/>
<path d="M216.939 139.337C217.382 140.225 217.877 141.199 218.321 142.137C218.764 143.075 219.213 144.039 219.616 144.993C220.019 145.947 220.417 146.895 220.743 147.834C221.062 148.7 221.306 149.593 221.473 150.501C221.53 150.809 221.559 151.121 221.559 151.434C221.558 151.462 221.558 151.489 221.559 151.516L221.585 151.47C221.345 151.719 221.091 151.954 220.825 152.174C220.463 152.419 220.055 152.684 219.626 152.918C217.892 153.893 215.893 154.765 213.965 155.652L214.613 158.345C215.758 158.259 216.896 158.101 218.02 157.871C219.169 157.648 220.303 157.349 221.411 156.973C222.006 156.773 222.587 156.535 223.15 156.259C223.828 155.94 224.46 155.533 225.032 155.05C225.444 154.688 225.789 154.256 226.052 153.775C226.096 153.701 226.135 153.624 226.17 153.546L226.256 153.347C226.312 153.214 226.353 153.092 226.394 152.964C226.47 152.729 226.529 152.489 226.573 152.245C226.704 151.472 226.731 150.685 226.654 149.904C226.521 148.646 226.27 147.403 225.904 146.192C225.568 145.044 225.175 143.948 224.757 142.871C224.339 141.795 223.89 140.76 223.411 139.74C222.931 138.72 222.431 137.7 221.845 136.68L216.939 139.337Z" fill="#B55B52"/>
<path d="M215.22 155.759L211.074 154.693L210.732 158.421C210.732 158.421 213.527 159.574 215.251 157.769L215.22 155.759Z" fill="#B55B52"/>
<path d="M209.426 155.239L208.544 158.248L210.752 158.421L211.094 154.693L209.426 155.239Z" fill="#B55B52"/>
<path d="M225.741 143.728L218.678 147.232C218.678 147.232 218.306 147.135 215.511 142.667C212.272 137.471 214.047 134.548 217.954 134.405C221.947 134.258 223.38 139.199 225.741 143.728Z" fill="#407BFF"/>
<path opacity="0.2" d="M223.543 144.815L220.162 146.492L218.443 144.463L220.351 139.368L220.881 138.786L222.207 138.593L223.543 144.815Z" fill="black"/>
<path d="M179.693 198.997L176.18 197.472L173.477 205.938L176.995 207.463L179.693 198.997Z" fill="#B55B52"/>
<path opacity="0.2" d="M179.693 198.997L176.18 197.472L174.833 201.705L178.383 203.097L179.693 198.997Z" fill="black"/>
<path d="M173.084 204.449C172.033 205.331 169.891 205.979 168.244 206.066C166.979 206.127 166.872 207.596 168.458 207.851C170.044 208.106 172.808 207.993 173.971 208.039C175.858 208.111 176.521 208.422 177.99 208.396C178.169 208.387 178.336 208.308 178.458 208.177C178.579 208.045 178.643 207.871 178.638 207.692L178.322 204.306C178.315 204.234 178.281 204.168 178.227 204.12C178.173 204.073 178.103 204.048 178.031 204.051L173.732 204.189C173.494 204.205 173.267 204.296 173.084 204.449Z" fill="#263238"/>
<path d="M211.798 164.067C211.798 164.067 214.746 167.566 212.369 173.104C209.681 179.382 195.427 176.623 187.644 178.622C186.533 189.71 180.066 201.062 180.066 201.062L174.655 198.941C174.655 198.941 177.001 190.113 178.76 174.461C179.622 166.765 199.16 165.918 199.16 165.918L211.798 164.067Z" fill="#263238"/>
<path d="M181.142 200.083L174.252 197.671L173.833 200.195L180.112 202.475L181.142 200.083Z" fill="#263238"/>
<path d="M196.335 202.623L192.54 202.439L193.162 211.395L196.957 211.579L196.335 202.623Z" fill="#B55B52"/>
<path d="M192.127 210.457C191.077 211.334 189.302 212.553 187.675 212.787C186.629 212.935 185.844 214.516 187.797 214.516C189.751 214.516 191.877 214.333 193.02 214.297C194.907 214.236 195.534 214.404 197.028 214.404C197.118 214.4 197.206 214.378 197.287 214.34C197.368 214.302 197.441 214.248 197.501 214.182C197.561 214.116 197.608 214.038 197.638 213.954C197.668 213.869 197.681 213.779 197.676 213.69L197.365 210.298C197.358 210.226 197.324 210.16 197.268 210.113C197.213 210.066 197.141 210.043 197.069 210.049L192.78 210.186C192.538 210.2 192.308 210.295 192.127 210.457Z" fill="#263238"/>
<path opacity="0.2" d="M196.681 207.56L192.902 207.565L192.54 202.445L196.335 202.628L196.681 207.56Z" fill="black"/>
<path d="M221.279 164.674C221.279 164.674 224.39 171.013 221.366 175.047C218.627 178.709 204.648 178.954 197.543 178.954C198.247 187.624 197.467 205.423 197.467 205.423L191.76 205.346C191.76 205.346 187.741 188.226 186.915 176.246C186.456 169.616 210.14 165.184 210.14 165.184L221.279 164.674Z" fill="#263238"/>
<path d="M198.242 204.245L190.429 204.015L190.765 206.351L197.946 206.453L198.242 204.245Z" fill="#263238"/>
<path d="M221.967 165.005L198.594 165.98L200.792 139.74C200.912 138.308 201.566 136.973 202.624 136C203.682 135.027 205.067 134.487 206.504 134.487H218.152C219.23 134.494 220.261 134.927 221.021 135.691C221.781 136.455 222.207 137.489 222.207 138.567L221.967 165.005Z" fill="#407BFF"/>
<path d="M202.062 138.429L201.45 139.811C201.226 140.286 200.996 140.76 200.756 141.229C200.277 142.163 199.803 143.096 199.288 143.999C198.773 144.901 198.268 145.794 197.691 146.645C197.155 147.486 196.57 148.293 195.937 149.063C195.643 149.434 195.33 149.79 194.999 150.129C194.919 150.184 194.828 150.22 194.732 150.234C194.637 150.247 194.539 150.237 194.448 150.205C194.027 150.094 193.615 149.954 193.214 149.787C191.334 148.919 189.52 147.915 187.787 146.783L185.905 148.823C186.639 149.736 187.435 150.596 188.287 151.399C189.162 152.233 190.109 152.987 191.117 153.653C191.679 154.024 192.273 154.345 192.892 154.612C193.684 154.962 194.54 155.146 195.407 155.152C196.035 155.147 196.655 155.005 197.222 154.734C197.537 154.581 197.832 154.389 198.099 154.163L198.467 153.852C198.946 153.428 199.405 152.995 199.828 152.546C201.454 150.795 202.888 148.875 204.107 146.819C204.704 145.799 205.275 144.804 205.79 143.759C206.05 143.249 206.3 142.739 206.55 142.198C206.8 141.658 207.014 141.178 207.259 140.556L202.062 138.429Z" fill="#B55B52"/>
<path d="M188.369 147.727L186.522 143.861L183.462 145.998C183.462 145.998 184.375 148.879 186.864 149.058L188.369 147.727Z" fill="#B55B52"/>
<path d="M185.033 142.933L182.162 144.192L183.447 145.998L186.522 143.861L185.033 142.933Z" fill="#B55B52"/>
<path d="M204.566 148.41L197.967 144.095C197.967 144.095 197.86 143.718 200.297 139.057C203.133 133.63 206.55 133.676 208.651 136.966C210.808 140.342 207.269 144.08 204.566 148.41Z" fill="#407BFF"/>
<path d="M233.07 214.379C233.124 214.35 233.172 214.31 233.211 214.263C233.25 214.215 233.279 214.161 233.296 214.102C233.314 214.043 233.32 213.981 233.313 213.92C233.307 213.859 233.288 213.8 233.259 213.746L215.235 180.596C215.206 180.542 215.166 180.495 215.119 180.457C215.071 180.418 215.016 180.39 214.957 180.373C214.899 180.356 214.837 180.35 214.776 180.357C214.715 180.364 214.656 180.383 214.603 180.413C214.549 180.441 214.501 180.48 214.462 180.527C214.424 180.574 214.395 180.628 214.377 180.687C214.359 180.745 214.354 180.806 214.36 180.867C214.366 180.928 214.385 180.986 214.414 181.04L232.443 214.19C232.471 214.244 232.51 214.292 232.557 214.33C232.604 214.369 232.658 214.398 232.717 214.416C232.775 214.433 232.836 214.439 232.897 214.433C232.958 214.426 233.017 214.408 233.07 214.379Z" fill="#407BFF"/>
<g opacity="0.2">
<path d="M233.07 214.379C233.124 214.35 233.172 214.31 233.211 214.263C233.25 214.215 233.279 214.161 233.296 214.102C233.314 214.043 233.32 213.981 233.313 213.92C233.307 213.859 233.288 213.8 233.259 213.746L215.235 180.596C215.206 180.542 215.166 180.495 215.119 180.457C215.071 180.418 215.016 180.39 214.957 180.373C214.899 180.356 214.837 180.35 214.776 180.357C214.715 180.364 214.656 180.383 214.603 180.413C214.549 180.441 214.501 180.48 214.462 180.527C214.424 180.574 214.395 180.628 214.377 180.687C214.359 180.745 214.354 180.806 214.36 180.867C214.366 180.928 214.385 180.986 214.414 181.04L232.443 214.19C232.471 214.244 232.51 214.292 232.557 214.33C232.604 214.369 232.658 214.398 232.717 214.416C232.775 214.433 232.836 214.439 232.897 214.433C232.958 214.426 233.017 214.408 233.07 214.379Z" fill="black"/>
</g>
<path opacity="0.2" d="M224.349 199.339L222.763 196.411L223.293 195.432L224.879 198.359L224.349 199.339Z" fill="black"/>
<path d="M207.295 214.379C207.349 214.35 207.397 214.31 207.436 214.263C207.474 214.215 207.503 214.161 207.521 214.102C207.539 214.043 207.544 213.981 207.538 213.92C207.531 213.859 207.513 213.8 207.483 213.746L189.46 180.596C189.431 180.542 189.391 180.495 189.343 180.457C189.296 180.418 189.241 180.39 189.182 180.373C189.123 180.356 189.062 180.35 189.001 180.357C188.94 180.364 188.881 180.383 188.828 180.413C188.774 180.441 188.726 180.48 188.687 180.527C188.648 180.574 188.619 180.628 188.602 180.687C188.584 180.745 188.578 180.806 188.585 180.867C188.591 180.928 188.609 180.986 188.639 181.04L206.667 214.19C206.696 214.244 206.735 214.292 206.782 214.33C206.829 214.369 206.883 214.398 206.941 214.416C207 214.433 207.061 214.439 207.122 214.433C207.182 214.426 207.241 214.408 207.295 214.379Z" fill="#407BFF"/>
<g opacity="0.2">
<path d="M207.295 214.379C207.349 214.35 207.397 214.31 207.436 214.263C207.474 214.215 207.503 214.161 207.521 214.102C207.539 214.043 207.544 213.981 207.538 213.92C207.531 213.859 207.513 213.8 207.483 213.746L189.46 180.596C189.431 180.542 189.391 180.495 189.343 180.457C189.296 180.418 189.241 180.39 189.182 180.373C189.123 180.356 189.062 180.35 189.001 180.357C188.94 180.364 188.881 180.383 188.828 180.413C188.774 180.441 188.726 180.48 188.687 180.527C188.648 180.574 188.619 180.628 188.602 180.687C188.584 180.745 188.578 180.806 188.585 180.867C188.591 180.928 188.609 180.986 188.639 181.04L206.667 214.19C206.696 214.244 206.735 214.292 206.782 214.33C206.829 214.369 206.883 214.398 206.941 214.416C207 214.433 207.061 214.439 207.122 214.433C207.182 214.426 207.241 214.408 207.295 214.379Z" fill="black"/>
</g>
<path opacity="0.2" d="M198.594 199.339L197.003 196.411L197.533 195.432L199.124 198.359L198.594 199.339Z" fill="black"/>
<path d="M189.46 214.2L207.483 181.05C207.513 180.997 207.531 180.938 207.537 180.877C207.544 180.817 207.538 180.755 207.521 180.697C207.503 180.638 207.474 180.584 207.435 180.537C207.396 180.49 207.349 180.451 207.295 180.423C207.241 180.393 207.183 180.374 207.123 180.368C207.062 180.361 207.001 180.366 206.943 180.383C206.884 180.4 206.83 180.429 206.783 180.467C206.735 180.505 206.696 180.553 206.667 180.606L188.639 213.756C188.609 213.81 188.591 213.869 188.584 213.93C188.578 213.991 188.584 214.053 188.601 214.112C188.619 214.171 188.648 214.225 188.687 214.273C188.725 214.321 188.773 214.36 188.828 214.389C188.881 214.418 188.94 214.437 189.002 214.443C189.063 214.45 189.124 214.444 189.183 214.426C189.242 214.409 189.297 214.38 189.344 214.341C189.392 214.302 189.431 214.254 189.46 214.2Z" fill="#407BFF"/>
<g opacity="0.2">
<path d="M189.46 214.2L207.483 181.05C207.513 180.997 207.531 180.938 207.537 180.877C207.544 180.817 207.538 180.755 207.521 180.697C207.503 180.638 207.474 180.584 207.435 180.537C207.396 180.49 207.349 180.451 207.295 180.423C207.241 180.393 207.183 180.374 207.123 180.368C207.062 180.361 207.001 180.366 206.943 180.383C206.884 180.4 206.83 180.429 206.783 180.467C206.735 180.505 206.696 180.553 206.667 180.606L188.639 213.756C188.609 213.81 188.591 213.869 188.584 213.93C188.578 213.991 188.584 214.053 188.601 214.112C188.619 214.171 188.648 214.225 188.687 214.273C188.725 214.321 188.773 214.36 188.828 214.389C188.881 214.418 188.94 214.437 189.002 214.443C189.063 214.45 189.124 214.444 189.183 214.426C189.242 214.409 189.297 214.38 189.344 214.341C189.392 214.302 189.431 214.254 189.46 214.2Z" fill="black"/>
</g>
<path d="M215.22 214.2L233.243 181.05C233.273 180.997 233.291 180.938 233.298 180.877C233.304 180.817 233.298 180.755 233.281 180.697C233.263 180.638 233.234 180.584 233.195 180.537C233.156 180.49 233.109 180.451 233.055 180.423C233.002 180.393 232.943 180.374 232.883 180.368C232.822 180.361 232.761 180.366 232.703 180.383C232.644 180.4 232.59 180.429 232.543 180.467C232.495 180.505 232.456 180.553 232.427 180.606L214.399 213.756C214.369 213.81 214.351 213.869 214.344 213.93C214.338 213.991 214.344 214.053 214.361 214.112C214.379 214.171 214.408 214.225 214.447 214.273C214.486 214.321 214.533 214.36 214.588 214.389C214.641 214.418 214.701 214.437 214.762 214.443C214.823 214.45 214.884 214.444 214.943 214.426C215.002 214.409 215.057 214.38 215.104 214.341C215.152 214.302 215.191 214.254 215.22 214.2Z" fill="#407BFF"/>
<g opacity="0.2">
<path d="M215.22 214.2L233.243 181.05C233.273 180.997 233.291 180.938 233.298 180.877C233.304 180.817 233.298 180.755 233.281 180.697C233.263 180.638 233.234 180.584 233.195 180.537C233.156 180.49 233.109 180.451 233.055 180.423C233.002 180.393 232.943 180.374 232.883 180.368C232.822 180.361 232.761 180.366 232.703 180.383C232.644 180.4 232.59 180.429 232.543 180.467C232.495 180.505 232.456 180.553 232.427 180.606L214.399 213.756C214.369 213.81 214.351 213.869 214.344 213.93C214.338 213.991 214.344 214.053 214.361 214.112C214.379 214.171 214.408 214.225 214.447 214.273C214.486 214.321 214.533 214.36 214.588 214.389C214.641 214.418 214.701 214.437 214.762 214.443C214.823 214.45 214.884 214.444 214.943 214.426C215.002 214.409 215.057 214.38 215.104 214.341C215.152 214.302 215.191 214.254 215.22 214.2Z" fill="black"/>
</g>
<path d="M211.405 178.918H190.495C189.858 178.918 189.247 179.171 188.797 179.622C188.346 180.072 188.093 180.683 188.093 181.32H211.431L211.405 178.918Z" fill="#407BFF"/>
<path d="M226.261 148.17C233.621 148.17 238.858 153.653 238.501 160.956L237.66 176.924C237.597 178.111 237.081 179.229 236.219 180.047C235.356 180.865 234.213 181.321 233.024 181.32H203.444L209.564 160.956C211.732 153.653 218.902 148.17 226.261 148.17Z" fill="#407BFF"/>
<path opacity="0.3" d="M226.261 148.17C233.621 148.17 238.858 153.653 238.501 160.956L237.66 176.924C237.597 178.111 237.081 179.229 236.219 180.047C235.356 180.865 234.213 181.321 233.024 181.32H203.444L209.564 160.956C211.732 153.653 218.902 148.17 226.261 148.17Z" fill="white"/>
<path d="M163.379 135.818C163.889 137.624 164.011 139.556 161.42 140.255C161.42 140.255 159.003 143.662 161.905 145.942C163.741 143.525 166.057 141.514 168.708 140.036C167.025 138.531 167.351 134.227 167.739 131.876L163.379 135.818Z" fill="#CE7A63"/>
<path d="M160.165 126.48C159.967 126.429 159.722 126.613 159.625 126.914C159.528 127.214 159.625 127.526 159.808 127.577C159.992 127.628 160.252 127.444 160.349 127.143C160.446 126.842 160.359 126.511 160.165 126.48Z" fill="#2E353A"/>
<path d="M159.589 126.062L160.247 126.506C159.778 126.755 159.589 126.062 159.589 126.062Z" fill="#2E353A"/>
<path d="M159.457 129.719C159.256 129.709 159.061 129.654 158.884 129.559C158.708 129.463 158.555 129.33 158.437 129.168C159.074 128.721 159.647 128.189 160.14 127.587L159.457 129.719Z" fill="#BA4D3C"/>
<path d="M160.879 124.481C161.074 124.614 161.233 124.792 161.344 125C161.455 125.207 161.514 125.439 161.517 125.674C161.516 125.698 161.52 125.722 161.529 125.744C161.538 125.766 161.551 125.787 161.567 125.804C161.584 125.821 161.604 125.835 161.626 125.844C161.648 125.853 161.672 125.858 161.695 125.858C161.743 125.858 161.789 125.839 161.824 125.806C161.858 125.773 161.878 125.727 161.879 125.679C161.882 125.379 161.812 125.083 161.674 124.816C161.537 124.549 161.335 124.32 161.089 124.149C161.049 124.12 161 124.108 160.951 124.115C160.903 124.121 160.859 124.146 160.828 124.185C160.813 124.213 160.805 124.245 160.805 124.277C160.805 124.309 160.813 124.34 160.828 124.369C160.829 124.39 160.833 124.411 160.842 124.43C160.851 124.449 160.864 124.467 160.879 124.481Z" fill="#2E353A"/>
<path d="M171.431 126.653C171.311 125.25 170.638 123.951 169.56 123.043C168.482 122.136 167.088 121.693 165.684 121.814C161.563 122.125 159.278 127.48 159.003 131.075C158.697 135.068 162.853 137.624 166.602 135.665C169.116 134.36 169.601 132.789 171.049 129.147C171.377 128.359 171.508 127.503 171.431 126.653Z" fill="#CE7A63"/>
<path d="M173.441 131.381C178.837 124.568 172.212 122.609 172.212 122.609C170.136 119.728 166.709 119.141 163.567 120.345C160.426 121.548 161.364 123.65 162.506 123.859C160.364 126.689 161.594 128.097 162.297 128.301C161.191 135.42 168.045 138.21 173.441 131.381Z" fill="#263238"/>
<path d="M164.047 128.52C164.088 128.157 163.985 127.792 163.758 127.506C163.532 127.219 163.201 127.033 162.838 126.99C161.818 126.883 160.992 128.127 160.762 129.03C160.507 130.014 161.058 130.927 162.083 130.601C162.466 130.475 162.82 130.276 163.126 130.013C163.431 129.751 163.682 129.43 163.863 129.071C163.962 128.902 164.025 128.714 164.047 128.52Z" fill="#CE7A63"/>
<path d="M169.708 140.556C169.384 140.34 169.121 140.046 168.943 139.701C168.764 139.356 168.677 138.971 168.688 138.582C168.688 138.582 161.135 137.481 159.564 139.184C159.564 139.184 161.833 139.067 160.931 140.939L169.708 140.556Z" fill="#407BFF"/>
<path opacity="0.6" d="M169.708 140.556C169.384 140.34 169.121 140.046 168.943 139.701C168.764 139.356 168.677 138.971 168.688 138.582C168.688 138.582 161.135 137.481 159.564 139.184C159.564 139.184 161.833 139.067 160.931 140.939L169.708 140.556Z" fill="white"/>
<path d="M161.889 162.802L161.843 164.751C164.212 165.038 166.598 165.154 168.983 165.097C170.243 165.081 171.498 164.946 172.732 164.694C173.097 164.613 173.455 164.504 173.803 164.368C174.018 164.287 174.226 164.188 174.425 164.072C174.706 163.918 174.961 163.72 175.18 163.486C175.338 163.312 175.471 163.118 175.578 162.909C175.638 162.785 175.691 162.657 175.736 162.527C175.766 162.389 175.788 162.249 175.802 162.109L175.868 161.66L176.006 160.767C176.271 158.391 176.409 156.055 176.516 153.714C176.623 151.373 176.679 149.043 176.669 146.691H172.686L172.574 153.612C172.518 155.917 172.472 158.202 172.354 160.477L172.303 161.226C172.16 161.296 172.012 161.356 171.86 161.405C170.832 161.697 169.783 161.914 168.723 162.053C166.479 162.394 164.169 162.593 161.889 162.802Z" fill="#CE7A63"/>
<path d="M169.259 145.432C169.259 147.839 170.707 152.347 170.707 152.347L176.684 148.67C176.95 145.585 176.312 141.617 173.349 140.653C171.36 140 169.279 142.866 169.259 145.432Z" fill="#263238"/>
<path opacity="0.6" d="M173.553 143.698L174.925 145.054L175.19 149.593L170.707 152.347C170.707 152.347 169.259 147.839 169.259 145.432C169.27 144.805 169.384 144.185 169.595 143.596L171.635 142.973L173.553 143.698Z" fill="black"/>
<path d="M156.397 163.889C156.355 163.795 156.332 163.694 156.33 163.592C156.328 163.489 156.347 163.387 156.385 163.292C156.423 163.197 156.479 163.11 156.552 163.038C156.624 162.965 156.71 162.907 156.805 162.869L158.498 162.149C158.861 161.998 159.264 161.97 159.645 162.068L163.343 163.088L163.797 164.332C163.22 165.765 160.777 165.495 160.777 165.495L159.018 166.031C158.797 166.099 158.561 166.1 158.34 166.032C158.119 165.965 157.924 165.833 157.779 165.653L156.499 164.067C156.456 164.013 156.422 163.952 156.397 163.889Z" fill="#CE7A63"/>
<path d="M159.089 140.592C159.86 140.464 160.66 140.342 161.446 140.245C163.853 140.001 166.275 139.928 168.693 140.026C169.881 140.051 171.049 140.138 172.074 140.245H172.156C172.596 140.303 173.021 140.448 173.405 140.671C173.79 140.893 174.127 141.189 174.397 141.542C174.666 141.895 174.864 142.298 174.979 142.727C175.093 143.156 175.121 143.604 175.063 144.044C173.614 154.382 172.982 158.783 173.405 164.694L157.401 165.179C155.55 155.55 154.775 149.802 154.53 146.421C154.427 145.056 154.837 143.702 155.681 142.623C156.524 141.545 157.74 140.82 159.089 140.592Z" fill="#263238"/>
<path d="M140.515 199.925L136.736 199.568L134.191 208.876L137.97 209.233L140.515 199.925Z" fill="#CE7A63"/>
<path d="M128.836 191.561L125.633 188.527L121.349 195.034L123.91 197.258L128.836 191.561Z" fill="#CE7A63"/>
<path d="M171.87 164.827C172.249 164.823 172.619 164.947 172.919 165.178C173.22 165.409 173.434 165.735 173.528 166.102C175.69 174.537 173.247 179.632 167.275 179.632C161.665 179.632 146.406 174.634 141.607 173.079C137.588 184.691 125.99 195.085 125.99 195.085L122.93 192.29C122.93 192.29 129.688 179.275 134.354 167.719C137.037 161.089 162.945 164.914 162.945 164.914C162.945 164.914 168.132 164.827 171.87 164.827Z" fill="#407BFF"/>
<path opacity="0.6" d="M171.87 164.827C172.249 164.823 172.619 164.947 172.919 165.178C173.22 165.409 173.434 165.735 173.528 166.102C175.69 174.537 173.247 179.632 167.275 179.632C161.665 179.632 146.406 174.634 141.607 173.079C137.588 184.691 125.99 195.085 125.99 195.085L122.93 192.29C122.93 192.29 129.688 179.275 134.354 167.719C137.037 161.089 162.945 164.914 162.945 164.914C162.945 164.914 168.132 164.827 171.87 164.827Z" fill="white"/>
<path d="M167.979 164.694C174.058 172.727 173.589 179.612 167.295 179.612C161.685 179.612 154.719 179.938 147.14 179.459C145.472 191.648 139.123 205.851 139.123 205.851L134.936 205.459C134.936 205.459 138.756 187.639 139.051 175.175C139.23 167.642 160.497 168.3 160.497 168.3C160.497 168.3 164.245 164.73 167.979 164.694Z" fill="#407BFF"/>
<path opacity="0.6" d="M167.979 164.694C174.058 172.727 173.589 179.612 167.295 179.612C161.685 179.612 154.719 179.938 147.14 179.459C145.472 191.648 139.123 205.851 139.123 205.851L134.936 205.459C134.936 205.459 138.756 187.639 139.051 175.175C139.23 167.642 160.497 168.3 160.497 168.3C160.497 168.3 164.245 164.73 167.979 164.694Z" fill="white"/>
<path d="M173.349 163.628L157.141 164.138C156.983 164.138 156.876 164.23 156.876 164.327L157.08 165.75C157.08 165.837 157.218 165.898 157.36 165.898L173.828 165.413C174.017 165.413 174.145 165.296 174.083 165.184L173.629 163.761C173.602 163.713 173.56 163.674 173.51 163.65C173.46 163.627 173.404 163.619 173.349 163.628Z" fill="#263238"/>
<path d="M144.172 157.34C145.726 158.342 147.352 159.226 149.037 159.987C149.918 160.391 150.826 160.732 151.756 161.007C152.305 161.17 152.872 161.267 153.444 161.298C153.877 161.323 154.311 161.268 154.724 161.135C155.074 161.015 155.395 160.82 155.662 160.563C155.744 160.485 155.819 160.399 155.887 160.308L155.989 160.166L156.06 160.058L156.157 159.885C157.158 158.144 157.859 156.248 158.233 154.275C158.426 153.337 158.569 152.388 158.661 151.434C158.702 150.924 158.737 150.481 158.763 150.001C158.788 149.522 158.794 149.068 158.763 148.532L154.795 148.589C154.795 148.935 154.77 149.389 154.749 149.797C154.729 150.205 154.698 150.634 154.657 151.052C154.581 151.888 154.479 152.72 154.351 153.551C154.214 154.355 154.035 155.152 153.816 155.938C153.636 156.572 153.41 157.193 153.138 157.794C152.912 157.79 152.687 157.768 152.464 157.728C151.649 157.585 150.841 157.396 150.047 157.162C148.39 156.687 146.691 156.142 145.018 155.57L144.172 157.34Z" fill="#CE7A63"/>
<path d="M160.936 145.411C162.124 147.242 159.36 151.949 159.36 151.949L154.377 151.388C154.377 151.388 153.357 145.121 155.795 142.545C157.105 141.163 159.696 143.504 160.936 145.411Z" fill="#263238"/>
<path d="M140.826 156.111C140.768 156.091 140.719 156.049 140.691 155.994C140.664 155.938 140.659 155.874 140.678 155.815L143.31 147.982C143.331 147.924 143.373 147.876 143.428 147.849C143.483 147.821 143.547 147.816 143.606 147.834C143.635 147.843 143.661 147.858 143.685 147.878C143.708 147.897 143.727 147.921 143.74 147.948C143.754 147.975 143.762 148.005 143.765 148.035C143.767 148.065 143.763 148.096 143.754 148.124L141.137 155.958C141.123 155.998 141.098 156.033 141.066 156.061C141.034 156.089 140.995 156.108 140.954 156.116C140.911 156.124 140.868 156.122 140.826 156.111Z" fill="#2E353A"/>
<path d="M141.622 151.689C141.514 151.68 141.405 151.693 141.301 151.726C141.198 151.759 141.102 151.812 141.019 151.882C140.936 151.952 140.868 152.038 140.818 152.134C140.769 152.231 140.738 152.336 140.729 152.444L140.505 154.617C140.488 154.78 140.521 154.945 140.598 155.09C140.675 155.236 140.794 155.355 140.939 155.433L142.769 156.397C142.769 156.397 145.906 159.355 147.252 158.61L146.283 156.499L144.386 153.23C144.174 152.856 143.844 152.564 143.448 152.398L141.877 151.75C141.795 151.718 141.709 151.697 141.622 151.689Z" fill="#CE7A63"/>
<path d="M121.298 193.596C120.023 193.494 118.172 192.52 117.014 191.51C116.127 190.725 115.107 191.627 115.994 192.841C116.882 194.055 118.81 195.774 119.564 196.569C120.778 197.844 121.003 198.472 122.012 199.43C122.134 199.546 122.297 199.609 122.465 199.605C122.634 199.601 122.793 199.531 122.91 199.41L124.909 196.942C124.952 196.889 124.973 196.822 124.968 196.754C124.962 196.687 124.93 196.624 124.879 196.58L121.89 193.846C121.725 193.701 121.517 193.613 121.298 193.596Z" fill="#407BFF"/>
<path d="M133.875 208.641C132.977 209.554 131.447 210.849 129.953 211.222C128.994 211.456 128.423 212.996 130.228 212.818C132.034 212.639 133.982 212.267 135.053 212.124C136.802 211.895 137.404 211.992 138.791 211.854C138.874 211.843 138.953 211.815 139.024 211.773C139.096 211.731 139.158 211.675 139.208 211.609C139.258 211.542 139.294 211.467 139.315 211.386C139.335 211.306 139.339 211.222 139.327 211.14L138.72 208.024C138.706 207.958 138.668 207.9 138.613 207.861C138.558 207.822 138.491 207.806 138.424 207.815L134.451 208.325C134.228 208.361 134.025 208.472 133.875 208.641Z" fill="#407BFF"/>
<path d="M183.768 214.46C183.822 214.431 183.869 214.391 183.908 214.343C183.946 214.296 183.975 214.241 183.992 214.182C184.009 214.123 184.014 214.062 184.007 214.001C184 213.94 183.982 213.881 183.952 213.828L165.929 180.678C165.868 180.57 165.768 180.491 165.65 180.456C165.532 180.422 165.405 180.436 165.296 180.494C165.188 180.553 165.107 180.653 165.072 180.772C165.036 180.89 165.049 181.017 165.107 181.127L183.136 214.277C183.196 214.384 183.296 214.464 183.414 214.498C183.533 214.532 183.66 214.519 183.768 214.46Z" fill="#407BFF"/>
<g opacity="0.2">
<path d="M183.768 214.46C183.822 214.431 183.869 214.391 183.908 214.343C183.946 214.296 183.975 214.241 183.992 214.182C184.009 214.123 184.014 214.062 184.007 214.001C184 213.94 183.982 213.881 183.952 213.828L165.929 180.678C165.868 180.57 165.768 180.491 165.65 180.456C165.532 180.422 165.405 180.436 165.296 180.494C165.188 180.553 165.107 180.653 165.072 180.772C165.036 180.89 165.049 181.017 165.107 181.127L183.136 214.277C183.196 214.384 183.296 214.464 183.414 214.498C183.533 214.532 183.66 214.519 183.768 214.46Z" fill="black"/>
</g>
<path opacity="0.2" d="M175.063 199.42L173.471 196.493L174.002 195.514L175.593 198.441L175.063 199.42Z" fill="black"/>
<path d="M158.008 214.46C158.117 214.401 158.197 214.301 158.233 214.183C158.268 214.064 158.255 213.937 158.197 213.828L140.168 180.678C140.108 180.57 140.008 180.491 139.89 180.456C139.772 180.422 139.644 180.436 139.536 180.494C139.428 180.553 139.347 180.653 139.312 180.772C139.276 180.89 139.289 181.017 139.347 181.127L157.376 214.277C157.436 214.384 157.536 214.464 157.654 214.498C157.773 214.532 157.9 214.519 158.008 214.46Z" fill="#407BFF"/>
<g opacity="0.2">
<path d="M158.008 214.46C158.117 214.401 158.197 214.301 158.233 214.183C158.268 214.064 158.255 213.937 158.197 213.828L140.168 180.678C140.108 180.57 140.008 180.491 139.89 180.456C139.772 180.422 139.644 180.436 139.536 180.494C139.428 180.553 139.347 180.653 139.312 180.772C139.276 180.89 139.289 181.017 139.347 181.127L157.376 214.277C157.436 214.384 157.536 214.464 157.654 214.498C157.773 214.532 157.9 214.519 158.008 214.46Z" fill="black"/>
</g>
<path opacity="0.2" d="M149.303 199.42L147.711 196.493L148.242 195.514L149.833 198.441L149.303 199.42Z" fill="black"/>
<path d="M140.168 214.277L158.197 181.127C158.255 181.017 158.268 180.89 158.233 180.772C158.197 180.653 158.117 180.553 158.008 180.494C157.9 180.436 157.773 180.422 157.654 180.456C157.536 180.491 157.436 180.57 157.376 180.678L139.347 213.828C139.289 213.937 139.276 214.064 139.312 214.183C139.347 214.301 139.428 214.401 139.536 214.46C139.644 214.519 139.772 214.532 139.89 214.498C140.008 214.464 140.108 214.384 140.168 214.277Z" fill="#407BFF"/>
<g opacity="0.2">
<path d="M140.168 214.277L158.197 181.127C158.255 181.017 158.268 180.89 158.233 180.772C158.197 180.653 158.117 180.553 158.008 180.494C157.9 180.436 157.773 180.422 157.654 180.456C157.536 180.491 157.436 180.57 157.376 180.678L139.347 213.828C139.289 213.937 139.276 214.064 139.312 214.183C139.347 214.301 139.428 214.401 139.536 214.46C139.644 214.519 139.772 214.532 139.89 214.498C140.008 214.464 140.108 214.384 140.168 214.277Z" fill="black"/>
</g>
<path d="M165.929 214.277L183.952 181.127C183.982 181.073 184 181.014 184.007 180.953C184.014 180.892 184.009 180.831 183.992 180.772C183.975 180.713 183.946 180.659 183.908 180.611C183.869 180.563 183.822 180.523 183.768 180.494C183.66 180.436 183.533 180.422 183.414 180.456C183.296 180.491 183.196 180.57 183.136 180.678L165.107 213.828C165.049 213.937 165.036 214.064 165.072 214.183C165.107 214.301 165.188 214.401 165.296 214.46C165.405 214.519 165.532 214.532 165.65 214.498C165.768 214.464 165.868 214.384 165.929 214.277Z" fill="#407BFF"/>
<g opacity="0.2">
<path d="M165.929 214.277L183.952 181.127C183.982 181.073 184 181.014 184.007 180.953C184.014 180.892 184.009 180.831 183.992 180.772C183.975 180.713 183.946 180.659 183.908 180.611C183.869 180.563 183.822 180.523 183.768 180.494C183.66 180.436 183.533 180.422 183.414 180.456C183.296 180.491 183.196 180.57 183.136 180.678L165.107 213.828C165.049 213.937 165.036 214.064 165.072 214.183C165.107 214.301 165.188 214.401 165.296 214.46C165.405 214.519 165.532 214.532 165.65 214.498C165.768 214.464 165.868 214.384 165.929 214.277Z" fill="black"/>
</g>
<path d="M162.114 179.01H141.204C140.888 179.009 140.575 179.071 140.283 179.191C139.991 179.312 139.725 179.489 139.502 179.712C139.278 179.935 139.101 180.2 138.98 180.492C138.859 180.783 138.797 181.096 138.797 181.412H162.134L162.114 179.01Z" fill="#407BFF"/>
<path d="M176.97 148.252C184.329 148.252 189.567 153.734 189.184 161.038L188.343 177.011C188.28 178.197 187.764 179.315 186.902 180.132C186.039 180.949 184.895 181.404 183.707 181.402H154.127L160.247 161.038C162.44 153.734 169.616 148.252 176.97 148.252Z" fill="#407BFF"/>
<path opacity="0.3" d="M176.97 148.252C184.329 148.252 189.567 153.734 189.184 161.038L188.343 177.011C188.28 178.197 187.764 179.315 186.902 180.132C186.039 180.949 184.895 181.404 183.707 181.402H154.127L160.247 161.038C162.44 153.734 169.616 148.252 176.97 148.252Z" fill="white"/>
</svg>
