<svg width="254" height="254" viewBox="0 0 254 254" fill="none" xmlns="http://www.w3.org/2000/svg">
<path d="M121.107 173.497H23.0175C22.2486 173.496 21.5116 173.19 20.9679 172.646C20.4242 172.102 20.1181 171.365 20.1168 170.597V32.7101C20.1248 31.9456 20.4338 31.2151 20.9768 30.6769C21.5198 30.1387 22.253 29.8361 23.0175 29.8348H121.107C121.876 29.8362 122.612 30.1424 123.155 30.6862C123.698 31.2301 124.003 31.9671 124.003 32.7355V170.597C124.003 171.365 123.698 172.102 123.155 172.646C122.612 173.19 121.876 173.496 121.107 173.497ZM23.0175 29.9364C22.2823 29.9378 21.5776 30.2304 21.0577 30.7503C20.5378 31.2702 20.2451 31.9749 20.2438 32.7101V170.597C20.2451 171.332 20.5378 172.036 21.0577 172.556C21.5776 173.076 22.2823 173.369 23.0175 173.37H121.107C121.842 173.369 122.546 173.076 123.065 172.556C123.584 172.036 123.876 171.331 123.876 170.597V32.7101C123.876 31.9754 123.584 31.2706 123.065 30.7506C122.546 30.2306 121.842 29.9378 121.107 29.9364H23.0175Z" fill="#E6E6E6"/>
<path d="M230.988 173.497H132.893C132.124 173.496 131.388 173.19 130.845 172.646C130.302 172.102 129.997 171.365 129.997 170.597V32.7101C130.004 31.9461 130.312 31.2156 130.854 30.6772C131.396 30.1389 132.129 29.8361 132.893 29.8348H230.988C231.752 29.8361 232.484 30.1389 233.026 30.6772C233.569 31.2156 233.876 31.9461 233.883 32.7101V170.597C233.883 171.365 233.578 172.102 233.035 172.646C232.493 173.19 231.756 173.496 230.988 173.497ZM132.893 29.9364C132.158 29.9378 131.454 30.2306 130.935 30.7506C130.416 31.2706 130.124 31.9754 130.124 32.7101V170.597C130.124 171.331 130.416 172.036 130.935 172.556C131.454 173.076 132.158 173.369 132.893 173.37H230.988C231.723 173.369 232.429 173.076 232.949 172.557C233.47 172.037 233.764 171.332 233.766 170.597V32.7101C233.764 31.9744 233.47 31.2697 232.949 30.75C232.429 30.2303 231.723 29.9378 230.988 29.9364H132.893Z" fill="#E6E6E6"/>
<path d="M48.26 199.243H27.3253V199.37H48.26V199.243Z" fill="#E0E0E0"/>
<path d="M90.932 198.227H69.9364V198.354H90.932V198.227Z" fill="#E0E0E0"/>
<path d="M118.252 198.227H113.172V198.354H118.252V198.227Z" fill="#E0E0E0"/>
<path d="M67.4776 202.565H43.9826V202.692H67.4776V202.565Z" fill="#E0E0E0"/>
<path d="M148.742 199.177H137.77V199.304H148.742V199.177Z" fill="#E0E0E0"/>
<path d="M167.452 199.177H153.264V199.304H167.452V199.177Z" fill="#E0E0E0"/>
<path d="M235.88 201.325H204.16V201.452H235.88V201.325Z" fill="#E0E0E0"/>
<path d="M254 194.259H0V194.386H254V194.259Z" fill="#E0E0E0"/>
<path d="M86.2686 146.812H96.139V141.143C96.139 140.494 96.0113 139.852 95.7631 139.253C95.515 138.654 95.1513 138.11 94.6928 137.651C94.2342 137.193 93.6899 136.829 93.0908 136.581C92.4918 136.333 91.8497 136.205 91.2012 136.205C89.8925 136.206 88.6379 136.727 87.713 137.653C86.7881 138.579 86.2686 139.834 86.2686 141.143V146.812Z" fill="#F0F0F0"/>
<path d="M91.2622 145.573C93.5628 145.573 95.4278 143.708 95.4278 141.407C95.4278 139.106 93.5628 137.241 91.2622 137.241C88.9616 137.241 87.0966 139.106 87.0966 141.407C87.0966 143.708 88.9616 145.573 91.2622 145.573Z" fill="white"/>
<path d="M91.3232 144.749C93.1693 144.749 94.6658 143.253 94.6658 141.407C94.6658 139.561 93.1693 138.064 91.3232 138.064C89.4771 138.064 87.9805 139.561 87.9805 141.407C87.9805 143.253 89.4771 144.749 91.3232 144.749Z" fill="#EBEBEB"/>
<path d="M90.932 141.478C90.9259 141.529 90.9307 141.58 90.9459 141.629C90.9612 141.677 90.9866 141.722 91.0204 141.76C91.0542 141.798 91.0958 141.829 91.1423 141.85C91.1888 141.871 91.2392 141.881 91.2901 141.881C91.3411 141.881 91.3915 141.871 91.438 141.85C91.4845 141.829 91.526 141.798 91.5598 141.76C91.5937 141.722 91.6191 141.677 91.6343 141.629C91.6495 141.58 91.6543 141.529 91.6483 141.478C91.6543 141.427 91.6495 141.376 91.6343 141.327C91.6191 141.279 91.5937 141.234 91.5598 141.196C91.526 141.158 91.4845 141.127 91.438 141.106C91.3915 141.085 91.3411 141.075 91.2901 141.075C91.2392 141.075 91.1888 141.085 91.1423 141.106C91.0958 141.127 91.0542 141.158 91.0204 141.196C90.9866 141.234 90.9612 141.279 90.9459 141.327C90.9307 141.376 90.9259 141.427 90.932 141.478Z" fill="#FAFAFA"/>
<path d="M91.3333 141.61L92.8624 140.172L92.71 140.015L91.3282 141.321L88.8441 139.126L88.7019 139.289L91.3333 141.61Z" fill="#FAFAFA"/>
<path d="M50.1548 103.985C54.6998 99.44 54.6998 92.071 50.1548 87.526C45.6098 82.981 38.2408 82.981 33.6958 87.526C29.1507 92.071 29.1507 99.44 33.6958 103.985C38.2408 108.53 45.6097 108.53 50.1548 103.985Z" fill="#F0F0F0"/>
<path d="M41.9608 107.65C40.3774 107.683 38.8034 107.399 37.331 106.816C35.8586 106.233 34.5174 105.361 33.386 104.253C32.2546 103.145 31.3558 101.822 30.7422 100.362C30.1286 98.9019 29.8125 97.3341 29.8125 95.7503C29.8125 94.1666 30.1286 92.5988 30.7422 91.1387C31.3558 89.6787 32.2546 88.3558 33.386 87.2476C34.5174 86.1393 35.8586 85.268 37.331 84.6847C38.8034 84.1013 40.3774 83.8177 41.9608 83.8504V84.3584C38.9852 84.4213 36.1526 85.6476 34.0704 87.7742C31.9881 89.9009 30.822 92.7588 30.822 95.7351C30.822 98.7114 31.9881 101.569 34.0704 103.696C36.1526 105.823 38.9852 107.049 41.9608 107.112V107.65Z" fill="white"/>
<path d="M41.9608 107.65V107.142C44.9365 107.079 47.769 105.853 49.8512 103.726C51.9335 101.6 53.0996 98.742 53.0996 95.7656C53.0996 92.7893 51.9335 89.9315 49.8512 87.8048C47.769 85.6781 44.9365 84.4519 41.9608 84.389V83.881C45.0743 83.9453 48.0385 85.2273 50.2177 87.452C52.3969 89.6766 53.6174 92.6667 53.6174 95.7809C53.6174 98.895 52.3969 101.885 50.2177 104.11C48.0385 106.334 45.0743 107.616 41.9608 107.681V107.65Z" fill="white"/>
<path d="M48.0416 95.7529H47.5336C47.5336 91.8972 45.5778 86.7359 41.8338 84.3331L42.1183 83.8911C45.9994 86.3956 48.0416 91.755 48.0416 95.7529Z" fill="white"/>
<path d="M42.103 107.254L41.8186 106.812C45.5625 104.414 47.5183 99.2531 47.5183 95.3973H48.0263C48.0416 99.3953 45.9994 104.755 42.103 107.254Z" fill="white"/>
<path d="M36.4033 95.7478H35.8953C35.8953 91.7499 37.9273 86.3905 41.8338 83.8911L42.1183 84.3331C38.3591 86.7308 36.4033 91.8921 36.4033 95.7478Z" fill="white"/>
<path d="M41.8186 107.254C37.9222 104.75 35.88 99.3953 35.88 95.3922H36.388C36.388 99.253 38.3438 104.409 42.0878 106.812L41.8186 107.254Z" fill="white"/>
<path d="M42.2199 84.1096H41.6966V107.386H42.2199V84.1096Z" fill="white"/>
<path d="M51.8109 89.2861H32.1107V89.8094H51.8109V89.2861Z" fill="white"/>
<path d="M53.594 95.6869H30.3276V96.2101H53.594V95.6869Z" fill="white"/>
<path d="M51.5518 102.078H32.3698V102.601H51.5518V102.078Z" fill="white"/>
<path d="M220.95 58.7655V55.9359L139.949 55.9359V58.7655L220.95 58.7655Z" fill="#F5F5F5"/>
<path d="M161.544 58.7654H147.991V65.1154H154.762C154.764 64.3443 155.071 63.6052 155.617 63.0604C156.162 62.5156 156.902 62.2096 157.673 62.2096H161.544V58.7654Z" fill="#E0E0E0"/>
<path d="M155.418 58.7654H145.537V65.1154H148.641C148.641 64.7338 148.716 64.3559 148.862 64.0034C149.008 63.6509 149.222 63.3305 149.492 63.0607C149.762 62.7909 150.082 62.5768 150.435 62.4308C150.787 62.2848 151.165 62.2096 151.547 62.2096H155.418V58.7654Z" fill="#F5F5F5"/>
<path d="M199.365 58.7654H212.918V65.1154H206.141C206.141 64.7334 206.066 64.3551 205.92 64.0022C205.773 63.6493 205.559 63.3288 205.288 63.0589C205.018 62.789 204.697 62.5751 204.344 62.4293C203.991 62.2836 203.613 62.209 203.23 62.2096H199.365V58.7654Z" fill="#EBEBEB"/>
<path d="M205.491 58.7654H215.392V65.1154H212.288C212.288 64.3447 211.982 63.6056 211.437 63.0607C210.892 62.5158 210.153 62.2096 209.382 62.2096H205.516L205.491 58.7654Z" fill="#F5F5F5"/>
<path d="M190.744 50.358L195.219 42.6466H194.534L189.753 50.358H190.744Z" fill="#E0E0E0"/>
<path d="M171.364 50.3275L166.944 42.6161H167.63L172.359 50.3275H171.364Z" fill="#E0E0E0"/>
<path d="M171.541 50.3275L171.77 50.8457H172.43L172.222 50.3275H171.541Z" fill="#E0E0E0"/>
<path d="M190.576 50.3275L190.353 50.8457H189.687L189.901 50.3275H190.576Z" fill="#E0E0E0"/>
<path d="M173.142 53.8683H170.393V55.5802H173.142V53.8683Z" fill="#E0E0E0"/>
<path d="M191.795 53.8683H189.047V55.5802H191.795V53.8683Z" fill="#E0E0E0"/>
<path d="M192.756 54.6252L186.781 55.2754C182.992 55.6818 179.171 55.6818 175.382 55.2754L169.408 54.6252V50.9219L174.244 50.2919C178.773 49.7027 183.36 49.7027 187.889 50.2919L192.74 50.9219L192.756 54.6252Z" fill="#EBEBEB"/>
<path d="M172.877 52.8777C172.877 53.0967 172.813 53.3108 172.691 53.493C172.569 53.6751 172.396 53.817 172.194 53.9008C171.991 53.9847 171.769 54.0066 171.554 53.9639C171.339 53.9211 171.142 53.8157 170.987 53.6608C170.832 53.5059 170.727 53.3086 170.684 53.0938C170.641 52.8789 170.663 52.6563 170.747 52.4539C170.831 52.2515 170.973 52.0786 171.155 51.9569C171.337 51.8352 171.551 51.7703 171.77 51.7703C172.064 51.7703 172.345 51.8869 172.553 52.0946C172.761 52.3023 172.877 52.584 172.877 52.8777Z" fill="white"/>
<path d="M171.77 53.5483C172.135 53.5483 172.43 53.2527 172.43 52.8879C172.43 52.5232 172.135 52.2275 171.77 52.2275C171.405 52.2275 171.11 52.5232 171.11 52.8879C171.11 53.2527 171.405 53.5483 171.77 53.5483Z" fill="#E0E0E0"/>
<path d="M178.034 52.8879C178.034 52.9808 177.997 53.07 177.931 53.1357C177.865 53.2015 177.776 53.2384 177.683 53.2384C177.59 53.2384 177.501 53.2015 177.435 53.1357C177.37 53.07 177.333 52.9808 177.333 52.8879C177.333 52.7949 177.37 52.7058 177.435 52.64C177.501 52.5743 177.59 52.5374 177.683 52.5374C177.776 52.5374 177.865 52.5743 177.931 52.64C177.997 52.7058 178.034 52.7949 178.034 52.8879Z" fill="white"/>
<path d="M179.283 52.8879C179.283 52.9572 179.263 53.025 179.224 53.0826C179.186 53.1403 179.131 53.1852 179.067 53.2117C179.003 53.2382 178.932 53.2452 178.864 53.2317C178.796 53.2181 178.734 53.1847 178.685 53.1357C178.636 53.0867 178.603 53.0243 178.589 52.9563C178.576 52.8883 178.582 52.8178 178.609 52.7537C178.636 52.6897 178.68 52.6349 178.738 52.5964C178.796 52.5579 178.864 52.5374 178.933 52.5374C179.026 52.5374 179.115 52.5743 179.181 52.64C179.246 52.7058 179.283 52.7949 179.283 52.8879Z" fill="white"/>
<path d="M180.528 52.8879C180.528 52.9572 180.507 53.025 180.469 53.0826C180.43 53.1403 180.376 53.1852 180.312 53.2117C180.248 53.2382 180.177 53.2452 180.109 53.2317C180.041 53.2181 179.979 53.1847 179.93 53.1357C179.881 53.0867 179.847 53.0243 179.834 52.9563C179.82 52.8883 179.827 52.8178 179.854 52.7537C179.88 52.6897 179.925 52.6349 179.983 52.5964C180.04 52.5579 180.108 52.5374 180.177 52.5374C180.27 52.5374 180.36 52.5743 180.425 52.64C180.491 52.7058 180.528 52.7949 180.528 52.8879Z" fill="white"/>
<path d="M181.778 52.8879C181.778 52.9572 181.757 53.025 181.719 53.0826C181.68 53.1403 181.625 53.1852 181.561 53.2117C181.497 53.2382 181.427 53.2452 181.359 53.2317C181.291 53.2181 181.228 53.1847 181.179 53.1357C181.13 53.0867 181.097 53.0243 181.083 52.9563C181.07 52.8883 181.077 52.8178 181.103 52.7537C181.13 52.6897 181.175 52.6349 181.232 52.5964C181.29 52.5579 181.358 52.5374 181.427 52.5374C181.52 52.5374 181.609 52.5743 181.675 52.64C181.741 52.7058 181.778 52.7949 181.778 52.8879Z" fill="white"/>
<path d="M183.022 52.8879C183.022 52.9572 183.002 53.025 182.963 53.0826C182.925 53.1403 182.87 53.1852 182.806 53.2117C182.742 53.2382 182.671 53.2452 182.603 53.2317C182.535 53.2181 182.473 53.1847 182.424 53.1357C182.375 53.0867 182.341 53.0243 182.328 52.9563C182.314 52.8883 182.321 52.8178 182.348 52.7537C182.374 52.6897 182.419 52.6349 182.477 52.5964C182.535 52.5579 182.602 52.5374 182.672 52.5374C182.765 52.5374 182.854 52.5743 182.92 52.64C182.985 52.7058 183.022 52.7949 183.022 52.8879Z" fill="white"/>
<path d="M184.272 52.8879C184.272 52.9572 184.251 53.025 184.213 53.0826C184.174 53.1403 184.12 53.1852 184.056 53.2117C183.992 53.2382 183.921 53.2452 183.853 53.2317C183.785 53.2181 183.723 53.1847 183.674 53.1357C183.625 53.0867 183.591 53.0243 183.578 52.9563C183.564 52.8883 183.571 52.8178 183.598 52.7537C183.624 52.6897 183.669 52.6349 183.727 52.5964C183.784 52.5579 183.852 52.5374 183.921 52.5374C184.014 52.5374 184.104 52.5743 184.169 52.64C184.235 52.7058 184.272 52.7949 184.272 52.8879Z" fill="white"/>
<path d="M185.517 52.8879C185.517 52.9575 185.496 53.0254 185.457 53.0832C185.418 53.1409 185.363 53.1858 185.299 53.2122C185.235 53.2386 185.164 53.2452 185.096 53.2313C185.028 53.2173 184.965 53.1834 184.916 53.1339C184.868 53.0844 184.835 53.0215 184.822 52.9531C184.809 52.8848 184.816 52.8142 184.844 52.7502C184.871 52.6863 184.917 52.6319 184.975 52.594C185.033 52.5561 185.102 52.5364 185.171 52.5374C185.217 52.5374 185.262 52.5465 185.304 52.5642C185.347 52.5818 185.385 52.6077 185.417 52.6404C185.449 52.673 185.475 52.7117 185.492 52.7542C185.509 52.7967 185.517 52.8421 185.517 52.8879Z" fill="white"/>
<path d="M67.7977 66.9341V69.9821C69.7168 70.134 71.539 70.8878 73.0047 72.136L75.1738 69.9668C73.1246 68.1576 70.5269 67.0895 67.7977 66.9341Z" fill="#F5F5F5"/>
<path d="M66.3194 88.3006C64.1477 88.1265 62.1089 87.1848 60.5683 85.6442C59.0278 84.1037 58.0861 82.0649 57.912 79.8932H54.864C55.0436 82.878 56.3103 85.6937 58.4248 87.8081C60.5392 89.9226 63.3549 91.1893 66.3397 91.3689L66.3194 88.3006Z" fill="#F0F0F0"/>
<path d="M57.912 78.4097C58.0902 76.2387 59.0339 74.2015 60.5748 72.6616C62.1156 71.1217 64.1533 70.1793 66.3245 70.0023V66.9543C63.346 67.1381 60.5373 68.4039 58.4267 70.5135C56.3161 72.6232 55.0491 75.4313 54.864 78.4097H57.912Z" fill="#E0E0E0"/>
<path d="M76.2 71.0387L74.0308 73.2079C75.1262 74.4945 75.845 76.0586 76.1079 77.7277C76.3709 79.3968 76.1678 81.1061 75.521 82.6672C74.8742 84.2282 73.8088 85.5803 72.4424 86.5743C71.0761 87.5683 69.4617 88.1657 67.7774 88.3006V91.3486C70.0659 91.2087 72.2692 90.4288 74.136 89.0976C76.0028 87.7665 77.4581 85.9376 78.3361 83.8196C79.214 81.7015 79.4793 79.3794 79.1016 77.1179C78.7239 74.8564 77.7185 72.7464 76.2 71.0286V71.0387Z" fill="#E0E0E0"/>
<path d="M37.8562 194.066H130.673C136.191 194.066 140.665 189.592 140.665 184.074V148.052C140.665 142.533 136.191 138.059 130.673 138.059H37.8562C32.3375 138.059 27.8638 142.533 27.8638 148.052V184.074C27.8638 189.592 32.3375 194.066 37.8562 194.066Z" fill="#E0E0E0"/>
<path d="M43.7998 194.483H136.616C142.135 194.483 146.609 190.009 146.609 184.49V148.468C146.609 142.949 142.135 138.476 136.616 138.476H43.7998C38.2812 138.476 33.8074 142.949 33.8074 148.468V184.49C33.8074 190.009 38.2812 194.483 43.7998 194.483Z" fill="#F5F5F5"/>
<path d="M140.772 164.643H38.9788V150.729C38.9788 149.812 39.1593 148.904 39.5101 148.058C39.8609 147.211 40.375 146.441 41.0232 145.793C41.6713 145.145 42.4408 144.631 43.2876 144.28C44.1345 143.929 45.0421 143.749 45.9587 143.749H133.792C135.643 143.749 137.418 144.484 138.727 145.793C140.036 147.102 140.772 148.878 140.772 150.729V164.643Z" fill="#E0E0E0"/>
<path d="M133.792 188.371H45.9537C44.1025 188.371 42.3271 187.636 41.0181 186.327C39.7091 185.018 38.9737 183.243 38.9737 181.392V167.477H140.772V181.392C140.772 183.243 140.036 185.018 138.727 186.327C137.418 187.636 135.643 188.371 133.792 188.371Z" fill="#E0E0E0"/>
<path d="M80.4418 147.803H66.0146V164.79H80.4418V147.803Z" fill="#E6E6E6"/>
<path d="M84.135 147.803H80.4418V164.79H84.135V147.803Z" fill="#F5F5F5"/>
<path d="M73.0656 145.181H62.23V164.79H73.0656V145.181Z" fill="#E6E6E6"/>
<path d="M76.2 145.181H73.0656V164.79H76.2V145.181Z" fill="#F5F5F5"/>
<path d="M69.8754 147.803H60.7365V164.79H69.8754V147.803Z" fill="#EBEBEB"/>
<path d="M71.9633 147.803H69.8754V164.79H71.9633V147.803Z" fill="#F5F5F5"/>
<path d="M62.3976 150.678H50.4139V164.79H62.3976V150.678Z" fill="#E6E6E6"/>
<path d="M65.466 150.678H62.3976V164.79H65.466V150.678Z" fill="#F5F5F5"/>
<path d="M56.2712 148.499H47.2694V164.79H56.2712V148.499Z" fill="#E6E6E6"/>
<path d="M58.8721 148.499H56.2711V164.79H58.8721V148.499Z" fill="#F5F5F5"/>
<path d="M53.6245 150.678H44.8767V164.79H53.6245V150.678Z" fill="#E6E6E6"/>
<path d="M55.3568 150.678H53.6245V164.79H55.3568V150.678Z" fill="#F0F0F0"/>
<path d="M125.339 170.744H110.912V187.731H125.339V170.744Z" fill="#E6E6E6"/>
<path d="M129.032 170.744H125.339V187.731H129.032V170.744Z" fill="#F5F5F5"/>
<path d="M117.963 168.123H107.127V187.731H117.963V168.123Z" fill="#E6E6E6"/>
<path d="M121.097 168.123H117.963V187.731H121.097V168.123Z" fill="#F5F5F5"/>
<path d="M76.1187 170.744H61.6915V187.731H76.1187V170.744Z" fill="#E6E6E6"/>
<path d="M79.8119 170.744H76.1187V187.731H79.8119V170.744Z" fill="#F5F5F5"/>
<path d="M68.7426 168.123H57.9069V187.731H68.7426V168.123Z" fill="#E6E6E6"/>
<path d="M71.8769 168.123H68.7426V187.731H71.8769V168.123Z" fill="#F5F5F5"/>
<path d="M114.772 170.744H105.634V187.731H114.772V170.744Z" fill="#EBEBEB"/>
<path d="M116.86 170.744H114.772V187.731H116.86V170.744Z" fill="#F5F5F5"/>
<path d="M107.295 173.614H95.311V187.726H107.295V173.614Z" fill="#E6E6E6"/>
<path d="M110.363 173.614H107.295V187.726H110.363V173.614Z" fill="#F5F5F5"/>
<path d="M101.168 171.44H92.1664V187.731H101.168V171.44Z" fill="#E6E6E6"/>
<path d="M103.764 171.44H101.163V187.731H103.764V171.44Z" fill="#F5F5F5"/>
<path d="M98.5164 173.614H89.7687V187.726H98.5164V173.614Z" fill="#E6E6E6"/>
<path d="M100.254 173.614H98.5215V187.726H100.254V173.614Z" fill="#F0F0F0"/>
<path d="M225.496 130.52H168.849C168.849 133.355 170.485 135.687 172.563 135.814C178.659 136.185 188.016 137.5 190.988 142.093C196.525 150.658 195.986 180.736 189.357 187.701C187.274 189.885 181.229 194.224 181.229 194.224H213.147C213.147 194.224 207.482 189.799 205.527 187.701C198.923 180.68 198.74 150.617 204.302 142.093C207.157 137.719 215.931 136.307 221.823 135.865C223.876 135.707 225.496 133.355 225.496 130.52Z" fill="#F5F5F5"/>
<path d="M175.87 136.093C181.62 136.723 188.514 138.273 190.988 142.093C191.815 143.473 192.445 144.962 192.857 146.517H202.372C202.799 144.961 203.44 143.472 204.277 142.093C206.756 138.293 213.711 136.728 219.354 136.093H175.87Z" fill="#E6E6E6"/>
<path d="M201.366 130.556L200.599 118.552H211.765L212.532 130.556H201.366Z" fill="#EBEBEB"/>
<path d="M201.366 130.556L200.599 118.552H199.995L200.767 130.556H201.366Z" fill="#E0E0E0"/>
<path d="M202.428 129.332L201.813 119.776H210.703L211.318 129.332H202.428Z" fill="#F0F0F0"/>
<path d="M203.109 128.544L202.595 120.559H210.022L210.536 128.544H203.109Z" fill="#FAFAFA"/>
<path d="M197.744 130.52H186.527L187.772 111.12H198.989L197.744 130.52Z" fill="#E6E6E6"/>
<path d="M197.744 130.52H198.277L199.522 111.12H198.989L197.744 130.52Z" fill="#E0E0E0"/>
<path d="M196.728 128.539H187.797L188.788 113.096H197.719L196.728 128.539Z" fill="#F0F0F0"/>
<path d="M196.073 127.269H188.615L189.443 114.371H196.901L196.073 127.269Z" fill="#FAFAFA"/>
<path d="M192.308 120.172C192.404 120.33 192.539 120.461 192.699 120.551C192.86 120.642 193.041 120.689 193.225 120.689C193.41 120.689 193.591 120.642 193.752 120.551C193.912 120.461 194.047 120.33 194.142 120.172C194.391 119.803 194.523 119.368 194.523 118.923C194.523 118.478 194.391 118.043 194.142 117.673C194.047 117.515 193.912 117.385 193.752 117.294C193.591 117.204 193.41 117.156 193.225 117.156C193.041 117.156 192.86 117.204 192.699 117.294C192.539 117.385 192.404 117.515 192.308 117.673C192.06 118.043 191.928 118.478 191.928 118.923C191.928 119.368 192.06 119.803 192.308 120.172Z" fill="#EBEBEB"/>
<path d="M192.857 122.342C192.787 122.226 192.688 122.13 192.57 122.064C192.452 121.998 192.319 121.963 192.184 121.963C192.049 121.963 191.916 121.998 191.798 122.064C191.68 122.13 191.581 122.226 191.511 122.342C190.911 123.159 191.338 124.551 192.187 124.551C193.04 124.551 193.457 123.159 192.857 122.342Z" fill="#F0F0F0"/>
<path d="M127 214.066C181.398 214.066 225.496 211.491 225.496 208.316C225.496 205.14 181.398 202.565 127 202.565C72.6021 202.565 28.5039 205.14 28.5039 208.316C28.5039 211.491 72.6021 214.066 127 214.066Z" fill="#F5F5F5"/>
<path d="M198.684 170.52C193.604 174.437 192.136 183.017 191.877 189.062C191.877 189.616 190.998 189.616 191.018 189.062C191.287 182.662 192.745 174.021 198.252 169.758C198.689 169.418 199.121 170.165 198.684 170.5V170.52Z" fill="#263238"/>
<path d="M186.888 166.116C188.184 165.969 189.276 167.295 189.84 168.265C192.761 173.319 191.633 180.965 191.079 186.375C191.023 186.919 190.16 186.924 190.216 186.375C190.754 181.097 191.74 174.219 189.352 169.2C188.94 168.341 188.067 166.842 186.888 166.98C186.34 167.041 186.345 166.182 186.888 166.116Z" fill="#263238"/>
<path d="M183.739 173.076C189.174 171.735 189.835 183.789 190.012 186.39C190.048 186.944 189.189 186.939 189.154 186.39C188.935 182.87 188.763 177.831 186.218 175.011C185.71 174.442 184.81 173.695 183.967 173.909C183.429 174.041 183.2 173.208 183.739 173.076Z" fill="#263238"/>
<path d="M199.852 178.928C195.356 175.595 193.893 184.343 193.645 186.868C193.589 187.411 192.73 187.417 192.786 186.868C193.065 184.008 193.502 178.821 196.804 177.622C197.387 177.432 198.007 177.384 198.613 177.482C199.218 177.58 199.791 177.822 200.284 178.186C200.726 178.511 200.284 179.258 199.852 178.928Z" fill="#263238"/>
<path d="M181.971 180.508C182.311 180.148 182.729 179.873 183.194 179.704C183.659 179.535 184.156 179.476 184.648 179.532C187.391 179.989 188.148 184.104 188.564 186.273C188.671 186.817 187.843 187.046 187.736 186.502C187.376 184.653 185.649 178.008 182.58 181.112C182.498 181.179 182.393 181.213 182.287 181.208C182.18 181.203 182.08 181.158 182.004 181.083C181.929 181.008 181.884 180.908 181.877 180.802C181.871 180.696 181.904 180.591 181.971 180.508Z" fill="#263238"/>
<path d="M198.161 208.697H185.161C183.991 207.709 183.051 206.479 182.407 205.091C181.762 203.703 181.427 202.191 181.427 200.66C181.427 196.972 183.5 185.928 183.5 185.928H199.822C199.822 185.928 201.894 196.987 201.894 200.66C201.894 202.191 201.56 203.703 200.915 205.091C200.27 206.479 199.33 207.709 198.161 208.697Z" fill="#263238"/>
<path d="M200.233 183.17C196.312 183.17 192.471 181.58 191.663 179.614C190.856 177.648 193.37 176.058 197.292 176.058C198.555 176.061 199.813 176.221 201.036 176.535C202.122 176.203 203.253 176.042 204.389 176.058C208.31 176.058 212.146 177.648 212.959 179.614C213.771 181.58 211.252 183.17 207.33 183.17H200.233Z" fill="#407BFF"/>
<path opacity="0.1" d="M200.233 183.17C196.312 183.17 192.471 181.58 191.663 179.614C190.856 177.648 193.37 176.058 197.292 176.058C198.555 176.061 199.813 176.221 201.036 176.535C202.122 176.203 203.253 176.042 204.389 176.058C208.31 176.058 212.146 177.648 212.959 179.614C213.771 181.58 211.252 183.17 207.33 183.17H200.233Z" fill="black"/>
<path d="M174.645 175.57C171.44 175.57 170.139 174.269 171.745 172.664C173.35 171.059 177.246 169.763 180.457 169.763C181.311 169.735 182.162 169.868 182.966 170.155C184.048 169.904 185.153 169.773 186.263 169.763C189.469 169.763 190.769 171.064 189.164 172.664C187.559 174.264 183.662 175.57 180.457 175.57H174.645Z" fill="#407BFF"/>
<path d="M204.145 172.664C200.106 172.664 195.204 171.028 193.182 169.012C191.16 166.995 192.801 165.359 196.84 165.359C198.236 165.378 199.626 165.549 200.985 165.867C201.997 165.501 203.069 165.329 204.145 165.359C208.178 165.359 213.086 166.995 215.102 169.012C217.119 171.028 215.483 172.664 211.45 172.664H204.145Z" fill="#407BFF"/>
<path opacity="0.2" d="M204.145 172.664C200.106 172.664 195.204 171.028 193.182 169.012C191.16 166.995 192.801 165.359 196.84 165.359C198.236 165.378 199.626 165.549 200.985 165.867C201.997 165.501 203.069 165.329 204.145 165.359C208.178 165.359 213.086 166.995 215.102 169.012C217.119 171.028 215.483 172.664 211.45 172.664H204.145Z" fill="white"/>
<path d="M181.712 167.95C179.68 167.95 178.394 167.132 178.816 166.121C179.238 165.11 181.209 164.297 183.225 164.297C183.809 164.287 184.39 164.369 184.948 164.541C185.578 164.379 186.227 164.297 186.878 164.297C188.91 164.297 190.19 165.115 189.774 166.121C189.357 167.127 187.381 167.95 185.364 167.95H181.712Z" fill="#407BFF"/>
<path opacity="0.3" d="M181.712 167.95C179.68 167.95 178.394 167.132 178.816 166.121C179.238 165.11 181.209 164.297 183.225 164.297C183.809 164.287 184.39 164.369 184.948 164.541C185.578 164.379 186.227 164.297 186.878 164.297C188.91 164.297 190.19 165.115 189.774 166.121C189.357 167.127 187.381 167.95 185.364 167.95H181.712Z" fill="white"/>
<path d="M179.385 182.56C177.353 182.56 175.392 181.742 174.976 180.736C174.559 179.73 175.854 178.907 177.871 178.907C178.523 178.909 179.171 178.992 179.802 179.156C180.359 178.983 180.94 178.899 181.524 178.907C183.556 178.907 185.517 179.725 185.933 180.736C186.35 181.747 185.054 182.56 183.037 182.56H179.385Z" fill="#407BFF"/>
<path opacity="0.2" d="M179.385 182.56C177.353 182.56 175.392 181.742 174.976 180.736C174.559 179.73 175.854 178.907 177.871 178.907C178.523 178.909 179.171 178.992 179.802 179.156C180.359 178.983 180.94 178.899 181.524 178.907C183.556 178.907 185.517 179.725 185.933 180.736C186.35 181.747 185.054 182.56 183.037 182.56H179.385Z" fill="black"/>
<path d="M183.129 187.96C183.347 186.72 183.5 185.928 183.5 185.928H199.822C199.822 185.928 199.974 186.736 200.193 187.96H183.129Z" fill="#407BFF"/>
<path d="M182.418 170.861C182.418 170.861 177.942 172.354 176.525 174.813C176.525 174.813 176.748 171.232 182.418 170.861Z" fill="#FAFAFA"/>
<path d="M184.526 165.004C183.805 165.419 183.169 165.967 182.651 166.619C182.776 166.198 183.019 165.822 183.351 165.536C183.684 165.249 184.091 165.065 184.526 165.004Z" fill="#FAFAFA"/>
<path d="M201.894 166.624C201.894 166.624 206.746 168.402 209.733 171.76C208.94 170.333 207.812 169.12 206.447 168.226C205.081 167.331 203.519 166.781 201.894 166.624Z" fill="#FAFAFA"/>
<path d="M201.894 177.424C203.912 178.264 205.666 179.631 206.974 181.381C206.974 181.381 206.075 178.018 201.894 177.424Z" fill="#E6E6E6"/>
<path d="M179.878 179.888C180.237 180.077 180.542 180.354 180.764 180.694C180.986 181.033 181.118 181.424 181.148 181.829C180.554 181.311 180.115 180.639 179.878 179.888Z" fill="#FAFAFA"/>
<path d="M54.6354 112.268C54.8014 111.943 55.0671 111.68 55.3935 111.518C55.7198 111.355 56.0897 111.301 56.449 111.364C56.8089 111.454 57.1321 111.653 57.3741 111.934C57.6161 112.215 57.765 112.564 57.8002 112.934C58.0497 112.752 58.3483 112.65 58.6567 112.642C58.9651 112.634 59.2687 112.72 59.5274 112.888C59.7858 113.074 59.9873 113.329 60.1093 113.623C60.2313 113.917 60.2691 114.24 60.2183 114.554C60.3615 114.45 60.5247 114.377 60.6977 114.339C60.8708 114.302 61.0497 114.3 61.2232 114.336C61.3966 114.371 61.5608 114.442 61.7053 114.545C61.8498 114.647 61.9714 114.778 62.0624 114.93C62.2295 115.257 62.2642 115.636 62.1592 115.988C62.0542 116.34 61.8175 116.638 61.4985 116.82C61.723 116.849 61.9288 116.96 62.0762 117.131C62.2235 117.303 62.3019 117.523 62.2963 117.75C62.2906 117.976 62.2012 118.192 62.0454 118.356C61.8896 118.52 61.6784 118.621 61.4528 118.638C61.6801 118.655 61.8945 118.751 62.0594 118.908C62.2242 119.066 62.3294 119.276 62.357 119.502C62.3821 119.731 62.3284 119.963 62.2047 120.157C62.081 120.352 61.8946 120.499 61.6763 120.574C61.7844 120.636 61.8771 120.721 61.9477 120.823C62.0183 120.926 62.0648 121.043 62.0838 121.166C62.1029 121.289 62.0939 121.415 62.0577 121.534C62.0214 121.653 61.9588 121.762 61.8744 121.854C61.7788 121.93 61.6662 121.981 61.5464 122.003C61.4266 122.025 61.3031 122.017 61.1869 121.981C61.0707 121.944 60.9651 121.88 60.8796 121.793C60.794 121.706 60.7309 121.6 60.6958 121.483C60.6782 121.517 60.6529 121.546 60.622 121.568C60.5912 121.59 60.5556 121.605 60.5181 121.61C60.4806 121.616 60.4422 121.613 60.4061 121.602C60.3699 121.59 60.3369 121.571 60.3098 121.544C60.2855 121.513 60.2681 121.478 60.2587 121.44C60.2493 121.402 60.2482 121.362 60.2554 121.324C60.2627 121.285 60.278 121.249 60.3006 121.217C60.3231 121.184 60.3522 121.158 60.386 121.138C60.3302 121.199 60.2588 121.244 60.1794 121.268C60.1001 121.292 60.0157 121.294 59.9353 121.273C59.855 121.253 59.7816 121.211 59.7232 121.153C59.6648 121.094 59.6235 121.02 59.6036 120.94C59.756 121.752 58.7858 122.525 58.0796 122.133C58.1161 122.223 58.1333 122.32 58.1299 122.417C58.1265 122.514 58.1028 122.609 58.0601 122.697C58.0174 122.784 57.9569 122.861 57.8823 122.923C57.8078 122.986 57.721 123.032 57.6275 123.058C57.2479 123.128 56.8558 123.052 56.5302 122.845C56.2049 122.641 55.8358 122.517 55.4533 122.484C55.1217 122.523 54.798 122.612 54.4932 122.748C53.9802 122.903 53.4342 122.913 52.9159 122.777C52.3976 122.641 51.9272 122.363 51.5569 121.976C51.4192 122.136 51.243 122.259 51.0448 122.332C50.8466 122.406 50.633 122.427 50.4242 122.395C50.2153 122.363 50.018 122.279 49.8509 122.149C49.6838 122.02 49.5524 121.85 49.469 121.656C49.4345 121.855 49.3368 122.037 49.1904 122.176C49.044 122.316 48.8567 122.404 48.6562 122.428C48.4527 122.431 48.2538 122.367 48.0903 122.246C47.9268 122.125 47.8079 121.953 47.752 121.757C47.752 121.935 47.752 122.113 47.7266 122.296C47.0001 122.469 46.2788 121.524 46.5887 120.808C46.3208 120.796 46.0656 120.69 45.8678 120.509C45.67 120.328 45.5421 120.083 45.5066 119.817C45.4783 119.548 45.543 119.278 45.6901 119.052C45.8371 118.825 46.0575 118.656 46.3144 118.572C45.8741 118.431 45.4895 118.155 45.2152 117.783C44.9409 117.411 44.7909 116.961 44.7864 116.499C44.7819 116.037 44.9232 115.585 45.1902 115.207C45.4572 114.83 45.8363 114.546 46.2737 114.397C46.4406 114.33 46.6217 114.308 46.7997 114.332C46.9776 114.356 47.1464 114.426 47.2897 114.534C47.3569 114.593 47.4106 114.666 47.4474 114.748C47.4842 114.83 47.5033 114.919 47.5033 115.009C47.5033 115.098 47.4842 115.187 47.4474 115.269C47.4106 115.351 47.3569 115.424 47.2897 115.484C47.1699 115.063 47.1892 114.614 47.3448 114.205C47.5004 113.796 47.784 113.448 48.1533 113.213C48.527 113.012 48.9597 112.951 49.3745 113.039C49.7893 113.128 50.1594 113.36 50.419 113.696C50.296 113.509 50.2304 113.291 50.2304 113.068C50.2304 112.845 50.296 112.627 50.419 112.441C50.5433 112.266 50.7199 112.135 50.9235 112.066C51.127 111.998 51.347 111.995 51.5518 112.06C51.6016 111.779 51.7553 111.528 51.9822 111.356C52.2091 111.183 52.4925 111.103 52.7761 111.13C53.0579 111.192 53.3074 111.355 53.4776 111.588C53.6479 111.821 53.7272 112.108 53.7007 112.395C53.7279 112.29 53.7842 112.195 53.8631 112.121C53.9419 112.047 54.0401 111.997 54.1463 111.976C54.2525 111.956 54.3624 111.965 54.4633 112.004C54.5642 112.043 54.6521 112.11 54.7167 112.197C55.0367 112.111 54.6354 112.268 54.6354 112.268Z" fill="#407BFF"/>
<g opacity="0.4">
<path d="M54.4322 117.709C54.5423 117.626 54.6679 117.567 54.8015 117.535C54.9351 117.503 55.0739 117.498 55.2094 117.521C55.3425 117.543 55.4665 117.603 55.5672 117.693C55.6678 117.783 55.741 117.899 55.7784 118.029C55.8059 118.164 55.7821 118.304 55.7116 118.422C55.6412 118.541 55.5291 118.629 55.3974 118.669C55.0723 118.75 54.7472 118.481 54.417 118.527C54.3008 118.553 54.187 118.588 54.0766 118.633C53.8318 118.656 53.585 118.625 53.3534 118.542C53.1217 118.46 52.9109 118.328 52.7355 118.156C52.5926 118.059 52.4672 117.939 52.3646 117.8C52.3137 117.727 52.2831 117.641 52.276 117.552C52.2689 117.462 52.2854 117.373 52.324 117.292C52.4018 117.2 52.5039 117.131 52.6188 117.093C52.7336 117.055 52.8567 117.05 52.9742 117.079C53.4575 117.137 53.915 117.328 54.295 117.632C54.295 117.556 54.295 117.48 54.2544 117.404L54.4322 117.709Z" fill="#FAFAFA"/>
<path d="M47.5285 117.297C47.6537 117.201 47.7946 117.127 47.945 117.079C48.0342 117.05 48.1308 117.056 48.2163 117.094C48.3018 117.132 48.3703 117.2 48.4086 117.286C48.4469 117.371 48.4525 117.468 48.4241 117.557C48.3958 117.646 48.3355 117.722 48.2549 117.77C48.0749 117.89 47.8666 117.962 47.6504 117.978C47.432 118.008 47.1424 118.019 47.0459 117.826C47.0144 117.751 47.0073 117.669 47.0256 117.591C47.0438 117.512 47.0865 117.441 47.1475 117.389C47.2747 117.288 47.4219 117.215 47.5793 117.175L47.5285 117.297Z" fill="#FAFAFA"/>
<path d="M58.42 113.711C58.6394 113.805 58.8336 113.949 58.9872 114.131C59.1407 114.314 59.2492 114.53 59.3039 114.762C59.3344 114.904 59.3039 115.082 59.2074 115.158C59.1111 115.197 59.0039 115.197 58.9077 115.158L57.6428 114.859C57.8494 114.923 58.0423 115.024 58.2117 115.158C58.2957 115.227 58.3601 115.317 58.3984 115.419C58.4367 115.52 58.4477 115.63 58.4302 115.738C58.3886 115.858 58.3093 115.961 58.204 116.033C58.0987 116.104 57.9731 116.14 57.846 116.134C57.5911 116.113 57.3486 116.016 57.15 115.854C57.0323 115.787 56.9313 115.695 56.8547 115.583C56.7782 115.471 56.728 115.343 56.708 115.209C56.708 114.935 57.0484 114.701 57.2567 114.859C56.7747 114.728 56.3168 114.52 55.9003 114.244C55.7429 114.151 55.6077 114.024 55.5041 113.873C55.454 113.799 55.4243 113.713 55.418 113.624C55.4118 113.535 55.4292 113.446 55.4685 113.365C55.9003 112.578 56.4439 113.731 56.708 113.833C57.2211 114.026 57.7901 113.441 58.42 113.711Z" fill="#FAFAFA"/>
<path d="M60.3961 117.058C60.4196 117.135 60.4215 117.216 60.4018 117.293C60.3821 117.37 60.3414 117.44 60.2844 117.495C60.2536 117.52 60.2177 117.538 60.1793 117.548C60.1409 117.557 60.1009 117.558 60.0621 117.55C60.0233 117.542 59.9866 117.526 59.9548 117.503C59.923 117.479 59.8968 117.449 59.878 117.414C60.1708 117.472 60.4376 117.621 60.64 117.841C60.8127 118.08 60.772 118.491 60.4926 118.582C60.4045 118.598 60.3141 118.596 60.2268 118.575C60.1396 118.555 60.0572 118.518 59.9846 118.466C59.5279 118.216 59.0928 117.929 58.6842 117.607C58.8061 117.897 58.5064 118.227 58.1762 118.252C57.8586 118.245 57.5513 118.138 57.2973 117.947C56.9671 117.744 56.5912 117.439 56.6776 117.058C56.738 116.902 56.8573 116.775 57.0101 116.704C57.1629 116.634 57.337 116.626 57.4954 116.683C57.8078 116.809 58.08 117.018 58.2828 117.287C58.1101 117.033 58.359 116.647 58.6689 116.606C58.8208 116.598 58.9724 116.627 59.1105 116.691C59.2486 116.755 59.369 116.851 59.4614 116.972C59.1109 116.779 59.0296 116.276 59.502 116.215C59.8018 116.18 60.3199 116.804 60.3961 117.058Z" fill="#FAFAFA"/>
<path d="M50.7543 115.931C50.8212 115.904 50.8931 115.892 50.9652 115.895C51.0372 115.898 51.1078 115.916 51.1722 115.949C51.2366 115.981 51.2933 116.027 51.3386 116.083C51.3839 116.139 51.4167 116.204 51.4349 116.274C51.453 116.344 51.4562 116.417 51.444 116.488C51.4318 116.559 51.4047 116.627 51.3643 116.687C51.3239 116.746 51.2713 116.797 51.2099 116.835C51.1485 116.873 51.0798 116.897 51.0083 116.906C51.2171 116.926 51.4101 117.026 51.5468 117.186C51.6243 117.272 51.6645 117.385 51.6585 117.5C51.6368 117.585 51.5874 117.659 51.5183 117.711C51.4492 117.764 51.3643 117.792 51.2775 117.79C51.0997 117.785 50.9255 117.738 50.7695 117.653C50.9485 117.649 51.1248 117.697 51.2775 117.79C51.3121 117.814 51.3415 117.845 51.3638 117.881C51.3862 117.917 51.4012 117.957 51.4078 117.998C51.4145 118.04 51.4126 118.083 51.4025 118.124C51.3923 118.165 51.374 118.203 51.3486 118.237C51.2903 118.279 51.2225 118.305 51.1514 118.313C51.0803 118.321 51.0083 118.31 50.9422 118.283C50.6343 118.196 50.3519 118.035 50.1193 117.815C50.0355 117.917 49.9285 117.997 49.8074 118.048C49.6862 118.099 49.5545 118.121 49.4233 118.11C49.3592 118.1 49.2977 118.078 49.2426 118.043C49.1875 118.009 49.1399 117.964 49.1028 117.911C49.0657 117.858 49.0399 117.797 49.0269 117.734C49.0139 117.67 49.0139 117.605 49.0271 117.541C49.063 117.455 49.1218 117.381 49.1971 117.326C49.2723 117.272 49.3611 117.239 49.4538 117.231C49.6407 117.222 49.8275 117.251 50.0024 117.318C49.8036 117.203 49.6496 117.023 49.5656 116.81C49.4995 116.596 49.6418 116.302 49.8653 116.332C50.0888 116.363 50.2412 116.688 50.4393 116.81C50.6781 116.606 50.2209 116.129 50.7543 115.931Z" fill="#FAFAFA"/>
<path d="M55.2552 114.889C55.3877 114.999 55.4904 115.14 55.5534 115.3C55.6165 115.46 55.638 115.633 55.6158 115.804C55.6189 115.994 55.5704 116.181 55.4756 116.345C55.3808 116.51 55.2432 116.646 55.0774 116.738C54.9602 116.776 54.8364 116.788 54.7143 116.773C54.5921 116.759 54.4744 116.719 54.3691 116.655C54.2638 116.592 54.1732 116.507 54.1035 116.405C54.0338 116.304 53.9865 116.189 53.9648 116.068C53.9398 115.819 53.9916 115.569 54.1134 115.351C54.2351 115.133 54.4209 114.958 54.6456 114.849C54.743 114.806 54.8492 114.788 54.9553 114.795C55.0614 114.802 55.1642 114.834 55.2552 114.889Z" fill="#FAFAFA"/>
<path d="M52.0649 114.483L51.9481 114.584C52.0218 114.492 52.1222 114.426 52.2355 114.393C52.3488 114.361 52.4694 114.364 52.5807 114.403C52.6919 114.442 52.7882 114.515 52.8564 114.611C52.9246 114.707 52.9612 114.822 52.9612 114.94C52.9612 115.058 52.9246 115.173 52.8564 115.269C52.7882 115.365 52.6919 115.438 52.5807 115.477C52.4694 115.516 52.3488 115.519 52.2355 115.487C52.1222 115.455 52.0218 115.388 51.9481 115.296C51.7815 115.38 51.5919 115.407 51.4084 115.373C51.2249 115.339 51.0576 115.246 50.9321 115.108C50.8748 115.038 50.8327 114.957 50.8085 114.87C50.7843 114.783 50.7784 114.692 50.7913 114.602C50.8042 114.513 50.8356 114.427 50.8835 114.351C50.9313 114.274 50.9946 114.209 51.0692 114.158C51.1474 114.113 51.2361 114.089 51.3263 114.09C51.4166 114.09 51.505 114.115 51.5826 114.161C51.6602 114.207 51.7241 114.273 51.7678 114.352C51.8115 114.431 51.8334 114.52 51.8312 114.61L51.9684 114.457L52.0649 114.483Z" fill="#FAFAFA"/>
<path d="M48.5495 115.052C48.7924 115.256 48.9795 115.518 49.0931 115.814C49.1421 115.965 49.1322 116.129 49.0653 116.273C48.9984 116.417 48.8795 116.531 48.7324 116.591C48.4276 116.667 48.1381 116.413 47.9603 116.154C47.8715 116.043 47.809 115.913 47.7774 115.774C47.7457 115.635 47.7457 115.491 47.7774 115.352C47.8637 115.082 48.2549 114.925 48.4479 115.133L48.5495 115.052Z" fill="#FAFAFA"/>
<path d="M53.6194 113.203C53.6516 113.141 53.6962 113.086 53.7504 113.043C53.8046 112.999 53.8673 112.967 53.9344 112.948C54.0016 112.929 54.0719 112.925 54.141 112.935C54.21 112.944 54.2763 112.968 54.3357 113.005C54.4506 113.087 54.535 113.204 54.5755 113.34C54.616 113.475 54.6102 113.62 54.5592 113.751C54.5016 113.88 54.4112 113.991 54.297 114.073C54.1828 114.155 54.0489 114.205 53.909 114.219C53.5635 114.259 53.152 113.98 53.2333 113.64C53.1512 113.732 53.0476 113.804 52.9316 113.847C52.8156 113.89 52.6907 113.905 52.5678 113.889C52.3238 113.85 52.0903 113.762 51.882 113.629C51.5925 113.462 51.2826 113.203 51.3131 112.873C51.3314 112.738 51.3955 112.614 51.4945 112.522C51.5936 112.429 51.7214 112.374 51.8566 112.365C51.9906 112.36 52.1243 112.381 52.2498 112.429C52.3754 112.476 52.4903 112.547 52.5881 112.639C52.7365 112.787 52.8925 112.928 53.0555 113.061C53.137 113.126 53.2346 113.169 53.3383 113.184C53.442 113.2 53.5478 113.187 53.6448 113.147L53.6194 113.203Z" fill="#FAFAFA"/>
</g>
<path d="M49.2861 128.895H58.0085L58.862 120.106H48.4327L49.2861 128.895Z" fill="#407BFF"/>
<path opacity="0.3" d="M49.2861 128.895H58.0085L58.862 120.106H48.4327L49.2861 128.895Z" fill="black"/>
<path d="M47.7571 120.559H59.624L59.8373 119.39H47.5437L47.7571 120.559Z" fill="#FAFAFA"/>
<path d="M62.6415 134.407H66.4616L66.5734 207.589C66.5734 207.957 66.4275 208.311 66.1675 208.572C65.9076 208.832 65.5548 208.98 65.1866 208.981C64.8214 208.981 64.4709 208.837 64.2113 208.58C63.9516 208.323 63.8037 207.975 63.7997 207.609L62.6415 134.407Z" fill="#263238"/>
<path opacity="0.2" d="M62.6415 134.407H66.4616L66.5734 207.589C66.5734 207.957 66.4275 208.311 66.1675 208.572C65.9076 208.832 65.5548 208.98 65.1866 208.981C64.8214 208.981 64.4709 208.837 64.2113 208.58C63.9516 208.323 63.8037 207.975 63.7997 207.609L62.6415 134.407Z" fill="white"/>
<path d="M41.7475 134.407H45.5727L45.6794 207.589C45.68 207.772 45.6447 207.953 45.5753 208.121C45.5059 208.29 45.4038 208.444 45.275 208.573C45.1461 208.702 44.993 208.805 44.8244 208.875C44.6558 208.945 44.4751 208.981 44.2925 208.981C43.9273 208.981 43.5769 208.837 43.3172 208.58C43.0576 208.323 42.9097 207.975 42.9057 207.609L41.7475 134.407Z" fill="#263238"/>
<path opacity="0.2" d="M41.7475 134.407H45.5727L45.6794 207.589C45.68 207.772 45.6447 207.953 45.5753 208.121C45.5059 208.29 45.4038 208.444 45.275 208.573C45.1461 208.702 44.993 208.805 44.8244 208.875C44.6558 208.945 44.4751 208.981 44.2925 208.981C43.9273 208.981 43.5769 208.837 43.3172 208.58C43.0576 208.323 42.9097 207.975 42.9057 207.609L41.7475 134.407Z" fill="white"/>
<path d="M153.513 134.407H157.338L157.444 207.589C157.445 207.772 157.41 207.953 157.34 208.121C157.271 208.29 157.169 208.444 157.04 208.573C156.911 208.702 156.758 208.805 156.589 208.875C156.421 208.945 156.24 208.981 156.058 208.981C155.692 208.981 155.342 208.837 155.082 208.58C154.823 208.323 154.675 207.975 154.671 207.609L153.513 134.407Z" fill="#263238"/>
<path opacity="0.2" d="M153.513 134.407H157.338L157.444 207.589C157.445 207.772 157.41 207.953 157.34 208.121C157.271 208.29 157.169 208.444 157.04 208.573C156.911 208.702 156.758 208.805 156.589 208.875C156.421 208.945 156.24 208.981 156.058 208.981C155.692 208.981 155.342 208.837 155.082 208.58C154.823 208.323 154.675 207.975 154.671 207.609L153.513 134.407Z" fill="white"/>
<path d="M132.624 134.407H136.444L136.555 207.589C136.555 207.957 136.41 208.311 136.15 208.572C135.89 208.832 135.537 208.98 135.169 208.981C134.803 208.981 134.452 208.837 134.192 208.581C133.931 208.324 133.782 207.975 133.777 207.609L132.624 134.407Z" fill="#263238"/>
<path opacity="0.2" d="M132.624 134.407H136.444L136.555 207.589C136.555 207.957 136.41 208.311 136.15 208.572C135.89 208.832 135.537 208.98 135.169 208.981C134.803 208.981 134.452 208.837 134.192 208.581C133.931 208.324 133.782 207.975 133.777 207.609L132.624 134.407Z" fill="white"/>
<path d="M41.8999 148.123L156.977 147.259V134.407H41.8745L41.8999 148.123Z" fill="#407BFF"/>
<path opacity="0.3" d="M62.6415 134.503L62.8549 147.96L41.8999 148.123L41.8745 134.407L62.6415 134.503Z" fill="black"/>
<path d="M161.458 131.323C161.458 129.591 160.812 128.189 160.02 128.184H40.132C39.3395 128.184 38.6944 129.591 38.6944 131.323C38.6944 133.05 39.3395 134.452 40.132 134.462H160.02C160.812 134.452 161.458 133.05 161.458 131.323Z" fill="#263238"/>
<path opacity="0.1" d="M161.458 131.323C161.458 129.591 160.812 128.189 160.02 128.184H40.132C39.3395 128.184 38.6944 129.591 38.6944 131.323C38.6944 133.05 39.3395 134.452 40.132 134.462H160.02C160.812 134.452 161.458 133.05 161.458 131.323Z" fill="white"/>
<path opacity="0.3" d="M69.6417 131.323C69.6417 129.591 68.9966 128.189 68.199 128.184H40.132C39.3395 128.184 38.6944 129.591 38.6944 131.323C38.6944 133.05 39.3395 134.452 40.132 134.462H68.1939C68.9966 134.452 69.6366 133.05 69.6417 131.323Z" fill="black"/>
<path d="M117.389 68.8696C117.021 68.8696 116.668 68.7235 116.408 68.4634C116.148 68.2034 116.002 67.8506 116.002 67.4828V64.064H115.316C114.843 64.064 114.39 63.8761 114.055 63.5417C113.721 63.2073 113.533 62.7538 113.533 62.2809V46.0909C113.536 45.6207 113.724 45.1705 114.057 44.8384C114.39 44.5064 114.841 44.3193 115.311 44.318H140.579C141.05 44.318 141.503 44.5053 141.836 44.8388C142.17 45.1722 142.357 45.6244 142.357 46.096V62.2809C142.357 62.7538 142.169 63.2073 141.835 63.5417C141.5 63.8761 141.047 64.064 140.574 64.064H124.064L118.222 68.5801C117.984 68.7657 117.691 68.8675 117.389 68.8696ZM115.316 44.826C114.98 44.8273 114.659 44.9609 114.421 45.1976C114.184 45.4344 114.049 45.7554 114.046 46.0909V62.2809C114.047 62.6186 114.182 62.9422 114.421 63.181C114.66 63.4198 114.983 63.5546 115.321 63.556H116.5V67.4828C116.5 67.7159 116.592 67.9394 116.757 68.1042C116.922 68.269 117.145 68.3616 117.378 68.3616C117.561 68.3571 117.739 68.2968 117.886 68.1889L123.876 63.556H140.559C140.896 63.5546 141.22 63.4198 141.459 63.181C141.697 62.9422 141.832 62.6186 141.834 62.2809V46.096C141.834 45.7592 141.7 45.4361 141.462 45.198C141.223 44.9598 140.9 44.826 140.564 44.826H115.316Z" fill="#407BFF"/>
<path d="M126.599 42.2961H123.434V42.6822H126.599V42.2961Z" fill="#407BFF"/>
<path d="M111.801 46.8579H111.409V44.9479C111.411 44.2428 111.692 43.567 112.191 43.0689C112.69 42.5708 113.366 42.291 114.071 42.291H121.128V42.672H114.071C113.469 42.672 112.892 42.9113 112.466 43.3371C112.04 43.763 111.801 44.3405 111.801 44.9428V46.8579Z" fill="#407BFF"/>
<path d="M122.25 55.5803C123.176 55.5803 123.927 54.8298 123.927 53.9039C123.927 52.9781 123.176 52.2275 122.25 52.2275C121.324 52.2275 120.574 52.9781 120.574 53.9039C120.574 54.8298 121.324 55.5803 122.25 55.5803Z" fill="#407BFF"/>
<path d="M129.581 53.9039C129.582 54.2367 129.484 54.5623 129.3 54.8395C129.116 55.1167 128.853 55.333 128.546 55.461C128.239 55.5891 127.901 55.6231 127.574 55.5588C127.248 55.4945 126.948 55.3348 126.712 55.0998C126.476 54.8648 126.316 54.5652 126.25 54.2389C126.185 53.9126 126.218 53.5743 126.345 53.2667C126.472 52.9592 126.688 52.6963 126.964 52.5113C127.241 52.3263 127.566 52.2275 127.899 52.2275C128.344 52.2275 128.771 52.404 129.086 52.7182C129.402 53.0325 129.579 53.4589 129.581 53.9039Z" fill="#407BFF"/>
<path d="M133.553 55.5803C134.479 55.5803 135.23 54.8298 135.23 53.9039C135.23 52.9781 134.479 52.2275 133.553 52.2275C132.627 52.2275 131.877 52.9781 131.877 53.9039C131.877 54.8298 132.627 55.5803 133.553 55.5803Z" fill="#407BFF"/>
<path d="M72.136 94.7268L74.168 94.6302L76.9976 125.908H74.8589C73.787 125.806 73.5381 124.607 73.2383 122.352L71.2572 100.508C70.7593 95.3313 71.628 94.7268 72.136 94.7268Z" fill="#407BFF"/>
<path opacity="0.3" d="M72.136 94.7268L74.168 94.6302L76.9976 125.908H74.8589C73.787 125.806 73.5381 124.607 73.2383 122.352L71.2572 100.508C70.7593 95.3313 71.628 94.7268 72.136 94.7268Z" fill="black"/>
<path d="M75.3313 125.908H117.719C117.836 125.9 117.949 125.867 118.053 125.812C118.156 125.757 118.246 125.68 118.318 125.588C118.389 125.495 118.44 125.388 118.468 125.274C118.495 125.161 118.498 125.042 118.476 124.927L115.824 95.6107C115.816 95.3601 115.715 95.1214 115.542 94.9404C115.368 94.7594 115.134 94.6489 114.884 94.6302H72.4967C72.3799 94.6383 72.2662 94.6709 72.1629 94.7261C72.0597 94.7813 71.9694 94.8577 71.8979 94.9503C71.8263 95.043 71.7753 95.1497 71.748 95.2636C71.7208 95.3774 71.7179 95.4957 71.7398 95.6107L74.3915 124.927C74.3996 125.178 74.5 125.417 74.6735 125.598C74.847 125.779 75.0813 125.889 75.3313 125.908Z" fill="#407BFF"/>
<path d="M76.9569 122.204H115.453L113.32 97.8002H74.8233L76.9569 122.204Z" fill="#407BFF"/>
<path d="M77.4853 124.115H115.423C115.672 124.119 115.92 124.07 116.15 123.971C116.379 123.872 116.584 123.726 116.753 123.541C116.921 123.357 117.048 123.138 117.125 122.901C117.202 122.663 117.228 122.412 117.201 122.164L115.077 97.9119C115.023 97.3848 114.777 96.8959 114.387 96.5375C113.997 96.179 113.489 95.9758 112.959 95.9662H75.0214C74.7725 95.9627 74.5255 96.012 74.297 96.1109C74.0684 96.2097 73.8634 96.3559 73.6954 96.5397C73.5274 96.7235 73.4003 96.9408 73.3224 97.1774C73.2445 97.4139 73.2176 97.6642 73.2434 97.9119L75.3669 122.164C75.4202 122.692 75.6653 123.182 76.0557 123.541C76.446 123.901 76.9547 124.105 77.4853 124.115Z" fill="#263238"/>
<path d="M76.9569 122.204H115.453L113.32 97.8002H74.8233L76.9569 122.204Z" fill="#407BFF"/>
<path opacity="0.4" d="M76.9569 122.204H115.453L113.32 97.8002H74.8233L76.9569 122.204Z" fill="white"/>
<path opacity="0.1" d="M88.0313 95.9764L80.5129 124.104H83.0427L90.4799 95.9764H88.0313Z" fill="white"/>
<path opacity="0.1" d="M91.9378 95.9764L84.4194 124.104H89.4334L96.8705 95.9764H91.9378Z" fill="white"/>
<path d="M80.3707 105.08C80.4086 105.324 80.3925 105.574 80.3233 105.812C80.2542 106.049 80.1338 106.269 79.9705 106.455C79.8073 106.641 79.6052 106.789 79.3785 106.888C79.1518 106.988 78.9061 107.036 78.6587 107.03C78.1221 107.017 77.6077 106.813 77.2069 106.456C76.806 106.099 76.5447 105.611 76.4692 105.08C76.4304 104.835 76.446 104.584 76.5147 104.346C76.5835 104.108 76.7038 103.887 76.8671 103.701C77.0305 103.514 77.2329 103.366 77.46 103.266C77.687 103.166 77.9333 103.118 78.1812 103.124C78.7186 103.138 79.2336 103.342 79.6345 103.7C80.0354 104.059 80.2963 104.547 80.3707 105.08Z" fill="#407BFF"/>
<path opacity="0.3" d="M80.3707 105.08C80.4086 105.324 80.3925 105.574 80.3233 105.812C80.2542 106.049 80.1338 106.269 79.9705 106.455C79.8073 106.641 79.6052 106.789 79.3785 106.888C79.1518 106.988 78.9061 107.036 78.6587 107.03C78.1221 107.017 77.6077 106.813 77.2069 106.456C76.806 106.099 76.5447 105.611 76.4692 105.08C76.4304 104.835 76.446 104.584 76.5147 104.346C76.5835 104.108 76.7038 103.887 76.8671 103.701C77.0305 103.514 77.2329 103.366 77.46 103.266C77.687 103.166 77.9333 103.118 78.1812 103.124C78.7186 103.138 79.2336 103.342 79.6345 103.7C80.0354 104.059 80.2963 104.547 80.3707 105.08Z" fill="black"/>
<path d="M78.6587 107.03C79.0534 107.04 79.44 106.917 79.756 106.68L79.5731 106.07C79.5406 105.959 79.4742 105.861 79.3831 105.789C79.2921 105.717 79.181 105.675 79.0651 105.669H78.8314L78.8009 105.415C78.9268 105.34 79.0269 105.228 79.0877 105.095C79.1485 104.961 79.1672 104.813 79.1413 104.668C79.1215 104.455 79.0269 104.257 78.8744 104.107C78.7219 103.957 78.5213 103.866 78.3082 103.85C78.21 103.855 78.1139 103.881 78.0267 103.926C77.9395 103.971 77.8633 104.035 77.8033 104.113C77.7434 104.191 77.7011 104.281 77.6795 104.377C77.6579 104.473 77.6575 104.572 77.6783 104.668C77.6948 104.825 77.7498 104.975 77.8384 105.105C77.927 105.236 78.0465 105.342 78.1863 105.415L78.2167 105.669H77.9831C77.8734 105.666 77.7671 105.707 77.6872 105.782C77.6074 105.857 77.5603 105.961 77.5563 106.07L77.5208 106.68C77.8602 106.9 78.2542 107.021 78.6587 107.03Z" fill="white"/>
<path d="M81.788 104.709H89.4588C89.8144 104.709 89.7433 104.16 89.3927 104.16H81.6915C81.3409 104.16 81.407 104.709 81.7626 104.709H81.788Z" fill="white"/>
<path d="M81.9201 105.999H92.0293C92.2629 105.999 92.2172 105.633 91.9836 105.633H81.8743C81.6407 105.633 81.6813 105.999 81.9201 105.999Z" fill="white"/>
<path d="M93.9292 105.816C93.9383 105.87 93.9353 105.925 93.9204 105.978C93.9055 106.03 93.8791 106.078 93.8431 106.119C93.807 106.16 93.7623 106.193 93.7122 106.214C93.662 106.235 93.6077 106.245 93.5533 106.243C93.4359 106.239 93.3237 106.194 93.2357 106.116C93.1477 106.038 93.0894 105.932 93.0707 105.816C93.0617 105.762 93.0647 105.707 93.0796 105.654C93.0945 105.602 93.1208 105.553 93.1568 105.512C93.1927 105.47 93.2373 105.438 93.2874 105.416C93.3375 105.394 93.3919 105.383 93.4466 105.385C93.5647 105.389 93.6775 105.435 93.7656 105.514C93.8537 105.592 93.9116 105.699 93.9292 105.816Z" fill="#263238"/>
<path opacity="0.5" d="M93.9292 105.816C93.9383 105.87 93.9353 105.925 93.9204 105.978C93.9055 106.03 93.8791 106.078 93.8431 106.119C93.807 106.16 93.7623 106.193 93.7122 106.214C93.662 106.235 93.6077 106.245 93.5533 106.243C93.4359 106.239 93.3237 106.194 93.2357 106.116C93.1477 106.038 93.0894 105.932 93.0707 105.816C93.0617 105.762 93.0647 105.707 93.0796 105.654C93.0945 105.602 93.1208 105.553 93.1568 105.512C93.1927 105.47 93.2373 105.438 93.2874 105.416C93.3375 105.394 93.3919 105.383 93.4466 105.385C93.5647 105.389 93.6775 105.435 93.7656 105.514C93.8537 105.592 93.9116 105.699 93.9292 105.816Z" fill="white"/>
<path d="M74.8233 97.8002L75.0113 99.9846H113.508L113.32 97.8002H74.8233Z" fill="#407BFF"/>
<path d="M76.5912 98.7704C76.5969 98.8269 76.5906 98.8839 76.5727 98.9377C76.5548 98.9916 76.5257 99.041 76.4873 99.0828C76.4489 99.1246 76.4021 99.1577 76.3499 99.18C76.2978 99.2024 76.2415 99.2134 76.1848 99.2124C76.066 99.2063 75.9532 99.1587 75.866 99.0779C75.7787 98.9971 75.7225 98.8883 75.7072 98.7704C75.7015 98.7147 75.7076 98.6583 75.7253 98.6051C75.7429 98.5518 75.7716 98.503 75.8096 98.4617C75.8475 98.4204 75.8938 98.3876 75.9453 98.3655C75.9969 98.3434 76.0525 98.3325 76.1086 98.3336C76.2274 98.3384 76.3408 98.3847 76.429 98.4645C76.5172 98.5444 76.5746 98.6526 76.5912 98.7704Z" fill="white"/>
<path d="M77.7494 98.7704C77.7559 98.8266 77.7504 98.8835 77.7331 98.9374C77.7158 98.9912 77.6872 99.0407 77.6492 99.0826C77.6111 99.1245 77.5646 99.1577 77.5127 99.1801C77.4607 99.2025 77.4046 99.2135 77.3481 99.2124C77.2293 99.2063 77.1165 99.1587 77.0293 99.0779C76.942 98.9971 76.8859 98.8883 76.8706 98.7704C76.8648 98.7147 76.8709 98.6583 76.8886 98.6051C76.9062 98.5518 76.935 98.503 76.9729 98.4617C77.0108 98.4204 77.0571 98.3876 77.1086 98.3655C77.1602 98.3434 77.2158 98.3325 77.2719 98.3336C77.3899 98.3395 77.5021 98.3864 77.5892 98.4661C77.6764 98.5458 77.733 98.6535 77.7494 98.7704Z" fill="white"/>
<path d="M78.9127 98.7704C78.9184 98.8264 78.9123 98.883 78.8947 98.9365C78.8771 98.99 78.8484 99.0392 78.8106 99.0809C78.7727 99.1226 78.7265 99.1558 78.675 99.1785C78.6234 99.2011 78.5677 99.2127 78.5114 99.2124C78.3874 99.2135 78.2672 99.1691 78.1737 99.0877C78.0801 99.0063 78.0195 98.8934 78.0034 98.7704C77.9976 98.7147 78.0038 98.6583 78.0214 98.6051C78.0391 98.5518 78.0678 98.503 78.1057 98.4617C78.1437 98.4204 78.1899 98.3876 78.2415 98.3655C78.293 98.3434 78.3487 98.3325 78.4047 98.3336C78.528 98.3323 78.6475 98.376 78.741 98.4564C78.8344 98.5368 78.8955 98.6484 78.9127 98.7704Z" fill="white"/>
<path d="M118.156 125.994H74.9452C74.4374 125.994 74.0258 126.406 74.0258 126.914V127.462C74.0258 127.97 74.4374 128.382 74.9452 128.382H118.156C118.664 128.382 119.075 127.97 119.075 127.462V126.914C119.075 126.406 118.664 125.994 118.156 125.994Z" fill="#407BFF"/>
<path opacity="0.3" d="M118.156 125.994H74.9452C74.4374 125.994 74.0258 126.406 74.0258 126.914V127.462C74.0258 127.97 74.4374 128.382 74.9452 128.382H118.156C118.664 128.382 119.075 127.97 119.075 127.462V126.914C119.075 126.406 118.664 125.994 118.156 125.994Z" fill="black"/>
<path d="M91.1707 125.984H135.849V126.528C135.849 127.015 135.656 127.483 135.311 127.828C134.966 128.173 134.498 128.367 134.01 128.367H93.0148C92.5271 128.367 92.0593 128.173 91.7144 127.828C91.3696 127.483 91.1758 127.015 91.1758 126.528V125.984H91.1707Z" fill="#407BFF"/>
<path opacity="0.4" d="M91.1707 125.984H135.849V126.528C135.849 127.015 135.656 127.483 135.311 127.828C134.966 128.173 134.498 128.367 134.01 128.367H93.0148C92.5271 128.367 92.0593 128.173 91.7144 127.828C91.3696 127.483 91.1758 127.015 91.1758 126.528V125.984H91.1707Z" fill="white"/>
<path opacity="0.3" d="M111.303 126.06C111.304 126.376 111.43 126.679 111.654 126.903C111.878 127.126 112.18 127.253 112.497 127.254H117.963C118.279 127.254 118.583 127.128 118.807 126.904C119.031 126.68 119.156 126.377 119.156 126.06H111.303Z" fill="black"/>
<path d="M115.453 122.26H76.9874L76.7791 119.883H115.245L115.453 122.26Z" fill="#407BFF"/>
<path d="M110.297 121.224H83.5762L83.5609 121.011H110.282L110.297 121.224Z" fill="white"/>
<path d="M111.054 121.234C111.054 121.336 110.998 121.417 110.846 121.417C110.768 121.418 110.692 121.395 110.627 121.351L110.668 121.27C110.716 121.307 110.775 121.327 110.835 121.326C110.912 121.326 110.952 121.295 110.947 121.239C110.942 121.183 110.907 121.153 110.79 121.153H110.653V120.848H110.983V120.935H110.744V121.067H110.8C110.973 121.067 111.044 121.138 111.054 121.234Z" fill="white"/>
<path d="M111.089 121.041C111.089 121.033 111.09 121.024 111.093 121.016C111.095 121.008 111.1 121.001 111.105 120.995C111.111 120.988 111.118 120.984 111.126 120.98C111.134 120.977 111.142 120.975 111.15 120.975C111.16 120.974 111.169 120.976 111.177 120.979C111.186 120.982 111.194 120.986 111.2 120.992C111.207 120.999 111.212 121.006 111.216 121.015C111.22 121.023 111.222 121.032 111.222 121.041C111.223 121.049 111.223 121.058 111.221 121.066C111.218 121.074 111.215 121.081 111.209 121.087C111.204 121.094 111.197 121.099 111.19 121.102C111.182 121.106 111.174 121.107 111.166 121.107C111.156 121.108 111.147 121.107 111.138 121.104C111.129 121.101 111.121 121.096 111.114 121.09C111.107 121.084 111.101 121.076 111.097 121.068C111.093 121.06 111.09 121.05 111.089 121.041ZM111.12 121.346C111.118 121.337 111.119 121.328 111.121 121.32C111.123 121.312 111.128 121.304 111.134 121.297C111.14 121.291 111.147 121.286 111.155 121.283C111.163 121.28 111.172 121.279 111.181 121.28C111.199 121.28 111.216 121.287 111.229 121.299C111.243 121.311 111.251 121.328 111.252 121.346C111.253 121.354 111.252 121.363 111.249 121.371C111.246 121.379 111.242 121.386 111.236 121.392C111.23 121.399 111.223 121.403 111.216 121.407C111.208 121.41 111.2 121.412 111.191 121.412C111.182 121.413 111.173 121.411 111.164 121.408C111.156 121.405 111.148 121.401 111.141 121.394C111.134 121.388 111.129 121.381 111.125 121.372C111.122 121.364 111.12 121.355 111.12 121.346Z" fill="white"/>
<path d="M111.298 121.127C111.298 120.945 111.374 120.838 111.506 120.838C111.638 120.838 111.75 120.945 111.77 121.127C111.79 121.31 111.694 121.417 111.557 121.417C111.484 121.412 111.417 121.379 111.369 121.325C111.32 121.271 111.295 121.2 111.298 121.127ZM111.663 121.127C111.663 120.99 111.592 120.929 111.516 120.929C111.44 120.929 111.389 120.99 111.404 121.127C111.42 121.265 111.476 121.326 111.552 121.326C111.628 121.326 111.674 121.265 111.663 121.127Z" fill="white"/>
<path d="M111.836 121.127C111.836 120.945 111.912 120.838 112.05 120.838C112.122 120.843 112.189 120.876 112.238 120.93C112.286 120.984 112.311 121.055 112.309 121.127C112.309 121.31 112.232 121.417 112.1 121.417C111.968 121.417 111.857 121.31 111.836 121.127ZM112.202 121.127C112.202 120.99 112.131 120.929 112.055 120.929C111.978 120.929 111.933 120.99 111.943 121.127C111.953 121.265 112.014 121.326 112.09 121.326C112.166 121.326 112.212 121.265 112.202 121.127Z" fill="white"/>
<path d="M78.1812 121.321V121.407H77.7646V121.341L77.9678 121.127C77.9851 121.113 77.9991 121.095 78.0088 121.075C78.0184 121.055 78.0235 121.033 78.0237 121.011C78.0237 120.96 77.9831 120.929 77.9119 120.929C77.8874 120.928 77.8629 120.933 77.8407 120.944C77.8185 120.954 77.7993 120.97 77.7849 120.99L77.7087 120.929C77.7323 120.898 77.7633 120.874 77.7987 120.858C77.8342 120.842 77.8731 120.835 77.9119 120.838C78.0339 120.838 78.1202 120.899 78.1253 121C78.1279 121.034 78.1224 121.068 78.1091 121.099C78.0958 121.13 78.0752 121.157 78.0491 121.178L77.9119 121.321H78.1812Z" fill="white"/>
<path d="M78.232 121.041C78.2305 121.033 78.2308 121.025 78.2329 121.017C78.235 121.009 78.2389 121.001 78.2443 120.995C78.2496 120.989 78.2563 120.983 78.2638 120.98C78.2714 120.977 78.2796 120.975 78.2879 120.975C78.2972 120.974 78.3066 120.976 78.3155 120.978C78.3244 120.981 78.3326 120.986 78.3397 120.992C78.3468 120.998 78.3526 121.006 78.3567 121.014C78.3609 121.023 78.3634 121.032 78.3641 121.041C78.3648 121.05 78.3637 121.058 78.361 121.066C78.3582 121.074 78.3538 121.081 78.3481 121.088C78.3424 121.094 78.3354 121.099 78.3277 121.102C78.3199 121.105 78.3116 121.107 78.3031 121.107C78.294 121.108 78.2849 121.107 78.2763 121.104C78.2677 121.101 78.2598 121.096 78.2531 121.09C78.2464 121.083 78.2411 121.076 78.2374 121.068C78.2338 121.059 78.232 121.05 78.232 121.041ZM78.2574 121.346C78.2557 121.337 78.2561 121.328 78.2585 121.32C78.2609 121.312 78.2653 121.304 78.2712 121.297C78.2771 121.291 78.2845 121.286 78.2927 121.283C78.3009 121.28 78.3097 121.279 78.3183 121.28C78.3364 121.28 78.3537 121.287 78.3669 121.299C78.3801 121.311 78.3882 121.328 78.3895 121.346C78.3902 121.354 78.3891 121.363 78.3864 121.371C78.3836 121.379 78.3792 121.386 78.3735 121.392C78.3678 121.399 78.3608 121.403 78.3531 121.407C78.3453 121.41 78.337 121.412 78.3285 121.412C78.3178 121.416 78.3062 121.417 78.2948 121.416C78.2834 121.415 78.2724 121.411 78.2629 121.404C78.2535 121.398 78.2457 121.389 78.2403 121.379C78.2349 121.369 78.232 121.357 78.232 121.346H78.2574Z" fill="white"/>
<path d="M78.8416 121.234C78.8416 121.336 78.7857 121.417 78.6333 121.417C78.5555 121.418 78.4792 121.395 78.4149 121.351L78.4555 121.27C78.5033 121.307 78.5625 121.327 78.6232 121.326C78.6994 121.326 78.74 121.295 78.7349 121.239C78.7298 121.183 78.6943 121.153 78.5774 121.153H78.4403V120.848H78.7705V120.935H78.5266V121.067H78.5825C78.74 121.067 78.8314 121.138 78.8416 121.234Z" fill="white"/>
<path d="M78.8924 121.127C78.8924 120.945 78.9635 120.838 79.1007 120.838C79.173 120.843 79.2404 120.876 79.2888 120.93C79.3371 120.984 79.3626 121.055 79.3598 121.127C79.3598 121.31 79.2836 121.417 79.1515 121.417C79.0194 121.417 78.9076 121.31 78.8924 121.127ZM79.2531 121.127C79.2531 120.99 79.182 120.929 79.1058 120.929C79.0296 120.929 78.9838 120.99 78.994 121.127C79.0042 121.265 79.0651 121.326 79.1413 121.326C79.2175 121.326 79.248 121.265 79.248 121.127H79.2531Z" fill="white"/>
<path d="M114.696 121.966H113.005L112.852 120.269H114.549L114.696 121.966ZM113.259 121.681H114.391L114.3 120.548H113.167L113.259 121.681Z" fill="white"/>
<path d="M95.1738 120.823H79.8982L79.949 121.407H95.2246L95.1738 120.823Z" fill="#263238"/>
<path d="M95.7326 121.097C95.7367 121.166 95.7267 121.236 95.703 121.301C95.6794 121.366 95.6426 121.426 95.595 121.476C95.5474 121.526 95.49 121.567 95.4263 121.594C95.3626 121.621 95.2939 121.636 95.2246 121.635C95.0786 121.631 94.939 121.575 94.8316 121.476C94.7242 121.377 94.6563 121.242 94.6404 121.097C94.6362 121.028 94.6463 120.958 94.6699 120.893C94.6936 120.828 94.7304 120.768 94.7779 120.718C94.8255 120.667 94.883 120.627 94.9467 120.6C95.0104 120.572 95.079 120.558 95.1484 120.558C95.2947 120.561 95.4349 120.618 95.5425 120.717C95.6501 120.816 95.7177 120.951 95.7326 121.097Z" fill="#263238"/>
<path d="M95.7326 121.097C95.7367 121.166 95.7267 121.236 95.703 121.301C95.6794 121.366 95.6426 121.426 95.595 121.476C95.5474 121.526 95.49 121.567 95.4263 121.594C95.3626 121.621 95.2939 121.636 95.2246 121.635C95.0786 121.631 94.939 121.575 94.8316 121.476C94.7242 121.377 94.6563 121.242 94.6404 121.097C94.6362 121.028 94.6463 120.958 94.6699 120.893C94.6936 120.828 94.7304 120.768 94.7779 120.718C94.8255 120.667 94.883 120.627 94.9467 120.6C95.0104 120.572 95.079 120.558 95.1484 120.558C95.2947 120.561 95.4349 120.618 95.5425 120.717C95.6501 120.816 95.7177 120.951 95.7326 121.097Z" fill="white"/>
<path d="M110.419 83.2357C111.791 83.4752 113.084 84.0485 114.182 84.9052C115.281 85.7618 116.151 86.8755 116.718 88.1481C118.801 92.6083 120.462 99.0853 122.022 99.766C123.581 100.447 130.409 93.7259 130.409 93.7259C130.409 93.7259 129.017 89.2809 131.1 88.585C133.182 87.889 132.766 84.78 134.711 85.4354C136.657 86.0907 137.759 88.8644 137.627 90.3934C137.495 91.9225 133.878 95.3922 133.878 95.3922C133.878 95.3922 127.351 107.005 120.67 105.943C113.99 104.882 110.404 89.3114 110.404 89.3114C110.404 89.3114 108.544 82.997 110.419 83.2357Z" fill="#EEC8C0"/>
<path opacity="0.1" d="M112.268 95.0315C113.731 98.9736 114.935 101.823 117.714 104.353C114.706 99.5222 115.032 90.871 115.032 90.871L112.268 95.0315Z" fill="black"/>
<path d="M87.5843 84.6125C89.9665 83.9297 92.3828 83.3718 94.8233 82.9412L94.9046 83.0072L95.0316 83.1291L96.1034 83.9521L99.0194 85.7047L101.412 86.0806L103.729 85.5167L105.212 83.4543L105.486 82.2655V82.23C108.087 82.3354 110.648 82.9085 113.045 83.9216C113.467 84.1175 113.828 84.4241 114.089 84.8088C114.35 85.1935 114.502 85.6418 114.529 86.106C114.721 88.8485 115.06 91.5787 115.545 94.2848C116.51 99.9846 113.553 112.74 112.405 117.338C112.28 117.841 112.006 118.296 111.619 118.642C111.232 118.988 110.75 119.209 110.236 119.278C103.691 120.175 97.0566 120.217 90.5002 119.405C89.8814 119.325 89.3125 119.023 88.8981 118.557C88.4837 118.09 88.2517 117.489 88.2447 116.865C88.1634 109.565 86.3803 93.2587 85.7047 87.4014C85.6371 86.7893 85.7889 86.173 86.1331 85.6623C86.4773 85.1516 86.9915 84.7796 87.5843 84.6125Z" fill="#407BFF"/>
<path d="M87.5843 84.6125C89.9665 83.9297 92.3828 83.3718 94.8233 82.9412L94.9046 83.0072L95.0316 83.1291L96.1034 83.9521L99.0194 85.7047L101.412 86.0806L103.729 85.5167L105.212 83.4543L105.486 82.2655V82.23C108.087 82.3354 110.648 82.9085 113.045 83.9216C113.467 84.1175 113.828 84.4241 114.089 84.8088C114.35 85.1935 114.502 85.6418 114.529 86.106C114.721 88.8485 115.06 91.5787 115.545 94.2848C116.51 99.9846 113.553 112.74 112.405 117.338C112.28 117.841 112.006 118.296 111.619 118.642C111.232 118.988 110.75 119.209 110.236 119.278C103.691 120.175 97.0566 120.217 90.5002 119.405C89.8814 119.325 89.3125 119.023 88.8981 118.557C88.4837 118.09 88.2517 117.489 88.2447 116.865C88.1634 109.565 86.3803 93.2587 85.7047 87.4014C85.6371 86.7893 85.7889 86.173 86.1331 85.6623C86.4773 85.1516 86.9915 84.7796 87.5843 84.6125Z" fill="#263238"/>
<path d="M95.0366 64.0079C94.0867 66.7715 92.4966 69.7788 93.1875 72.6185C93.8784 75.4583 96.9416 78.0948 99.7153 79.0143C102.931 80.0861 106.675 81.2444 109.057 78.8263C110.236 77.6325 109.565 75.2246 108.468 73.9495C107.91 73.3205 107.174 72.8758 106.358 72.6744C105.541 72.473 104.683 72.5244 103.896 72.8217C104.087 71.3681 103.993 69.8914 103.622 68.4733C103.274 66.6152 102.204 64.9709 100.645 63.9013C99.06 62.8853 95.6513 62.235 95.0366 64.0079Z" fill="#263238"/>
<path d="M96.0526 82.7329C97.9373 80.7517 97.1804 71.8617 97.1804 71.8617L102.697 75.6057C102.697 75.6057 103.022 81.1073 104.338 82.169C104.648 82.4179 105.105 82.2046 105.471 82.23L105.136 83.6321L104.12 85.3694L102.707 86.3854H100.62L98.7349 85.852L96.5962 84.328L94.8487 82.9208C95.2551 82.865 95.7783 83.0174 96.0526 82.7329Z" fill="#EEC8C0"/>
<path opacity="0.1" d="M103.18 79.2886C99.5527 78.8771 97.8865 76.9924 97.1296 75.504L97.2871 74.0206L102.799 77.7646L103.18 79.2886Z" fill="black"/>
<path d="M95.0214 68.3107C96.1847 72.8827 96.5809 74.8487 99.3699 76.7791C103.571 79.6899 108.941 77.2515 109.169 72.4255C109.372 68.072 107.432 61.2902 102.565 60.3402C101.49 60.1185 100.375 60.1756 99.3277 60.5059C98.2803 60.8363 97.3348 61.4289 96.5809 62.2276C95.827 63.0262 95.2899 64.0043 95.0205 65.069C94.7511 66.1337 94.7584 67.2496 95.0417 68.3107H95.0214Z" fill="#EEC8C0"/>
<path d="M102.616 68.1228C102.692 68.4987 102.946 68.7679 103.19 68.7222C103.434 68.6765 103.581 68.3311 103.515 67.9551C103.449 67.5792 103.18 67.31 102.936 67.3506C102.692 67.3913 102.586 67.7621 102.616 68.1228Z" fill="#263238"/>
<path d="M106.898 67.3202C106.97 67.7062 107.229 67.9653 107.472 67.9247C107.716 67.884 107.864 67.5284 107.793 67.1525C107.721 66.7766 107.462 66.5074 107.218 66.5582C106.975 66.609 106.827 66.9442 106.898 67.3202Z" fill="#263238"/>
<path d="M107.112 66.5988L107.965 66.167C107.965 66.167 107.64 66.9646 107.112 66.5988Z" fill="#263238"/>
<path d="M105.71 68.2549C106.213 69.0507 106.821 69.7752 107.518 70.4088C107.35 70.5817 107.148 70.7165 106.923 70.8042C106.699 70.8918 106.458 70.9302 106.218 70.9168L105.71 68.2549Z" fill="#ED893E"/>
<path d="M100.762 67.5893C100.809 67.5887 100.856 67.5724 100.893 67.5431C100.931 67.5137 100.958 67.4729 100.97 67.4268C101.117 67.0903 101.331 66.7879 101.601 66.5387C101.87 66.2895 102.188 66.0989 102.535 65.979C102.592 65.9593 102.639 65.9178 102.666 65.8635C102.692 65.8093 102.696 65.7467 102.677 65.6894C102.668 65.6615 102.654 65.6355 102.635 65.6132C102.617 65.5908 102.593 65.5724 102.567 65.5592C102.541 65.5459 102.513 65.538 102.484 65.5359C102.454 65.5339 102.425 65.5377 102.398 65.5472C101.98 65.6885 101.598 65.9189 101.277 66.2223C100.957 66.5258 100.707 66.8951 100.543 67.3048C100.528 67.3614 100.535 67.4219 100.563 67.4732C100.592 67.5246 100.639 67.5626 100.696 67.5792C100.717 67.5871 100.739 67.5905 100.762 67.5893Z" fill="#263238"/>
<path d="M107.803 65.1154C107.843 65.1127 107.882 65.1002 107.917 65.079C107.951 65.0577 107.98 65.0284 108.001 64.9935C108.028 64.9407 108.034 64.8794 108.017 64.8225C108 64.7657 107.961 64.7176 107.909 64.6887C107.597 64.5032 107.243 64.3978 106.879 64.3819C106.516 64.3659 106.154 64.4399 105.827 64.5972C105.776 64.6223 105.738 64.6663 105.72 64.7196C105.702 64.7729 105.705 64.8311 105.73 64.8817C105.743 64.9082 105.761 64.9318 105.783 64.9509C105.806 64.9701 105.832 64.9844 105.86 64.993C105.888 65.0016 105.918 65.0042 105.947 65.0008C105.976 64.9974 106.004 64.988 106.03 64.9731C106.289 64.8606 106.572 64.8107 106.854 64.8275C107.136 64.8442 107.411 64.9272 107.655 65.0697C107.7 65.0977 107.75 65.1135 107.803 65.1154Z" fill="#263238"/>
<path d="M102.85 67.4319L103.708 67.0001C103.708 67.0001 103.378 67.7672 102.85 67.4319Z" fill="#263238"/>
<path d="M109.606 59.3243C110.2 59.7438 110.657 60.3304 110.917 61.0096C111.178 61.6888 111.23 62.43 111.069 63.1393C110.896 63.7693 110.526 64.3636 110.495 65.0189C110.477 65.3705 110.596 65.7155 110.827 65.981C111.058 66.2464 111.384 66.4115 111.735 66.4413C110.696 66.6194 109.633 66.6039 108.6 66.3956C107.584 66.1264 106.634 65.3796 106.599 64.4347C106.62 64.0943 106.659 63.7552 106.716 63.4187C106.738 63.2423 106.713 63.0632 106.645 62.8991C106.576 62.7351 106.466 62.592 106.324 62.484C105.761 62.1132 105.014 62.5145 104.333 62.6009C103.088 62.7685 101.859 61.6153 102.011 60.5231C102.164 59.4309 105.156 55.9918 109.606 59.3243Z" fill="#263238"/>
<path d="M104.993 57.7494C106.66 58.6689 111.125 63.2764 99.0752 62.5195C99.0752 62.5195 99.1006 70.0532 95.316 71.0742L85.3999 69.4385C85.3999 69.4385 89.3419 49.1032 104.993 57.7494Z" fill="#263238"/>
<path d="M86.7105 64.8665C85.7605 67.625 84.1705 70.6374 84.8614 73.4771C85.5523 76.3168 88.6155 78.9483 91.3892 79.8728C94.6048 80.9447 98.3488 82.103 100.731 79.6849C101.905 78.486 101.239 76.0832 100.142 74.803C99.5833 74.1748 98.847 73.7312 98.0306 73.5307C97.2142 73.3302 96.3561 73.3824 95.57 73.6803C95.7606 72.2267 95.6674 70.75 95.2957 69.3318C95.1265 68.4066 94.7764 67.5239 94.2656 66.7341C93.7548 65.9444 93.0933 65.2631 92.3188 64.7294C90.7186 63.7388 87.3252 63.0936 86.7105 64.8665Z" fill="#263238"/>
<path d="M94.4372 72.1359C94.8843 72.9048 95.613 73.4696 96.4692 73.7107C97.6224 74.0053 98.1812 72.969 97.8408 71.887C97.5258 70.9167 96.5556 69.5908 95.4075 69.7534C95.2099 69.7877 95.021 69.8608 94.8516 69.9683C94.6823 70.0758 94.5358 70.2157 94.4207 70.3799C94.3055 70.5442 94.2239 70.7295 94.1805 70.9254C94.1372 71.1212 94.1329 71.3237 94.168 71.5212C94.2131 71.7429 94.3049 71.9524 94.4372 72.1359Z" fill="#EEC8C0"/>
<path d="M106.614 72.2274C106.023 72.4891 105.383 72.6242 104.737 72.6242C104.09 72.6242 103.451 72.4891 102.86 72.2274C102.86 72.2274 102.707 74.5388 105.451 74.3509C105.74 74.3509 106.614 74.1985 106.614 74.1985C106.479 73.5484 106.479 72.8775 106.614 72.2274Z" fill="#263238"/>
<path d="M102.982 73.025C102.896 72.7679 102.855 72.4982 102.86 72.2274C103.846 72.6442 104.942 72.7263 105.979 72.4611V73.218C105.979 73.218 104.165 73.5381 102.982 73.025Z" fill="white"/>
<path d="M103.241 73.533C103.442 73.5106 103.643 73.4987 103.845 73.4974C104.719 73.4739 105.577 73.7361 106.289 74.2442C106.009 74.2848 105.623 74.3356 105.451 74.3509C104.226 74.4322 103.581 74.0207 103.241 73.533Z" fill="#C13B37"/>
<path d="M106.528 82.2299C106.528 82.2299 105.237 81.7931 104.719 82.2299C104.719 82.2299 104.816 85.5777 102.113 85.9993C99.4105 86.4209 95.2601 82.7583 95.2601 82.7583C94.643 82.6204 93.9966 82.7221 93.4517 83.0427L104.074 94.6201C108.336 90.1395 106.528 82.2299 106.528 82.2299Z" fill="#407BFF"/>
<path d="M87.0763 95.6767C86.0603 94.2899 83.9622 88.5241 86.2482 85.3948C88.5342 82.2655 102.316 101.092 102.316 101.092C104.643 99.9388 115.448 96.3168 115.448 96.3168C115.448 96.3168 115.809 92.5423 117.399 91.6229C118.989 90.7034 119.72 88.2853 121.072 89.7179C122.423 91.1504 124.008 95.123 121.925 96.6267C120.584 97.5852 119.191 98.4704 117.754 99.2784C117.754 99.2784 109.438 105.156 103.398 107.188C97.3582 109.22 91.3435 101.437 87.0763 95.6767Z" fill="#EEC8C0"/>
<path opacity="0.1" d="M87.0763 95.6767C86.0603 94.2899 83.9622 88.5241 86.2482 85.3948C88.5342 82.2655 102.316 101.092 102.316 101.092C104.643 99.9388 115.448 96.3168 115.448 96.3168C115.448 96.3168 115.809 92.5423 117.399 91.6229C118.989 90.7034 119.72 88.2853 121.072 89.7179C122.423 91.1504 124.008 95.123 121.925 96.6267C120.584 97.5852 119.191 98.4704 117.754 99.2784C117.754 99.2784 109.438 105.156 103.398 107.188C97.3582 109.22 91.3435 101.437 87.0763 95.6767Z" fill="white"/>
<path opacity="0.1" d="M87.0763 95.6767C86.0603 94.2899 83.9622 88.5241 86.2482 85.3948C88.5342 82.2655 102.316 101.092 102.316 101.092C104.643 99.9388 115.448 96.3168 115.448 96.3168C115.448 96.3168 115.809 92.5423 117.399 91.6229C118.989 90.7034 119.72 88.2853 121.072 89.7179C122.423 91.1504 124.008 95.123 121.925 96.6267C120.584 97.5852 119.191 98.4704 117.754 99.2784C117.754 99.2784 109.438 105.156 103.398 107.188C97.3582 109.22 91.3435 101.437 87.0763 95.6767Z" fill="white"/>
<path d="M113.076 120.431L112.425 117.348C112.425 117.348 95.5345 119.1 88.326 117.495L87.3862 120.442L113.076 120.431Z" fill="#263238"/>
<path d="M96.4336 74.5489C96.4397 74.7315 96.3912 74.9118 96.2944 75.0667C96.1975 75.2216 96.0567 75.3442 95.8899 75.4188C95.7232 75.4933 95.5379 75.5165 95.3579 75.4854C95.1779 75.4542 95.0112 75.3701 94.8792 75.2439C94.7471 75.1176 94.6557 74.9549 94.6166 74.7764C94.5774 74.598 94.5923 74.4119 94.6593 74.2419C94.7264 74.072 94.8425 73.9259 94.993 73.8222C95.1434 73.7185 95.3213 73.662 95.504 73.6599C95.7448 73.6558 95.9775 73.7469 96.1516 73.9133C96.3256 74.0798 96.427 74.3082 96.4336 74.5489Z" fill="white"/>
<path d="M153.528 82.4382C153.009 83.5371 152.346 84.562 151.557 85.4862C152.161 86.1111 153.284 85.8774 153.284 85.8774L153.528 82.4382Z" fill="#A02724"/>
<path d="M166.289 88.1888L162.911 90.7288L158.298 94.1578C158.541 94.6856 158.684 95.2541 158.72 95.8342C158.867 97.1144 159.014 98.0644 156.154 98.8111C155.851 98.878 155.574 99.0311 155.356 99.2519C155.138 99.4727 154.988 99.7519 154.925 100.056C154.803 100.813 155.25 101.732 157.871 102.22C160.411 102.638 163.019 102.234 165.313 101.067C166.436 100.523 166.446 99.8525 165.994 98.7197C164.638 95.4583 165.374 91.3689 166.289 88.1888Z" fill="#FF8B7B"/>
<path d="M152.634 82.0826C152.532 82.4789 152.634 82.8446 152.827 82.8954C153.02 82.9462 153.279 82.6668 153.38 82.2706C153.482 81.8743 153.38 81.5086 153.187 81.4527C152.994 81.3968 152.73 81.6813 152.634 82.0826Z" fill="#263238"/>
<path d="M155.631 81.4832C155.587 81.483 155.543 81.4711 155.505 81.4488C155.466 81.4265 155.435 81.3946 155.412 81.3562C155.203 80.9989 154.907 80.7 154.552 80.4869C154.197 80.2738 153.794 80.1535 153.38 80.137C153.313 80.137 153.248 80.1103 153.201 80.0626C153.153 80.015 153.126 79.9504 153.126 79.883C153.126 79.8157 153.153 79.7511 153.201 79.7034C153.248 79.6558 153.313 79.629 153.38 79.629C153.884 79.6472 154.375 79.7917 154.808 80.0491C155.241 80.3065 155.603 80.6686 155.859 81.1022C155.891 81.1619 155.899 81.2315 155.881 81.2967C155.863 81.3619 155.821 81.4178 155.763 81.4527C155.722 81.4738 155.677 81.4843 155.631 81.4832Z" fill="#263238"/>
<path d="M152.608 87.701C152.719 88.8364 153.089 89.931 153.691 90.9001C154.292 91.8692 155.109 92.6866 156.078 93.289C156.733 93.7002 157.452 93.9974 158.206 94.1679C159.124 94.3739 160.075 94.3727 160.992 94.1644C161.908 93.9561 162.767 93.546 163.505 92.9639C166.446 90.7389 166.787 87.7264 167.808 82.6668C168.056 81.4873 168.004 80.2641 167.655 79.1102C167.306 77.9564 166.672 76.9091 165.811 76.0651C164.95 75.2211 163.891 74.6077 162.73 74.2814C161.57 73.9551 160.346 73.9266 159.172 74.1984C153.924 75.4582 152.151 82.9411 152.608 87.701Z" fill="#FF8B7B"/>
<path opacity="0.2" d="M156.078 93.2739C156.733 93.6851 157.452 93.9822 158.206 94.1527H158.298L157.978 93.1367C157.978 93.1367 157.541 93.8632 156.078 93.2739Z" fill="black"/>
<path d="M169.281 86.3092C168.427 88.0516 167.371 89.7991 165.76 90.8812C165.166 91.2876 160.655 90.9879 160.655 90.9879C160.701 89.4639 158.76 84.1807 157.825 82.4077C157.531 83.1342 157.947 84.1299 157.577 84.8004C157.069 84.7039 148.031 81.4527 152.014 74.9554C154.828 70.3834 162.377 69.9668 165.511 74.488C166.184 74.3143 166.891 74.3275 167.556 74.5262C168.221 74.725 168.819 75.1017 169.286 75.6158C170.199 76.6718 170.735 78.0013 170.81 79.3953C171.039 81.788 170.327 84.1553 169.281 86.3092Z" fill="#263238"/>
<path d="M160.919 83.7082C160.826 84.8693 160.307 85.9549 159.461 86.7562C158.374 87.7722 157.013 86.6952 156.845 85.2322C156.693 83.9266 157.328 82.0166 158.653 81.5594C159.979 81.1022 161.036 82.296 160.919 83.7082Z" fill="#FF8B7B"/>
<path d="M117.226 197.881L112.547 195.585L116.007 184.186L121.707 187.366L117.226 197.881Z" fill="#FF8B7B"/>
<path opacity="0.2" d="M122.936 184.236L116.937 180.777L114.559 188.991L119.974 191.541L122.936 184.236Z" fill="black"/>
<path d="M112.268 194.676L117.627 197.15C117.725 197.199 117.801 197.283 117.84 197.386C117.878 197.488 117.877 197.602 117.836 197.703L116.083 202.91C116.045 203.035 115.982 203.15 115.898 203.25C115.814 203.349 115.71 203.43 115.594 203.489C115.478 203.548 115.351 203.583 115.222 203.592C115.092 203.6 114.961 203.583 114.838 203.54C112.989 202.641 112.141 202.103 109.789 201C108.336 200.335 105.029 198.755 102.967 198.008C100.904 197.261 101.757 194.838 102.702 194.935C106.954 195.387 109.454 195.285 111.303 194.64C111.617 194.527 111.963 194.539 112.268 194.676Z" fill="#263238"/>
<path d="M109.51 195.031C109.938 195.199 110.382 195.321 110.835 195.397C110.858 195.402 110.881 195.4 110.902 195.391C110.923 195.382 110.941 195.366 110.952 195.346C110.969 195.33 110.981 195.31 110.986 195.287C110.991 195.265 110.99 195.241 110.983 195.219C110.876 195.047 109.901 193.543 109.22 193.518C109.143 193.513 109.065 193.53 108.997 193.565C108.928 193.601 108.87 193.655 108.829 193.721C108.749 193.813 108.696 193.924 108.674 194.044C108.653 194.164 108.664 194.288 108.707 194.401C108.887 194.703 109.173 194.928 109.51 195.031ZM110.627 195.113C109.698 194.889 109.068 194.605 108.941 194.3C108.918 194.226 108.916 194.148 108.934 194.073C108.952 193.998 108.989 193.929 109.042 193.873C109.062 193.84 109.09 193.812 109.124 193.792C109.158 193.773 109.196 193.762 109.235 193.761C109.591 193.772 110.236 194.518 110.627 195.113Z" fill="#407BFF"/>
<path d="M110.841 195.397H110.896C110.917 195.393 110.938 195.385 110.955 195.373C110.973 195.36 110.987 195.344 110.998 195.326C110.998 195.265 111.724 193.929 111.435 193.258C111.4 193.17 111.344 193.091 111.273 193.028C111.201 192.966 111.116 192.921 111.023 192.898C110.926 192.86 110.82 192.856 110.72 192.886C110.62 192.917 110.534 192.98 110.475 193.065C110.139 193.543 110.434 194.854 110.79 195.341C110.793 195.354 110.799 195.366 110.808 195.375C110.817 195.385 110.828 195.393 110.841 195.397ZM111.013 193.167C111.058 193.185 111.099 193.213 111.133 193.248C111.168 193.283 111.194 193.325 111.211 193.37C111.28 193.945 111.163 194.528 110.876 195.031C110.582 194.474 110.51 193.826 110.673 193.218C110.673 193.152 110.78 193.096 110.952 193.147L111.013 193.167Z" fill="#407BFF"/>
<path d="M152.867 138.958C152.867 138.958 125.293 134.214 121.823 149.296C119.146 159.857 117.851 164.155 114.442 187.574L121.722 189.215C121.722 189.215 133.457 165.227 134.142 155.026C142.372 156.418 161.097 160.32 165.085 153.355C167.083 149.813 168.417 145.936 169.022 141.915L152.867 138.958Z" fill="#407BFF"/>
<g opacity="0.3">
<path d="M152.867 138.958C152.867 138.958 125.293 134.214 121.823 149.296C119.146 159.857 117.851 164.155 114.442 187.574L121.722 189.215C121.722 189.215 133.457 165.227 134.142 155.026C142.372 156.418 161.097 160.32 165.085 153.355C167.083 149.813 168.417 145.936 169.022 141.915L152.867 138.958Z" fill="black"/>
</g>
<path d="M122.652 190.835L113.33 187.574L114.203 183.352L123.764 187.239L122.652 190.835Z" fill="#407BFF"/>
<path d="M97.9271 196.195L93.0097 193.467L97.8967 184.023L103.957 186.487L97.9271 196.195Z" fill="#FF8B7B"/>
<path opacity="0.2" d="M105.649 183.581L100.249 179.243L96.647 187L101.605 190.348L105.649 183.581Z" fill="black"/>
<path d="M93.5126 192.273L98.4351 195.534C98.518 195.597 98.5755 195.688 98.5969 195.789C98.6184 195.891 98.6024 195.997 98.552 196.088L96.012 200.97C95.9555 201.087 95.8757 201.192 95.7777 201.278C95.6796 201.363 95.5651 201.428 95.4412 201.469C95.3174 201.509 95.1866 201.524 95.0568 201.512C94.927 201.501 94.8009 201.463 94.6861 201.402C92.9945 200.233 92.2426 199.573 90.0786 198.135C88.7476 197.256 85.7199 195.194 83.7946 194.137C81.8693 193.081 83.0834 190.825 84.0029 191.064C88.138 192.156 90.6069 192.441 92.5474 192.08C92.882 192.014 93.229 192.084 93.5126 192.273Z" fill="#263238"/>
<path d="M90.7339 192.202C91.1316 192.431 91.5521 192.618 91.9886 192.761C92.0094 192.77 92.0327 192.772 92.0549 192.766C92.077 192.761 92.0966 192.748 92.1105 192.73C92.1294 192.718 92.1442 192.7 92.1533 192.679C92.1623 192.658 92.1651 192.636 92.1613 192.613C92.0851 192.42 91.3485 190.79 90.678 190.663C90.6018 190.646 90.5228 190.65 90.4487 190.674C90.3747 190.698 90.3083 190.742 90.2563 190.8C90.1659 190.881 90.0979 190.983 90.0587 191.098C90.0196 191.213 90.0107 191.336 90.0328 191.455C90.1685 191.781 90.4176 192.046 90.7339 192.202ZM91.8261 192.451C90.9421 192.085 90.363 191.729 90.3021 191.394C90.2912 191.317 90.301 191.238 90.3304 191.166C90.3599 191.093 90.4079 191.03 90.4697 190.983C90.4943 190.954 90.5259 190.931 90.5614 190.918C90.597 190.905 90.6353 190.901 90.6729 190.906C91.0082 190.967 91.5111 191.8 91.8261 192.451Z" fill="#407BFF"/>
<path d="M91.9937 192.766H92.0445C92.0659 192.767 92.0872 192.763 92.1066 192.754C92.1261 192.745 92.1431 192.732 92.1563 192.715C92.1817 192.659 93.0859 191.445 92.903 190.739C92.8824 190.646 92.8398 190.559 92.7788 190.485C92.7178 190.412 92.6403 190.354 92.5525 190.317C92.4624 190.264 92.3572 190.244 92.2539 190.259C92.1506 190.273 92.0553 190.323 91.9835 190.398C91.5822 190.82 91.6686 192.156 91.948 192.695C91.9493 192.709 91.9542 192.723 91.9621 192.736C91.9701 192.748 91.9809 192.758 91.9937 192.766ZM92.5017 190.586C92.5442 190.612 92.581 190.646 92.6098 190.686C92.6387 190.726 92.6589 190.772 92.6693 190.82C92.6508 191.398 92.4439 191.955 92.0801 192.405C91.875 191.81 91.9041 191.16 92.1613 190.586C92.1867 190.525 92.2883 190.485 92.4509 190.556L92.5017 190.586Z" fill="#407BFF"/>
<path d="M144.175 137.49C143.982 137.455 113.944 129.332 108.966 146.35C102.138 167.061 97.0737 184.643 97.0737 184.643L102.967 188.915C102.967 188.915 117.998 168.118 120.239 153.863C129.626 152.806 152.06 161.031 156.047 154.071C159.314 148.382 159.471 140.081 159.471 140.081L144.175 137.49Z" fill="#407BFF"/>
<path opacity="0.3" d="M144.175 137.49C143.982 137.455 113.944 129.332 108.966 146.35C102.138 167.061 97.0737 184.643 97.0737 184.643L102.967 188.915C102.967 188.915 117.998 168.118 120.239 153.863C129.626 152.806 152.06 161.031 156.047 154.071C159.314 148.382 159.471 140.081 159.471 140.081L144.175 137.49Z" fill="black"/>
<path d="M103.84 190.012L95.8698 184.678L97.1601 181.265L105.725 185.938L103.84 190.012Z" fill="#407BFF"/>
<path d="M172.11 102.738C171.602 104.77 170.988 106.776 170.322 108.783C169.657 110.79 168.895 112.776 168.001 114.808C167.092 116.898 165.967 118.887 164.643 120.741C163.865 121.829 162.932 122.798 161.874 123.617C161.224 124.119 160.505 124.526 159.741 124.826C159.302 124.993 158.847 125.115 158.384 125.191L158.013 125.252C157.82 125.252 157.607 125.283 157.419 125.283C157.1 125.278 156.782 125.242 156.469 125.176C156.006 125.081 155.555 124.936 155.123 124.744C154.773 124.599 154.433 124.43 154.107 124.236C153.567 123.901 153.048 123.533 152.552 123.134C151.689 122.428 148.468 117.348 146.177 113.792L148.905 111.516C151.862 114.193 154.864 116.947 157.871 119.299C158.643 119.847 155.387 117.648 156.113 118.115C156.439 118.319 156.779 118.501 157.129 118.659C157.419 118.791 157.704 118.857 157.637 118.806C157.575 118.786 157.51 118.775 157.444 118.775C157.372 118.77 157.299 118.77 157.226 118.775C157.263 118.761 157.299 118.745 157.333 118.725C157.501 118.626 157.66 118.51 157.805 118.379C158.317 117.902 158.769 117.365 159.151 116.779C160.11 115.267 160.919 113.666 161.569 111.999C162.311 110.231 162.916 108.443 163.5 106.568C164.084 104.694 164.628 102.824 165.12 100.904C165.613 98.9837 172.639 100.696 172.11 102.738Z" fill="#407BFF"/>
<path opacity="0.6" d="M172.11 102.738C171.602 104.77 170.988 106.776 170.322 108.783C169.657 110.79 168.895 112.776 168.001 114.808C167.092 116.898 165.967 118.887 164.643 120.741C163.865 121.829 162.932 122.798 161.874 123.617C161.224 124.119 160.505 124.526 159.741 124.826C159.302 124.993 158.847 125.115 158.384 125.191L158.013 125.252C157.82 125.252 157.607 125.283 157.419 125.283C157.1 125.278 156.782 125.242 156.469 125.176C156.006 125.081 155.555 124.936 155.123 124.744C154.773 124.599 154.433 124.43 154.107 124.236C153.567 123.901 153.048 123.533 152.552 123.134C151.689 122.428 148.468 117.348 146.177 113.792L148.905 111.516C151.862 114.193 154.864 116.947 157.871 119.299C158.643 119.847 155.387 117.648 156.113 118.115C156.439 118.319 156.779 118.501 157.129 118.659C157.419 118.791 157.704 118.857 157.637 118.806C157.575 118.786 157.51 118.775 157.444 118.775C157.372 118.77 157.299 118.77 157.226 118.775C157.263 118.761 157.299 118.745 157.333 118.725C157.501 118.626 157.66 118.51 157.805 118.379C158.317 117.902 158.769 117.365 159.151 116.779C160.11 115.267 160.919 113.666 161.569 111.999C162.311 110.231 162.916 108.443 163.5 106.568C164.084 104.694 164.628 102.824 165.12 100.904C165.613 98.9837 172.639 100.696 172.11 102.738Z" fill="white"/>
<path d="M149.108 111.821L146.502 106.289L141.549 109.118C141.549 109.118 144.755 114.254 146.558 113.746L149.108 111.821Z" fill="#FF8B7B"/>
<path d="M142.458 104.978L140.208 105.918C140.075 105.972 139.958 106.057 139.866 106.167C139.774 106.277 139.711 106.407 139.681 106.547C139.652 106.687 139.657 106.832 139.697 106.969C139.736 107.107 139.809 107.233 139.908 107.335L141.59 109.093L146.543 106.263L143.124 104.973C142.91 104.888 142.671 104.89 142.458 104.978Z" fill="#FF8B7B"/>
<path d="M123.739 122.001L118.405 121.351L116.632 126.939C116.632 126.939 122.728 127.091 123.744 125.446L123.739 122.001Z" fill="#FF8B7B"/>
<path d="M114.427 123.256L113.411 125.384C113.346 125.532 113.317 125.694 113.326 125.855C113.336 126.017 113.384 126.174 113.467 126.313C113.549 126.452 113.664 126.569 113.801 126.655C113.938 126.741 114.093 126.793 114.254 126.807L116.616 126.954L118.389 121.366L114.94 122.768C114.716 122.864 114.534 123.037 114.427 123.256Z" fill="#FF8B7B"/>
<path d="M173.807 102.443C173.568 101.204 171.724 99.695 170.475 99.4868L169.647 99.3445C167.974 99.0826 166.288 98.913 164.597 98.8365C161.213 98.6468 157.821 98.6468 154.437 98.8365C152.867 98.9838 151.328 99.2378 150.104 99.4766H150.058C149.363 99.6263 148.737 100.005 148.282 100.552C147.827 101.099 147.569 101.783 147.549 102.494C147.432 106.33 147.137 114.122 146.446 121.798C145.913 127.798 144.729 133.645 144.196 137.709L169.047 141.905C170.724 137.191 171.303 132.928 172.852 124.17C173.761 118.903 174.798 107.544 173.807 102.443Z" fill="#407BFF"/>
<path opacity="0.6" d="M173.807 102.443C173.568 101.204 171.724 99.695 170.475 99.4868L169.647 99.3445C167.974 99.0826 166.288 98.913 164.597 98.8365C161.213 98.6468 157.821 98.6468 154.437 98.8365C152.867 98.9838 151.328 99.2378 150.104 99.4766H150.058C149.363 99.6263 148.737 100.005 148.282 100.552C147.827 101.099 147.569 101.783 147.549 102.494C147.432 106.33 147.137 114.122 146.446 121.798C145.913 127.798 144.729 133.645 144.196 137.709L169.047 141.905C170.724 137.191 171.303 132.928 172.852 124.17C173.761 118.903 174.798 107.544 173.807 102.443Z" fill="white"/>
<path d="M149.977 100.076C150.456 100.285 150.89 100.588 151.252 100.965C151.614 101.343 151.897 101.789 152.086 102.276C152.275 102.764 152.365 103.285 152.352 103.808C152.339 104.331 152.222 104.846 152.009 105.324C149.977 109.896 146.573 117.104 145.11 119.634C144.556 120.528 143.998 121.422 143.373 122.316C143.063 122.768 142.712 123.21 142.357 123.673C142.154 123.901 141.991 124.115 141.752 124.358L141.412 124.714L141.219 124.912C140.676 125.415 140.029 125.791 139.324 126.014C138.952 126.137 138.572 126.233 138.186 126.304C137.559 126.405 136.926 126.457 136.291 126.461C135.194 126.461 127.655 127.137 123.805 125.791L123.601 121.641C127.442 121.945 134.142 119.868 135.006 119.776C135.349 119.732 135.689 119.662 136.022 119.568C136.132 119.536 136.237 119.492 136.337 119.436C136.373 119.436 136.337 119.395 136.18 119.502C136.123 119.537 136.07 119.578 136.022 119.624L136.078 119.553L136.235 119.365C136.342 119.253 136.464 119.07 136.581 118.923C136.809 118.608 137.043 118.267 137.277 117.907C137.739 117.185 138.186 116.383 138.628 115.575C139.507 113.955 140.32 112.237 141.112 110.495C141.671 109.266 143.327 105.527 144.734 102.179C144.938 101.694 145.235 101.255 145.61 100.886C145.984 100.518 146.428 100.227 146.916 100.031C147.404 99.8357 147.925 99.7389 148.451 99.7465C148.976 99.7542 149.495 99.8661 149.977 100.076Z" fill="#407BFF"/>
<path opacity="0.2" d="M146.609 116.225C146.68 118.496 146.649 117.749 146.731 120.142C153.365 110.962 151.658 104.587 151.658 104.587L146.609 116.225Z" fill="black"/>
<path opacity="0.6" d="M149.977 100.076C150.456 100.285 150.89 100.588 151.252 100.965C151.614 101.343 151.897 101.789 152.086 102.276C152.275 102.764 152.365 103.285 152.352 103.808C152.339 104.331 152.222 104.846 152.009 105.324C149.977 109.896 146.573 117.104 145.11 119.634C144.556 120.528 143.998 121.422 143.373 122.316C143.063 122.768 142.712 123.21 142.357 123.673C142.154 123.901 141.991 124.115 141.752 124.358L141.412 124.714L141.219 124.912C140.676 125.415 140.029 125.791 139.324 126.014C138.952 126.137 138.572 126.233 138.186 126.304C137.559 126.405 136.926 126.457 136.291 126.461C135.194 126.461 127.655 127.137 123.805 125.791L123.601 121.641C127.442 121.945 134.142 119.868 135.006 119.776C135.349 119.732 135.689 119.662 136.022 119.568C136.132 119.536 136.237 119.492 136.337 119.436C136.373 119.436 136.337 119.395 136.18 119.502C136.123 119.537 136.07 119.578 136.022 119.624L136.078 119.553L136.235 119.365C136.342 119.253 136.464 119.07 136.581 118.923C136.809 118.608 137.043 118.267 137.277 117.907C137.739 117.185 138.186 116.383 138.628 115.575C139.507 113.955 140.32 112.237 141.112 110.495C141.671 109.266 143.327 105.527 144.734 102.179C144.938 101.694 145.235 101.255 145.61 100.886C145.984 100.518 146.428 100.227 146.916 100.031C147.404 99.8357 147.925 99.7389 148.451 99.7465C148.976 99.7542 149.495 99.8661 149.977 100.076Z" fill="white"/>
<path d="M157.439 82.296C157.042 82.646 156.719 83.0715 156.488 83.5476C156.257 84.0238 156.122 84.5412 156.093 85.0696C156.027 86.4768 157.394 86.8578 158.577 86.1974C159.654 85.598 160.97 84.1654 160.472 82.8649C159.974 81.5644 158.435 81.412 157.439 82.296Z" fill="#FAB27B"/>
<path d="M161.961 84.4906C161.859 86.7969 160.467 88.6105 158.161 88.5089C155.854 88.4073 154.605 86.4769 154.727 84.1705C154.849 81.8642 156.225 80.0507 158.532 80.1523C160.838 80.2539 162.052 82.1843 161.961 84.4906Z" fill="#407BFF"/>
<path opacity="0.7" d="M161.961 84.4906C161.859 86.7969 160.467 88.6105 158.161 88.5089C155.854 88.4073 154.605 86.4769 154.727 84.1705C154.849 81.8642 156.225 80.0507 158.532 80.1523C160.838 80.2539 162.052 82.1843 161.961 84.4906Z" fill="white"/>
<path d="M160.899 84.4448C160.823 86.0755 159.842 87.3506 158.212 87.2795C156.581 87.2084 155.717 85.8469 155.793 84.2315C155.87 82.616 156.845 81.3257 158.476 81.3968C160.106 81.468 160.97 82.804 160.899 84.4448Z" fill="#407BFF"/>
<path opacity="0.3" d="M160.899 84.4448C160.823 86.0755 159.842 87.3506 158.212 87.2795C156.581 87.2084 155.717 85.8469 155.793 84.2315C155.87 82.616 156.845 81.3257 158.476 81.3968C160.106 81.468 160.97 82.804 160.899 84.4448Z" fill="white"/>
<path d="M158.227 79.756C158.699 77.8154 160.569 72.644 164.445 71.9226C164.631 71.8908 164.823 71.9078 165.001 71.9718C165.179 72.0359 165.337 72.145 165.461 72.2884L165.923 72.7964C166.031 72.9217 166.11 73.0697 166.154 73.2295C166.198 73.3893 166.206 73.5568 166.176 73.7199C166.147 73.883 166.082 74.0375 165.985 74.1722C165.889 74.3068 165.763 74.4182 165.618 74.4981C163.19 75.7715 161.271 77.8388 160.183 80.3554C160.106 80.535 159.967 80.6811 159.792 80.7669C159.617 80.8527 159.416 80.8725 159.228 80.8228L158.796 80.7059C158.598 80.6498 158.429 80.5203 158.323 80.3438C158.217 80.1672 158.183 79.957 158.227 79.756Z" fill="#407BFF"/>
<path opacity="0.2" d="M158.227 79.756C158.699 77.8154 160.569 72.644 164.445 71.9226C164.631 71.8908 164.823 71.9078 165.001 71.9718C165.179 72.0359 165.337 72.145 165.461 72.2884L165.923 72.7964C166.031 72.9217 166.11 73.0697 166.154 73.2295C166.198 73.3893 166.206 73.5568 166.176 73.7199C166.147 73.883 166.082 74.0375 165.985 74.1722C165.889 74.3068 165.763 74.4182 165.618 74.4981C163.19 75.7715 161.271 77.8388 160.183 80.3554C160.106 80.535 159.967 80.6811 159.792 80.7669C159.617 80.8527 159.416 80.8725 159.228 80.8228L158.796 80.7059C158.598 80.6498 158.429 80.5203 158.323 80.3438C158.217 80.1672 158.183 79.957 158.227 79.756Z" fill="white"/>
<path d="M130.942 136.525H127.64V150.617H130.942V136.525Z" fill="#263238"/>
<path d="M130.942 136.525H127.64V150.617H130.942V136.525Z" fill="#263238"/>
<path d="M140.508 140.828C133.24 138.289 125.327 138.289 118.059 140.828C117.328 141.102 116.522 141.099 115.793 140.818C115.064 140.537 114.464 139.998 114.107 139.304C113.431 137.881 114.336 136.037 116.169 135.397C124.657 132.431 133.9 132.431 142.387 135.397C144.216 136.032 145.12 137.881 144.45 139.304C144.09 139.993 143.492 140.529 142.766 140.809C142.041 141.09 141.238 141.096 140.508 140.828Z" fill="#263238"/>
<path opacity="0.4" d="M140.508 140.828C133.24 138.289 125.327 138.289 118.059 140.828C117.328 141.102 116.522 141.099 115.793 140.818C115.064 140.537 114.464 139.998 114.107 139.304C113.431 137.881 114.336 136.037 116.169 135.397C124.657 132.431 133.9 132.431 142.387 135.397C144.216 136.032 145.12 137.881 144.45 139.304C144.09 139.993 143.492 140.529 142.766 140.809C142.041 141.09 141.238 141.096 140.508 140.828Z" fill="#263238"/>
<path d="M137.063 207.234C137.063 207.742 136.913 208.239 136.63 208.662C136.348 209.084 135.946 209.414 135.477 209.608C135.007 209.803 134.49 209.854 133.992 209.755C133.493 209.655 133.035 209.411 132.675 209.051C132.316 208.692 132.071 208.234 131.972 207.735C131.873 207.236 131.924 206.72 132.118 206.25C132.313 205.78 132.642 205.379 133.065 205.096C133.488 204.814 133.985 204.663 134.493 204.663C135.175 204.663 135.829 204.934 136.311 205.416C136.793 205.898 137.063 206.552 137.063 207.234Z" fill="#263238"/>
<path d="M174.808 207.233C174.808 207.742 174.959 208.239 175.241 208.662C175.524 209.085 175.926 209.414 176.396 209.609C176.866 209.803 177.383 209.854 177.882 209.754C178.38 209.655 178.838 209.409 179.198 209.049C179.557 208.689 179.801 208.231 179.9 207.732C179.999 207.233 179.947 206.716 179.752 206.246C179.556 205.777 179.226 205.376 178.803 205.094C178.379 204.812 177.882 204.662 177.373 204.663C177.035 204.66 176.699 204.724 176.386 204.852C176.073 204.98 175.789 205.169 175.55 205.409C175.311 205.648 175.122 205.933 174.995 206.246C174.867 206.56 174.804 206.895 174.808 207.233Z" fill="#263238"/>
<path d="M152.547 206.411C152.547 206.92 152.699 207.418 152.983 207.842C153.267 208.265 153.67 208.594 154.141 208.788C154.613 208.982 155.131 209.031 155.631 208.929C156.13 208.827 156.588 208.58 156.946 208.217C157.304 207.855 157.547 207.394 157.643 206.893C157.738 206.392 157.683 205.875 157.484 205.406C157.284 204.936 156.95 204.537 156.524 204.258C156.097 203.98 155.597 203.834 155.087 203.84C154.411 203.848 153.765 204.122 153.289 204.604C152.814 205.085 152.547 205.734 152.547 206.411Z" fill="#263238"/>
<path d="M182.977 203.779C182.92 204.072 182.761 204.335 182.528 204.521C182.296 204.707 182.004 204.804 181.707 204.795L154.91 204.429L129.809 204.998C129.497 205.004 129.195 204.894 128.96 204.688C128.726 204.482 128.577 204.197 128.542 203.887C128.508 203.577 128.591 203.265 128.774 203.013C128.958 202.761 129.229 202.587 129.535 202.524L143.251 199.862C144.673 199.597 146.117 199.463 147.564 199.461H162.296C163.741 199.462 165.183 199.597 166.604 199.862L182.006 202.331C182.325 202.398 182.606 202.586 182.787 202.857C182.969 203.128 183.037 203.459 182.977 203.779Z" fill="#263238"/>
<path d="M159.461 177.089H150.348V203.327H159.461V177.089Z" fill="#263238"/>
<path d="M158.156 160.467H151.658V177.221H158.156V160.467Z" fill="#263238"/>
<path opacity="0.2" d="M151.658 163.571L158.156 165.207V160.467H151.658V163.571Z" fill="black"/>
<path d="M152.293 148.544V160.391H117.699C116.947 160.393 116.209 160.195 115.559 159.818C114.909 159.441 114.371 158.899 113.999 158.246C113.627 157.593 113.435 156.853 113.442 156.102C113.45 155.351 113.656 154.615 114.041 153.97C115.018 152.318 116.408 150.95 118.075 149.998C119.741 149.047 121.627 148.546 123.546 148.544H152.293Z" fill="#407BFF"/>
<path opacity="0.2" d="M152.293 148.544V160.391H117.699C116.947 160.393 116.209 160.195 115.559 159.818C114.909 159.441 114.371 158.899 113.999 158.246C113.627 157.593 113.435 156.853 113.442 156.102C113.45 155.351 113.656 154.615 114.041 153.97C115.018 152.318 116.408 150.95 118.075 149.998C119.741 149.047 121.627 148.546 123.546 148.544H152.293Z" fill="white"/>
<path d="M159.258 104.673C159.172 105.054 159.116 105.442 159.09 105.832L155.285 160.188H150.038L153.838 105.832C153.835 105.789 153.835 105.747 153.838 105.705L159.258 104.673Z" fill="#407BFF"/>
<path opacity="0.2" d="M159.258 104.673C159.172 105.054 159.116 105.442 159.09 105.832L155.285 160.188H150.038L153.838 105.832C153.835 105.789 153.835 105.747 153.838 105.705L159.258 104.673Z" fill="white"/>
<path d="M183.388 160.401V160.462H182.504C182.8 160.462 183.095 160.442 183.388 160.401Z" fill="#263238"/>
<path d="M195.072 104.328L195.133 97.8662C195.166 96.0775 194.528 94.3413 193.345 92.9995L189.53 88.6968L188.163 77.9323C188.068 77.1278 187.677 76.3875 187.067 75.8544C186.457 75.3214 185.671 75.0336 184.861 75.0468H175.382C174.618 75.0561 173.873 75.2897 173.241 75.7188C172.609 76.1478 172.117 76.7533 171.826 77.4598L167.046 89.0371L159.141 93.7057C158.143 94.291 157.276 95.075 156.594 96.0091C155.911 96.9432 155.428 98.0076 155.174 99.1362L153.731 105.74H153.843L159.248 104.724C159.161 105.105 159.105 105.493 159.08 105.882L155.275 160.238H185.029C185.326 160.239 185.623 160.218 185.918 160.177C187.411 159.949 188.784 159.222 189.813 158.116C190.842 157.009 191.467 155.588 191.587 154.081L194.991 105.369C195.014 105.021 195.014 104.671 194.991 104.323L195.072 104.328ZM170.205 100.218L160.955 101.092L160.553 101.133L161.834 96.9264L168.189 93.98L170.307 92.9945L170.642 93.98L170.698 94.1476L171.008 95.0569L170.205 100.218ZM188.382 100.33L187.249 100.035C187.249 99.6797 187.208 99.314 187.188 98.9533C187.071 96.9213 186.974 95.0417 186.974 95.0417L187.112 94.3762L187.396 92.9792L191.501 96.9315V101.138L188.382 100.33Z" fill="#407BFF"/>
</svg>
