<svg width="255" height="255" viewBox="0 0 255 255" fill="none" xmlns="http://www.w3.org/2000/svg">
<path d="M229.449 203.23H212.558V203.357H229.449V203.23Z" fill="#EBEBEB"/>
<path d="M168.922 204.617H164.49V204.745H168.922V204.617Z" fill="#EBEBEB"/>
<path d="M212.048 198.497H202.261V198.625H212.048V198.497Z" fill="#EBEBEB"/>
<path d="M48.7815 199.354H26.7546V199.482H48.7815V199.354Z" fill="#EBEBEB"/>
<path d="M56.5539 199.354H53.3256V199.482H56.5539V199.354Z" fill="#EBEBEB"/>
<path d="M114.826 201.506H67.0497V201.634H114.826V201.506Z" fill="#EBEBEB"/>
<path d="M120.87 172.278H22.3992C21.6269 172.278 20.8862 171.971 20.34 171.425C19.7939 170.879 19.4871 170.138 19.4871 169.366V30.9366C19.4938 30.1687 19.8036 29.4346 20.349 28.8939C20.8944 28.3533 21.6313 28.05 22.3992 28.05H120.87C121.642 28.05 122.383 28.3569 122.929 28.903C123.475 29.4491 123.782 30.1898 123.782 30.9621V169.366C123.782 170.138 123.475 170.879 122.929 171.425C122.383 171.971 121.642 172.278 120.87 172.278ZM22.3992 28.152C21.6611 28.1534 20.9536 28.4472 20.4317 28.9691C19.9098 29.4911 19.6159 30.1985 19.6146 30.9366V169.366C19.6159 170.104 19.9098 170.812 20.4317 171.333C20.9536 171.855 21.6611 172.149 22.3992 172.151H120.87C121.608 172.149 122.316 171.855 122.838 171.333C123.359 170.812 123.653 170.104 123.655 169.366V30.9366C123.653 30.1985 123.359 29.4911 122.838 28.9691C122.316 28.4472 121.608 28.1534 120.87 28.152H22.3992Z" fill="#EBEBEB"/>
<path d="M231.188 172.278H132.707C131.935 172.277 131.195 171.969 130.649 171.424C130.104 170.878 129.796 170.138 129.795 169.366V30.9366C129.803 30.1692 130.113 29.4358 130.658 28.8954C131.203 28.3551 131.94 28.0513 132.707 28.05H231.188C231.954 28.0527 232.689 28.3572 233.232 28.8975C233.775 29.4379 234.083 30.1705 234.09 30.9366V169.366C234.09 170.137 233.785 170.876 233.241 171.422C232.697 171.967 231.959 172.275 231.188 172.278ZM132.707 28.152C131.969 28.1534 131.261 28.4472 130.74 28.9691C130.218 29.4911 129.924 30.1985 129.922 30.9366V169.366C129.924 170.104 130.218 170.812 130.74 171.333C131.261 171.855 131.969 172.149 132.707 172.151H231.188C231.926 172.149 232.634 171.855 233.156 171.333C233.678 170.812 233.971 170.104 233.973 169.366V30.9366C233.971 30.1985 233.678 29.4911 233.156 28.9691C232.634 28.4472 231.926 28.1534 231.188 28.152H132.707Z" fill="#EBEBEB"/>
<path d="M255 195.024H0V195.152H255V195.024Z" fill="#EBEBEB"/>
<path d="M87.159 183.294H98.9757L92.7639 132.702C92.6146 131.644 92.095 130.674 91.2975 129.963C90.5 129.253 89.4763 128.848 88.4085 128.821H36.8475L44.4057 183.294H87.159Z" fill="#F5F5F5"/>
<path d="M49.6791 183.294H37.8624L31.6506 132.702C31.5743 132.216 31.6057 131.719 31.7427 131.246C31.8797 130.773 32.1189 130.336 32.4434 129.966C32.7679 129.595 33.1697 129.301 33.6205 129.103C34.0714 128.905 34.5601 128.809 35.0523 128.821H39.1323C40.1995 128.848 41.2225 129.253 42.0192 129.964C42.8158 130.674 43.3344 131.645 43.4826 132.702L49.6791 183.294Z" fill="#F0F0F0"/>
<path d="M54.06 183.233L51.918 158.753C51.8716 158.22 51.6436 157.72 51.2722 157.336C50.9008 156.951 50.4086 156.706 49.878 156.642L48.9957 156.529C48.2869 156.439 47.6304 156.109 47.135 155.594C46.6396 155.079 46.3352 154.411 46.2723 153.699L45.9 149.247C45.8642 148.818 45.9173 148.386 46.056 147.979C46.1948 147.571 46.4161 147.197 46.7063 146.879C46.9964 146.561 47.349 146.306 47.7421 146.131C48.1352 145.956 48.5602 145.864 48.9906 145.86H29.2434C28.8095 145.86 28.3802 145.95 27.983 146.125C27.5858 146.299 27.2293 146.555 26.9362 146.875C26.6431 147.195 26.4198 147.572 26.2805 147.983C26.1412 148.394 26.0891 148.83 26.1273 149.262L26.5149 153.724C26.576 154.437 26.8798 155.106 27.3755 155.622C27.8712 156.137 28.5288 156.466 29.2383 156.555L30.1155 156.667C30.6457 156.733 31.1375 156.978 31.5087 157.362C31.8799 157.746 32.1082 158.246 32.1555 158.778L34.2975 183.258C34.3776 184.116 34.7751 184.912 35.4119 185.491C36.0488 186.071 36.8791 186.391 37.74 186.39H57.477C56.6168 186.383 55.7901 186.056 55.1582 185.472C54.5264 184.888 54.1348 184.09 54.06 183.233Z" fill="#E6E6E6"/>
<path d="M108.38 152.638C108.546 150.786 109.399 149.063 110.771 147.809C112.144 146.554 113.936 145.859 115.795 145.86H98.5983C96.7374 145.861 94.9442 146.559 93.5725 147.816C92.2007 149.074 91.35 150.799 91.188 152.653L89.4897 172.033H106.687L108.38 152.638Z" fill="#E6E6E6"/>
<path d="M123.42 145.86H115.77C113.908 145.859 112.114 146.557 110.741 147.814C109.368 149.072 108.517 150.799 108.355 152.653L106.661 172.033H65.739L64.0407 152.653C63.8784 150.796 63.0248 149.067 61.6487 147.809C60.2726 146.551 58.4744 145.856 56.61 145.86H48.96C48.5322 145.868 48.1106 145.963 47.7211 146.14C47.3316 146.317 46.9827 146.572 46.6958 146.89C46.409 147.207 46.1904 147.58 46.0535 147.986C45.9166 148.391 45.8643 148.82 45.9 149.246L46.2876 153.709C46.3505 154.421 46.6549 155.089 47.1503 155.604C47.6457 156.119 48.3023 156.449 49.011 156.539L49.8933 156.652C50.4239 156.716 50.9161 156.961 51.2875 157.346C51.6589 157.73 51.8869 158.231 51.9333 158.763L54.0753 183.243C54.1505 184.104 54.5457 184.906 55.183 185.491C55.8202 186.075 56.6532 186.399 57.5178 186.4H114.944C115.808 186.399 116.641 186.075 117.279 185.491C117.916 184.906 118.311 184.104 118.386 183.243L120.528 158.763C120.576 158.231 120.804 157.731 121.175 157.347C121.546 156.963 122.038 156.717 122.568 156.652L123.446 156.539C124.155 156.451 124.813 156.122 125.308 155.606C125.804 155.091 126.108 154.421 126.169 153.709L126.557 149.246C126.593 148.814 126.538 148.378 126.397 147.968C126.255 147.557 126.03 147.181 125.735 146.862C125.44 146.543 125.081 146.29 124.683 146.117C124.284 145.945 123.854 145.857 123.42 145.86Z" fill="#F0F0F0"/>
<path d="M71.8743 98.2923C84.3774 98.2923 94.5132 88.1565 94.5132 75.6534C94.5132 63.1503 84.3774 53.0145 71.8743 53.0145C59.3712 53.0145 49.2354 63.1503 49.2354 75.6534C49.2354 88.1565 59.3712 98.2923 71.8743 98.2923Z" fill="#F5F5F5"/>
<path d="M71.8743 94.8498C82.4762 94.8498 91.0707 86.2553 91.0707 75.6534C91.0707 65.0516 82.4762 56.457 71.8743 56.457C61.2724 56.457 52.6779 65.0516 52.6779 75.6534C52.6779 86.2553 61.2724 94.8498 71.8743 94.8498Z" fill="#FAFAFA"/>
<path d="M71.8743 56.4571C71.5734 56.4571 71.2725 56.4571 70.9716 56.4571C75.9044 56.6846 80.5598 58.8044 83.9701 62.3757C87.3803 65.9469 89.2833 70.695 89.2833 75.6331C89.2833 80.5711 87.3803 85.3192 83.9701 88.8905C80.5598 92.4617 75.9044 94.5815 70.9716 94.8091C71.2725 94.8091 71.5734 94.8091 71.8743 94.8091C76.9655 94.8091 81.8482 92.7866 85.4482 89.1866C89.0482 85.5865 91.0707 80.7039 91.0707 75.6127C91.0707 70.5215 89.0482 65.6388 85.4482 62.0388C81.8482 58.4387 76.9655 56.4163 71.8743 56.4163V56.4571Z" fill="#E6E6E6"/>
<path d="M71.8794 94.8294C72.3639 94.8039 72.8433 94.758 73.3227 94.7019V77.0967H90.117C90.1527 76.6173 90.1731 76.1379 90.1731 75.6534C90.1731 75.1689 90.1731 74.6895 90.117 74.2101H73.3176V56.61C72.8382 56.5488 72.3588 56.5029 71.8743 56.4825H70.431V74.2152H52.6983V77.1018H70.431V94.8345L71.8794 94.8294Z" fill="#F0F0F0"/>
<path d="M70.431 56.4774H68.9877V74.2101H70.431V56.4774Z" fill="#E6E6E6"/>
<path d="M70.431 77.0968H68.9877V94.8295H70.431V77.0968Z" fill="#E6E6E6"/>
<path d="M183.126 98.2923C195.629 98.2923 205.765 88.1565 205.765 75.6534C205.765 63.1503 195.629 53.0145 183.126 53.0145C170.623 53.0145 160.487 63.1503 160.487 75.6534C160.487 88.1565 170.623 98.2923 183.126 98.2923Z" fill="#F5F5F5"/>
<path d="M183.126 94.8498C193.728 94.8498 202.322 86.2553 202.322 75.6534C202.322 65.0516 193.728 56.457 183.126 56.457C172.524 56.457 163.929 65.0516 163.929 75.6534C163.929 86.2553 172.524 94.8498 183.126 94.8498Z" fill="#FAFAFA"/>
<path d="M183.126 56.4571C182.825 56.4571 182.524 56.4571 182.228 56.4571C187.161 56.6846 191.816 58.8044 195.227 62.3757C198.637 65.9469 200.54 70.695 200.54 75.6331C200.54 80.5711 198.637 85.3192 195.227 88.8905C191.816 92.4617 187.161 94.5815 182.228 94.8091C182.524 94.8091 182.825 94.8091 183.126 94.8091C188.217 94.8091 193.1 92.7866 196.7 89.1866C200.3 85.5865 202.322 80.7039 202.322 75.6127C202.322 70.5215 200.3 65.6388 196.7 62.0388C193.1 58.4387 188.217 56.4163 183.126 56.4163V56.4571Z" fill="#E6E6E6"/>
<path d="M183.136 94.8294C183.646 94.8039 184.105 94.758 184.579 94.7019V77.0967H201.374C201.409 76.6173 201.435 76.1379 201.435 75.6534C201.435 75.1689 201.409 74.6895 201.374 74.2101H184.569V56.61C184.095 56.5488 183.615 56.5029 183.126 56.4825H181.682V74.2152H163.95V77.1018H181.682V94.8345L183.136 94.8294Z" fill="#F0F0F0"/>
<path d="M181.687 56.4774H180.244V74.2101H181.687V56.4774Z" fill="#E6E6E6"/>
<path d="M181.687 77.0968H180.244V94.8295H181.687V77.0968Z" fill="#E6E6E6"/>
<path d="M144.106 180.933H183.309V167.402H144.106V180.933Z" fill="#EBEBEB"/>
<path d="M144.106 194.468H183.309V180.938H144.106V194.468Z" fill="#EBEBEB"/>
<path d="M184.676 180.933H223.88V167.402H184.676V180.933Z" fill="#EBEBEB"/>
<path d="M184.676 194.468H223.88V180.938H184.676V194.468Z" fill="#EBEBEB"/>
<path d="M208.983 180.933L204.102 167.402H211.609L216.49 180.933H208.983Z" fill="#F0F0F0"/>
<path d="M200.471 167.402H202.118L206.999 180.933H205.346L200.471 167.402Z" fill="#F0F0F0"/>
<path d="M213.858 194.468L208.983 180.933H216.49L221.365 194.468H213.858Z" fill="#F0F0F0"/>
<path d="M205.346 180.933H206.999L211.874 194.468H210.227L205.346 180.933Z" fill="#F0F0F0"/>
<path d="M152.908 180.933L148.033 167.402H155.54L160.415 180.933H152.908Z" fill="#F0F0F0"/>
<path d="M144.401 167.402H146.049L150.924 180.933H149.277L144.401 167.402Z" fill="#F0F0F0"/>
<path d="M157.789 194.468L152.908 180.933H160.415L165.296 194.468H157.789Z" fill="#F0F0F0"/>
<path d="M149.277 180.933H150.924L155.805 194.468H154.153L149.277 180.933Z" fill="#F0F0F0"/>
<path d="M223.88 169.483V168.116H184.676V169.483H223.88Z" fill="#E0E0E0"/>
<path d="M223.88 182.906V181.54H184.676V182.906H223.88Z" fill="#E0E0E0"/>
<path d="M203.276 175.899C203.12 175.899 202.971 175.837 202.861 175.727C202.751 175.617 202.689 175.468 202.689 175.313C202.689 175.157 202.751 175.008 202.861 174.898C202.971 174.788 203.12 174.726 203.276 174.726H205.28C205.436 174.726 205.585 174.788 205.695 174.898C205.805 175.008 205.867 175.157 205.867 175.313C205.867 175.468 205.805 175.617 205.695 175.727C205.585 175.837 205.436 175.899 205.28 175.899H203.276Z" fill="#E0E0E0"/>
<path d="M203.276 175.695C203.194 175.703 203.111 175.693 203.033 175.667C202.955 175.641 202.883 175.599 202.822 175.543C202.762 175.488 202.713 175.42 202.68 175.345C202.647 175.27 202.629 175.188 202.629 175.106C202.629 175.024 202.647 174.942 202.68 174.867C202.713 174.792 202.762 174.724 202.822 174.669C202.883 174.613 202.955 174.571 203.033 174.545C203.111 174.519 203.194 174.509 203.276 174.517H205.28C205.427 174.531 205.563 174.599 205.663 174.708C205.762 174.817 205.817 174.959 205.817 175.106C205.817 175.253 205.762 175.396 205.663 175.504C205.563 175.613 205.427 175.681 205.28 175.695H203.276Z" fill="#F5F5F5"/>
<path d="M203.276 188.394C203.194 188.402 203.111 188.392 203.033 188.366C202.955 188.34 202.883 188.298 202.822 188.242C202.762 188.187 202.713 188.119 202.68 188.044C202.647 187.969 202.629 187.887 202.629 187.805C202.629 187.723 202.647 187.641 202.68 187.566C202.713 187.491 202.762 187.423 202.822 187.368C202.883 187.312 202.955 187.27 203.033 187.244C203.111 187.218 203.194 187.208 203.276 187.216H205.28C205.427 187.23 205.563 187.298 205.663 187.407C205.762 187.515 205.817 187.658 205.817 187.805C205.817 187.952 205.762 188.094 205.663 188.203C205.563 188.312 205.427 188.38 205.28 188.394H203.276Z" fill="#E0E0E0"/>
<path d="M203.276 188.19C203.194 188.198 203.111 188.188 203.033 188.162C202.955 188.136 202.883 188.094 202.822 188.038C202.762 187.983 202.713 187.915 202.68 187.84C202.647 187.765 202.629 187.683 202.629 187.601C202.629 187.519 202.647 187.437 202.68 187.362C202.713 187.287 202.762 187.219 202.822 187.164C202.883 187.108 202.955 187.066 203.033 187.04C203.111 187.014 203.194 187.004 203.276 187.012H205.28C205.427 187.026 205.563 187.094 205.663 187.203C205.762 187.312 205.817 187.454 205.817 187.601C205.817 187.748 205.762 187.89 205.663 187.999C205.563 188.108 205.427 188.176 205.28 188.19H203.276Z" fill="#F5F5F5"/>
<path d="M183.993 166.796V195.06H224.563V166.796H183.993ZM185.359 181.652H223.196V193.688H185.359V181.652ZM185.359 168.244H223.196V180.28H185.359V168.244Z" fill="#F5F5F5"/>
<path d="M183.309 169.483V168.116H144.106V169.483H183.309Z" fill="#E0E0E0"/>
<path d="M183.304 182.912V181.545H144.101V182.912H183.304Z" fill="#E0E0E0"/>
<path d="M162.69 175.899C162.534 175.899 162.385 175.837 162.275 175.727C162.165 175.617 162.104 175.468 162.104 175.313C162.104 175.157 162.165 175.008 162.275 174.898C162.385 174.788 162.534 174.726 162.69 174.726H164.73C164.886 174.726 165.035 174.788 165.145 174.898C165.255 175.008 165.317 175.157 165.317 175.313C165.317 175.468 165.255 175.617 165.145 175.727C165.035 175.837 164.886 175.899 164.73 175.899H162.69Z" fill="#E0E0E0"/>
<path d="M162.69 175.695C162.543 175.681 162.407 175.613 162.308 175.504C162.208 175.396 162.153 175.253 162.153 175.106C162.153 174.959 162.208 174.817 162.308 174.708C162.407 174.599 162.543 174.531 162.69 174.517H164.73C164.877 174.531 165.013 174.599 165.112 174.708C165.212 174.817 165.267 174.959 165.267 175.106C165.267 175.253 165.212 175.396 165.112 175.504C165.013 175.613 164.877 175.681 164.73 175.695H162.69Z" fill="#F5F5F5"/>
<path d="M162.69 188.394C162.543 188.38 162.407 188.312 162.308 188.203C162.208 188.094 162.153 187.952 162.153 187.805C162.153 187.658 162.208 187.515 162.308 187.407C162.407 187.298 162.543 187.23 162.69 187.216H164.73C164.877 187.23 165.013 187.298 165.112 187.407C165.212 187.515 165.267 187.658 165.267 187.805C165.267 187.952 165.212 188.094 165.112 188.203C165.013 188.312 164.877 188.38 164.73 188.394H162.69Z" fill="#E0E0E0"/>
<path d="M162.69 188.19C162.543 188.176 162.407 188.108 162.308 187.999C162.208 187.891 162.153 187.748 162.153 187.601C162.153 187.454 162.208 187.312 162.308 187.203C162.407 187.094 162.543 187.026 162.69 187.012H164.73C164.877 187.026 165.013 187.094 165.112 187.203C165.212 187.312 165.267 187.454 165.267 187.601C165.267 187.748 165.212 187.891 165.112 187.999C165.013 188.108 164.877 188.176 164.73 188.19H162.69Z" fill="#F5F5F5"/>
<path d="M143.417 166.796V195.06H183.993V166.796H143.417ZM144.789 181.652H182.621V193.688H144.789V181.652ZM144.789 168.244H182.621V180.28H144.789V168.244Z" fill="#F5F5F5"/>
<path d="M201.45 164.562H195.401L193.999 158.61H191.576L190.179 164.562H184.11C183.864 164.561 183.62 164.609 183.392 164.703C183.164 164.797 182.958 164.934 182.783 165.108C182.609 165.282 182.471 165.489 182.376 165.716C182.282 165.943 182.233 166.187 182.233 166.434V166.796H203.317V166.434C203.317 165.938 203.12 165.463 202.77 165.112C202.42 164.761 201.946 164.563 201.45 164.562Z" fill="#E0E0E0"/>
<path d="M219.606 126.959H165.979V161.67H219.606V126.959Z" fill="#E0E0E0"/>
<path d="M218.586 127.979H167V159.12H218.586V127.979Z" fill="#F5F5F5"/>
<path d="M195.432 159.12H214.409L203.184 127.979H184.207L195.432 159.12Z" fill="#FAFAFA"/>
<path d="M186.247 159.12H190.419L179.194 127.979H175.022L186.247 159.12Z" fill="#FAFAFA"/>
<path d="M112.644 195.085H58.9764V185.88H114.174L112.644 195.085Z" fill="#F5F5F5"/>
<path d="M63.3369 195.152H39.5199L38.4999 185.88H62.3169L63.3369 195.152Z" fill="#E0E0E0"/>
<path d="M125.042 216.092C179.654 216.092 223.926 213.507 223.926 210.319C223.926 207.13 179.654 204.546 125.042 204.546C70.4297 204.546 26.1579 207.13 26.1579 210.319C26.1579 213.507 70.4297 216.092 125.042 216.092Z" fill="#F5F5F5"/>
<path d="M191.342 209.595H188.899L188.363 172.324H191.877L191.342 209.595Z" fill="#263238"/>
<path opacity="0.5" d="M191.342 209.595H188.899L188.363 172.324H191.877L191.342 209.595Z" fill="white"/>
<path d="M169.769 209.595H167.321L166.79 172.324H170.304L169.769 209.595Z" fill="#263238"/>
<path opacity="0.5" d="M169.769 209.595H167.321L166.79 172.324H170.304L169.769 209.595Z" fill="white"/>
<path d="M164.761 209.595H162.318L161.782 172.324H165.296L164.761 209.595Z" fill="#263238"/>
<path opacity="0.5" d="M164.761 209.595H162.318L161.782 172.324H165.296L164.761 209.595Z" fill="white"/>
<path d="M143.188 209.595H140.74L140.209 172.324H143.723L143.188 209.595Z" fill="#263238"/>
<path opacity="0.5" d="M143.188 209.595H140.74L140.209 172.324H143.723L143.188 209.595Z" fill="white"/>
<path d="M179.622 173.181H139.97C139.54 173.181 139.115 173.096 138.718 172.932C138.322 172.768 137.961 172.527 137.658 172.223C137.354 171.92 137.114 171.559 136.949 171.163C136.785 170.766 136.7 170.341 136.7 169.912V165.556C136.702 164.69 137.047 163.86 137.66 163.248C138.273 162.636 139.103 162.292 139.97 162.292H175.078L178.102 133.518C178.308 131.833 179.114 130.278 180.373 129.139C181.632 128 183.259 127.353 184.957 127.316H199.69L196.172 138.057L192.959 162.114L190.699 168.835L179.622 173.181Z" fill="#407BFF"/>
<path opacity="0.2" d="M179.622 173.181H139.97C139.54 173.181 139.115 173.096 138.718 172.932C138.322 172.768 137.961 172.527 137.658 172.223C137.354 171.92 137.114 171.559 136.949 171.163C136.785 170.766 136.7 170.341 136.7 169.912V165.556C136.702 164.69 137.047 163.86 137.66 163.248C138.273 162.636 139.103 162.292 139.97 162.292H175.078L178.102 133.518C178.308 131.833 179.114 130.278 180.373 129.139C181.632 128 183.259 127.353 184.957 127.316H199.69L196.172 138.057L192.959 162.114L190.699 168.835L179.622 173.181Z" fill="black"/>
<path d="M200.909 127.316H197.967C196.27 127.353 194.643 128 193.385 129.14C192.127 130.279 191.322 131.833 191.117 133.518L188.093 162.292H166.459C165.594 162.294 164.764 162.638 164.152 163.25C163.541 163.862 163.196 164.691 163.195 165.556V169.912C163.195 170.778 163.539 171.608 164.151 172.221C164.763 172.834 165.593 173.179 166.459 173.181H192.632C193.626 173.181 194.584 172.813 195.323 172.148C196.061 171.483 196.527 170.568 196.631 169.58L200.058 136.971C201.43 136.943 202.742 136.401 203.734 135.451C204.726 134.502 205.325 133.215 205.413 131.845C205.424 131.25 205.315 130.658 205.093 130.105C204.871 129.552 204.54 129.05 204.12 128.627C203.7 128.205 203.199 127.871 202.648 127.646C202.096 127.421 201.505 127.309 200.909 127.316Z" fill="#407BFF"/>
<path d="M144.034 194.198L145.733 205.295L149.236 204.995L148.747 193.795L144.034 194.198Z" fill="#EBB376"/>
<path d="M149.359 200.654C149.359 200.654 149.527 203.521 150.215 204.949C150.904 206.377 151.858 208.274 149.527 208.483C148.15 208.605 145.743 209.177 143.106 209.432C141.285 209.605 138.791 209.432 138.705 208.468C138.603 207.351 145.059 205.01 145.034 203.934C145.008 202.858 144.718 201.001 144.718 201.001L149.359 200.654Z" fill="#263238"/>
<path opacity="0.1" d="M149.359 200.654C149.359 200.654 149.527 203.521 150.215 204.949C150.904 206.377 151.858 208.274 149.527 208.483C148.15 208.605 145.743 209.177 143.106 209.432C141.285 209.605 138.791 209.432 138.705 208.468C138.603 207.351 145.059 205.01 145.034 203.934C145.008 202.858 144.718 201.001 144.718 201.001L149.359 200.654Z" fill="white"/>
<path d="M166.867 141.408L165.918 149.302C165.918 149.302 138.975 151.669 137.44 158.406C135.986 164.812 143.937 197.334 143.937 197.334L149.318 196.799C149.318 196.799 150.068 171.651 147.711 162.68C147.711 162.68 168.193 162.527 175.022 162.68C178.082 162.751 185.931 162.649 183.988 153.724C181.774 143.524 179.433 141.408 179.433 141.408L179.352 136.94H167.112L166.867 141.408Z" fill="#407BFF"/>
<path opacity="0.2" d="M166.867 141.408L165.918 149.302C165.918 149.302 138.975 151.669 137.44 158.406C135.986 164.812 143.937 197.334 143.937 197.334L149.318 196.799C149.318 196.799 150.068 171.651 147.711 162.68C147.711 162.68 168.193 162.527 175.022 162.68C178.082 162.751 185.931 162.649 183.988 153.724C181.774 143.524 179.433 141.408 179.433 141.408L179.352 136.94H167.112L166.867 141.408Z" fill="white"/>
<path d="M143.417 197.472L143.866 198.793C143.908 198.912 143.989 199.013 144.095 199.081C144.201 199.15 144.327 199.181 144.452 199.17L149.15 198.737C149.281 198.725 149.404 198.668 149.497 198.575C149.591 198.481 149.648 198.358 149.66 198.227L149.746 196.86C149.75 196.779 149.737 196.698 149.707 196.623C149.677 196.548 149.631 196.48 149.573 196.423C149.514 196.367 149.444 196.324 149.368 196.298C149.291 196.271 149.21 196.261 149.129 196.268L143.896 196.748C143.814 196.756 143.734 196.783 143.663 196.826C143.592 196.869 143.531 196.927 143.485 196.996C143.439 197.066 143.409 197.144 143.398 197.226C143.386 197.309 143.392 197.393 143.417 197.472Z" fill="#407BFF"/>
<path opacity="0.6" d="M143.417 197.472L143.866 198.793C143.908 198.912 143.989 199.013 144.095 199.081C144.201 199.15 144.327 199.181 144.452 199.17L149.15 198.737C149.281 198.725 149.404 198.668 149.497 198.575C149.591 198.481 149.648 198.358 149.66 198.227L149.746 196.86C149.75 196.779 149.737 196.698 149.707 196.623C149.677 196.548 149.631 196.48 149.573 196.423C149.514 196.367 149.444 196.324 149.368 196.298C149.291 196.271 149.21 196.261 149.129 196.268L143.896 196.748C143.814 196.756 143.734 196.783 143.663 196.826C143.592 196.869 143.531 196.927 143.485 196.996C143.439 197.066 143.409 197.144 143.398 197.226C143.386 197.309 143.392 197.393 143.417 197.472Z" fill="white"/>
<path d="M154.357 193.973L155.106 205.178H158.62L159.089 193.973H154.357Z" fill="#EBB376"/>
<path d="M159.023 201.781C159.023 201.781 158.931 204.653 159.492 206.137C160.053 207.621 160.834 209.595 158.472 209.595C157.095 209.595 154.652 209.625 152.046 209.431C150.221 209.299 147.696 209.595 147.696 208.61C147.696 207.488 154.525 205.668 154.591 204.597C154.658 203.526 154.591 201.72 154.591 201.72L159.023 201.781Z" fill="#263238"/>
<path d="M171.085 141.408L170.223 149.302C170.223 149.302 153.464 151.582 150.776 155.596C148.089 159.61 154.402 199.104 154.402 199.104H159.089C162.435 177.174 160.696 162.649 160.696 162.649H181.713C195.1 162.649 183.187 141.408 183.187 141.408L183.238 136.716L170.85 137.43L171.085 141.408Z" fill="#407BFF"/>
<path opacity="0.3" d="M171.085 141.408L170.223 149.302C170.223 149.302 153.464 151.582 150.776 155.596C148.089 159.61 154.402 199.104 154.402 199.104H159.089C162.435 177.174 160.696 162.649 160.696 162.649H181.713C195.1 162.649 183.187 141.408 183.187 141.408L183.238 136.716L170.85 137.43L171.085 141.408Z" fill="white"/>
<path d="M153.546 198.339L153.898 199.782C153.925 199.896 153.99 199.998 154.083 200.069C154.176 200.141 154.29 200.178 154.408 200.175H159.074C159.193 200.178 159.309 200.139 159.402 200.065C159.495 199.992 159.559 199.888 159.584 199.772L159.895 198.324C159.912 198.248 159.912 198.169 159.894 198.094C159.876 198.018 159.841 197.948 159.792 197.888C159.743 197.828 159.681 197.78 159.61 197.748C159.54 197.715 159.463 197.7 159.385 197.701H154.051C153.972 197.7 153.894 197.716 153.822 197.75C153.751 197.783 153.689 197.833 153.64 197.895C153.591 197.956 153.557 198.029 153.541 198.106C153.524 198.183 153.526 198.263 153.546 198.339Z" fill="#407BFF"/>
<path opacity="0.6" d="M153.546 198.339L153.898 199.782C153.925 199.896 153.99 199.998 154.083 200.069C154.176 200.141 154.29 200.178 154.408 200.175H159.074C159.193 200.178 159.309 200.139 159.402 200.065C159.495 199.992 159.559 199.888 159.584 199.772L159.895 198.324C159.912 198.248 159.912 198.169 159.894 198.094C159.876 198.018 159.841 197.948 159.792 197.888C159.743 197.828 159.681 197.78 159.61 197.748C159.54 197.715 159.463 197.7 159.385 197.701H154.051C153.972 197.7 153.894 197.716 153.822 197.75C153.751 197.783 153.689 197.833 153.64 197.895C153.591 197.956 153.557 198.029 153.541 198.106C153.524 198.183 153.526 198.263 153.546 198.339Z" fill="white"/>
<path d="M147.018 136.904L143.223 137.644L139.653 136.598C139.159 136.531 138.655 136.592 138.191 136.775C137.727 136.958 137.317 137.257 137.001 137.644C136.484 138.261 136.203 139.042 136.206 139.847V139.985H143.545L147.528 139.449L147.018 136.904Z" fill="#EBB376"/>
<path d="M167.52 114.959C167.514 114.784 167.456 114.615 167.355 114.473C167.253 114.331 167.112 114.222 166.948 114.16C166.785 114.098 166.606 114.085 166.436 114.124C166.265 114.163 166.11 114.251 165.99 114.378C164.766 115.581 163.006 116.994 162.185 124.578C161.129 134.344 144.845 136.767 144.845 136.767L145.62 140.337C145.62 140.337 157.616 140.745 162.583 135.563C169.009 128.908 168.071 118.917 167.52 114.959Z" fill="#407BFF"/>
<path opacity="0.2" d="M167.52 114.959C167.514 114.784 167.456 114.615 167.355 114.473C167.253 114.331 167.112 114.222 166.948 114.16C166.785 114.098 166.606 114.085 166.436 114.124C166.265 114.163 166.11 114.251 165.99 114.378C164.766 115.581 163.006 116.994 162.185 124.578C161.129 134.344 144.845 136.767 144.845 136.767L145.62 140.337C145.62 140.337 157.616 140.745 162.583 135.563C169.009 128.908 168.071 118.917 167.52 114.959Z" fill="white"/>
<path d="M182.116 99.195C180.642 89.3163 172.324 92.8761 172.324 92.8761C166.949 94.8141 168.754 101.49 168.754 105.116C168.754 108.742 168.295 109.997 168.295 109.997C168.917 109.859 169.493 109.742 170.049 109.63L170.243 108.492L170.58 109.512C175.098 108.65 177.536 108.661 178.852 108.936C179.222 108.262 179.489 107.537 179.642 106.784C179.642 106.784 180.285 107.202 179.642 109.181C180.423 109.533 180.387 109.987 180.387 109.987C180.387 109.987 183.6 109.074 182.116 99.195Z" fill="#263238"/>
<path d="M187.226 113.812L167.79 113.582C167.336 113.575 166.894 113.73 166.544 114.018C166.194 114.307 165.957 114.711 165.878 115.158C163.583 127.847 165.148 127.398 165.148 127.398L166.127 142.927H168.3C168.936 142.928 169.552 142.708 170.044 142.306C170.536 141.903 170.873 141.342 170.998 140.719L171.217 139.628L171.794 141.158C171.989 141.677 172.337 142.125 172.793 142.443C173.248 142.761 173.788 142.933 174.344 142.938H184.263C183.11 131.014 186.89 119.508 188.205 115.209C188.257 115.052 188.271 114.884 188.247 114.721C188.223 114.557 188.16 114.401 188.065 114.265C187.97 114.13 187.845 114.018 187.699 113.939C187.554 113.86 187.392 113.817 187.226 113.812Z" fill="#407BFF"/>
<path opacity="0.4" d="M187.226 113.812L167.79 113.582C167.336 113.575 166.894 113.73 166.544 114.018C166.194 114.307 165.957 114.711 165.878 115.158C163.583 127.847 165.148 127.398 165.148 127.398L166.127 142.927H168.3C168.936 142.928 169.552 142.708 170.044 142.306C170.536 141.903 170.873 141.342 170.998 140.719L171.217 139.628L171.794 141.158C171.989 141.677 172.337 142.125 172.793 142.443C173.248 142.761 173.788 142.933 174.344 142.938H184.263C183.11 131.014 186.89 119.508 188.205 115.209C188.257 115.052 188.271 114.884 188.247 114.721C188.223 114.557 188.16 114.401 188.065 114.265C187.97 114.13 187.845 114.018 187.699 113.939C187.554 113.86 187.392 113.817 187.226 113.812Z" fill="white"/>
<path d="M144.33 136.711L145.049 140.474C145.075 140.603 145.145 140.718 145.248 140.8C145.351 140.881 145.479 140.923 145.61 140.918L146.334 140.888C146.41 140.884 146.484 140.865 146.552 140.831C146.62 140.797 146.68 140.749 146.728 140.69C146.776 140.631 146.811 140.563 146.831 140.49C146.851 140.417 146.856 140.34 146.844 140.265L146.248 136.257C146.237 136.178 146.208 136.102 146.165 136.035C146.122 135.968 146.064 135.912 145.997 135.87C145.929 135.827 145.853 135.8 145.774 135.79C145.695 135.781 145.615 135.788 145.539 135.813L144.687 136.088C144.563 136.132 144.459 136.219 144.393 136.333C144.328 136.448 144.305 136.581 144.33 136.711Z" fill="#407BFF"/>
<path opacity="0.6" d="M144.33 136.711L145.049 140.474C145.075 140.603 145.145 140.718 145.248 140.8C145.351 140.881 145.479 140.923 145.61 140.918L146.334 140.888C146.41 140.884 146.484 140.865 146.552 140.831C146.62 140.797 146.68 140.749 146.728 140.69C146.776 140.631 146.811 140.563 146.831 140.49C146.851 140.417 146.856 140.34 146.844 140.265L146.248 136.257C146.237 136.178 146.208 136.102 146.165 136.035C146.122 135.968 146.064 135.912 145.997 135.87C145.929 135.827 145.853 135.8 145.774 135.79C145.695 135.781 145.615 135.788 145.539 135.813L144.687 136.088C144.563 136.132 144.459 136.219 144.393 136.333C144.328 136.448 144.305 136.581 144.33 136.711Z" fill="white"/>
<path d="M177.99 104.377C177.704 106.978 177.613 111.7 179.551 113.251C179.551 113.251 178.811 115.877 173.828 116.367C170.289 114.806 171.605 113.939 171.605 113.939C174.395 112.996 174.665 110.905 174.032 108.961L177.99 104.377Z" fill="#EBB376"/>
<path opacity="0.1" d="M177.551 107.268L176.531 107.003L175.267 107.513L174.022 108.951C174.189 109.445 174.284 109.96 174.303 110.481C177.047 110.063 177.551 107.268 177.551 107.268Z" fill="black"/>
<path d="M179.816 98.6289C179.938 102.918 180.086 104.749 178.133 107.115C175.19 110.685 169.896 109.92 168.489 105.754C167.224 102.005 167.229 95.625 171.248 93.5442C172.134 93.0823 173.123 92.8547 174.122 92.8828C175.121 92.911 176.095 93.194 176.954 93.705C177.812 94.2161 178.526 94.9381 179.027 95.8026C179.528 96.6671 179.799 97.6452 179.816 98.6442V98.6289Z" fill="#EBB376"/>
<path d="M181.132 101.908C180.968 102.722 180.487 103.438 179.795 103.897C178.872 104.499 178.082 103.754 178.061 102.709C178.061 101.776 178.505 100.332 179.561 100.159C179.792 100.126 180.027 100.151 180.246 100.231C180.466 100.311 180.661 100.444 180.817 100.618C180.972 100.793 181.082 101.002 181.137 101.229C181.192 101.456 181.19 101.692 181.132 101.918V101.908Z" fill="#EBB376"/>
<path d="M170.631 101.266C170.396 102.085 170.053 102.868 169.611 103.596C169.798 103.708 170.008 103.776 170.224 103.797C170.441 103.818 170.66 103.792 170.865 103.719L170.631 101.266Z" fill="#D58745"/>
<path d="M173.512 98.8125C173.542 98.8035 173.569 98.7857 173.589 98.7615C173.62 98.7293 173.637 98.6863 173.637 98.6417C173.637 98.597 173.62 98.5541 173.589 98.5218C173.359 98.3017 173.08 98.1404 172.774 98.0516C172.469 97.9628 172.146 97.9492 171.834 98.0118C171.791 98.0238 171.753 98.0524 171.731 98.0915C171.708 98.1305 171.701 98.177 171.712 98.2209C171.723 98.2642 171.75 98.3014 171.789 98.3243C171.827 98.3473 171.873 98.3541 171.916 98.3433C172.175 98.2977 172.442 98.3141 172.693 98.3912C172.945 98.4684 173.175 98.604 173.364 98.787C173.386 98.8018 173.41 98.8117 173.435 98.8161C173.461 98.8205 173.487 98.8193 173.512 98.8125Z" fill="#2E353A"/>
<path d="M167.525 99.195C167.495 99.1895 167.467 99.1772 167.443 99.1593C167.426 99.1454 167.411 99.1282 167.4 99.1085C167.389 99.0888 167.382 99.0672 167.38 99.0449C167.378 99.0225 167.38 98.9999 167.386 98.9784C167.393 98.9569 167.403 98.9369 167.418 98.9196C167.614 98.6679 167.868 98.4671 168.158 98.3339C168.449 98.2008 168.766 98.1393 169.085 98.1546C169.13 98.161 169.17 98.1842 169.197 98.2193C169.225 98.2545 169.238 98.2989 169.233 98.3433C169.228 98.3871 169.206 98.4271 169.172 98.4548C169.137 98.4825 169.094 98.4955 169.05 98.4912C168.786 98.483 168.524 98.5375 168.286 98.6501C168.047 98.7626 167.839 98.9302 167.678 99.1389C167.659 99.1609 167.636 99.1776 167.609 99.1874C167.582 99.1973 167.553 99.1999 167.525 99.195Z" fill="#2E353A"/>
<path d="M173.028 100.47C173.063 100.817 172.9 101.113 172.671 101.138C172.441 101.164 172.237 100.898 172.207 100.547C172.176 100.195 172.334 99.9039 172.559 99.8784C172.783 99.8529 172.997 100.118 173.028 100.47Z" fill="#2E353A"/>
<path d="M169.101 100.827C169.136 101.169 168.973 101.47 168.749 101.49C168.524 101.51 168.315 101.245 168.28 100.898C168.244 100.552 168.407 100.256 168.632 100.235C168.856 100.215 169.075 100.47 169.101 100.827Z" fill="#2E353A"/>
<path d="M168.734 100.24L167.882 100.077C167.882 100.077 168.366 100.689 168.734 100.24Z" fill="#2E353A"/>
<path d="M172.66 99.8835L171.809 99.7203C171.809 99.7203 172.293 100.332 172.66 99.8835Z" fill="#2E353A"/>
<path d="M170.651 105.096C171.174 105.161 171.705 105.106 172.203 104.935C172.701 104.765 173.154 104.483 173.528 104.111C173.528 104.111 174.803 106.432 171.365 106.809C171.31 106.178 171.061 105.579 170.651 105.096Z" fill="#263238"/>
<path d="M170.957 105.121L171.207 105.631C171.207 105.631 172.829 105.631 173.691 104.514C173.65 104.368 173.595 104.227 173.528 104.091C173.193 104.431 172.793 104.698 172.35 104.875C171.908 105.052 171.433 105.136 170.957 105.121Z" fill="white"/>
<path d="M171.6 106.774C173.283 106.529 173.721 105.754 173.757 105.131C172.094 105.57 171.692 106.401 171.6 106.774Z" fill="#DE5753"/>
<path d="M172.324 95.217C172.014 95.7923 171.572 96.2862 171.035 96.6585C170.498 97.0307 169.881 97.2708 169.233 97.359C166.918 97.7619 167.744 103.805 167.744 103.805C167.744 103.805 162.741 91.6062 173.635 92.4732L172.324 95.217Z" fill="#263238"/>
<path d="M173.91 92.7078C173.729 92.6664 173.541 92.6634 173.358 92.6987C173.176 92.7341 173.003 92.8072 172.85 92.9133C172.698 93.0193 172.569 93.1561 172.472 93.3148C172.375 93.4735 172.313 93.6506 172.288 93.8349C172.161 94.8549 172.375 96.1299 174.022 96.6603C176.934 97.5936 176.664 100.674 176.664 100.674L177.174 98.3892C177.174 98.3892 177.337 101.653 178.979 101.266C180.622 100.878 180.785 97.7976 180.785 97.7976L178.072 93.6462L173.91 92.7078Z" fill="#263238"/>
<path d="M172.064 113.103C172.101 113.087 172.142 113.083 172.182 113.089C172.222 113.096 172.259 113.113 172.29 113.14C172.32 113.166 172.343 113.2 172.355 113.239C172.368 113.277 172.369 113.318 172.36 113.358C172.166 114.199 171.998 116.025 174.216 116.025C176.435 116.025 178.429 114.215 179.28 113.342C179.41 113.21 179.576 113.118 179.757 113.079C179.939 113.04 180.128 113.055 180.3 113.123L180.882 113.353C180.943 113.377 180.998 113.415 181.044 113.463C181.089 113.511 181.123 113.568 181.144 113.631C181.165 113.693 181.172 113.76 181.165 113.825C181.157 113.891 181.135 113.954 181.101 114.011C180.117 115.643 176.588 120.845 173.737 116.627C173.737 116.627 172.079 119.177 171.059 116.897C170.684 116.036 170.603 115.075 170.83 114.164C170.878 113.962 170.975 113.775 171.111 113.62C171.248 113.464 171.421 113.344 171.615 113.271L172.064 113.103Z" fill="#407BFF"/>
<path opacity="0.6" d="M172.064 113.103C172.101 113.087 172.142 113.083 172.182 113.089C172.222 113.096 172.259 113.113 172.29 113.14C172.32 113.166 172.343 113.2 172.355 113.239C172.368 113.277 172.369 113.318 172.36 113.358C172.166 114.199 171.998 116.025 174.216 116.025C176.435 116.025 178.429 114.215 179.28 113.342C179.41 113.21 179.576 113.118 179.757 113.079C179.939 113.04 180.128 113.055 180.3 113.123L180.882 113.353C180.943 113.377 180.998 113.415 181.044 113.463C181.089 113.511 181.123 113.568 181.144 113.631C181.165 113.693 181.172 113.76 181.165 113.825C181.157 113.891 181.135 113.954 181.101 114.011C180.117 115.643 176.588 120.845 173.737 116.627C173.737 116.627 172.079 119.177 171.059 116.897C170.684 116.036 170.603 115.075 170.83 114.164C170.878 113.962 170.975 113.775 171.111 113.62C171.248 113.464 171.421 113.344 171.615 113.271L172.064 113.103Z" fill="white"/>
<path d="M162.083 116.188C162.152 116.135 162.231 116.097 162.315 116.076C162.399 116.055 162.487 116.051 162.572 116.065C162.658 116.079 162.74 116.111 162.812 116.158C162.885 116.205 162.948 116.267 162.996 116.339C163.044 116.411 163.076 116.492 163.092 116.578C163.107 116.663 163.104 116.751 163.084 116.835C163.064 116.92 163.027 116.999 162.975 117.069C162.923 117.138 162.857 117.196 162.782 117.239L153.556 123.359C153.487 123.404 153.41 123.436 153.328 123.451C153.247 123.467 153.164 123.467 153.083 123.45C152.919 123.417 152.776 123.32 152.684 123.18C152.592 123.041 152.559 122.871 152.592 122.707C152.626 122.544 152.723 122.4 152.862 122.308L162.083 116.188Z" fill="#263238"/>
<path opacity="0.6" d="M162.083 116.188C162.152 116.135 162.231 116.097 162.315 116.076C162.399 116.055 162.487 116.051 162.572 116.065C162.658 116.079 162.74 116.111 162.812 116.158C162.885 116.205 162.948 116.267 162.996 116.339C163.044 116.411 163.076 116.492 163.092 116.578C163.107 116.663 163.104 116.751 163.084 116.835C163.064 116.92 163.027 116.999 162.975 117.069C162.923 117.138 162.857 117.196 162.782 117.239L153.556 123.359C153.487 123.404 153.41 123.436 153.328 123.451C153.247 123.467 153.164 123.467 153.083 123.45C152.919 123.417 152.776 123.32 152.684 123.18C152.592 123.041 152.559 122.871 152.592 122.707C152.626 122.544 152.723 122.4 152.862 122.308L162.083 116.188Z" fill="white"/>
<path d="M152.862 122.293C152.57 122.596 152.323 122.94 152.128 123.313C152.11 123.345 152.1 123.382 152.102 123.419C152.103 123.456 152.115 123.492 152.136 123.522C152.156 123.553 152.185 123.578 152.219 123.593C152.253 123.608 152.29 123.614 152.327 123.609C152.747 123.577 153.161 123.486 153.556 123.338C153.625 123.293 153.684 123.234 153.731 123.166C153.777 123.097 153.809 123.02 153.826 122.939C153.842 122.858 153.843 122.775 153.827 122.694C153.811 122.613 153.78 122.535 153.734 122.466C153.689 122.397 153.63 122.338 153.562 122.292C153.493 122.245 153.416 122.213 153.335 122.196C153.254 122.18 153.171 122.179 153.09 122.195C153.009 122.211 152.931 122.242 152.862 122.288V122.293Z" fill="#263238"/>
<path opacity="0.8" d="M152.862 122.293C152.57 122.596 152.323 122.94 152.128 123.313C152.11 123.345 152.1 123.382 152.102 123.419C152.103 123.456 152.115 123.492 152.136 123.522C152.156 123.553 152.185 123.578 152.219 123.593C152.253 123.608 152.29 123.614 152.327 123.609C152.747 123.577 153.161 123.486 153.556 123.338C153.625 123.293 153.684 123.234 153.731 123.166C153.777 123.097 153.809 123.02 153.826 122.939C153.842 122.858 153.843 122.775 153.827 122.694C153.811 122.613 153.78 122.535 153.734 122.466C153.689 122.397 153.63 122.338 153.562 122.292C153.493 122.245 153.416 122.213 153.335 122.196C153.254 122.18 153.171 122.179 153.09 122.195C153.009 122.211 152.931 122.242 152.862 122.288V122.293Z" fill="white"/>
<path d="M165.602 126.368L161.578 123.547L160.65 119.687C160.564 119.314 160.375 118.973 160.105 118.702C159.834 118.432 159.493 118.243 159.12 118.157C158.637 118.047 158.13 118.117 157.695 118.353C157.259 118.59 156.925 118.977 156.754 119.442L156.443 120.278C156.359 120.505 156.316 120.745 156.315 120.987V121.696C156.315 122.206 156.506 122.697 156.85 123.073L157.401 123.675C157.549 123.835 157.721 123.971 157.911 124.078L160.298 125.409L164.067 129.173L165.602 126.368Z" fill="#EBB376"/>
<path d="M186.181 114.934C186.271 114.678 186.427 114.451 186.632 114.275C186.837 114.098 187.085 113.978 187.351 113.926C187.616 113.875 187.891 113.894 188.147 113.981C188.404 114.068 188.633 114.221 188.812 114.424C189.664 115.474 190.154 117.484 188.7 121.446C185.798 129.326 181.178 135.512 175.389 135.512C168.524 135.512 161.578 127.566 161.578 127.566L163.985 124.731C163.985 124.731 170.957 129.458 175.608 129.458C178.265 129.479 182.58 124.318 186.181 114.934Z" fill="#407BFF"/>
<path opacity="0.2" d="M186.181 114.934C186.271 114.678 186.427 114.451 186.632 114.275C186.837 114.098 187.085 113.978 187.351 113.926C187.616 113.875 187.891 113.894 188.147 113.981C188.404 114.068 188.633 114.221 188.812 114.424C189.664 115.474 190.154 117.484 188.7 121.446C185.798 129.326 181.178 135.512 175.389 135.512C168.524 135.512 161.578 127.566 161.578 127.566L163.985 124.731C163.985 124.731 170.957 129.458 175.608 129.458C178.265 129.479 182.58 124.318 186.181 114.934Z" fill="white"/>
<path d="M160.976 127.276L163.69 124.001C163.735 123.946 163.801 123.911 163.872 123.902C163.943 123.894 164.015 123.913 164.072 123.955L165.235 124.802C165.266 124.825 165.293 124.853 165.312 124.887C165.332 124.92 165.345 124.957 165.349 124.995C165.354 125.033 165.351 125.072 165.34 125.109C165.329 125.146 165.311 125.181 165.286 125.21L162.226 128.887C162.198 128.922 162.162 128.949 162.122 128.967C162.081 128.985 162.037 128.993 161.992 128.99C161.948 128.988 161.905 128.975 161.867 128.953C161.828 128.93 161.796 128.899 161.772 128.862L160.946 127.612C160.914 127.56 160.9 127.499 160.906 127.439C160.911 127.378 160.936 127.321 160.976 127.276Z" fill="#407BFF"/>
<path opacity="0.6" d="M160.976 127.276L163.69 124.001C163.735 123.946 163.801 123.911 163.872 123.902C163.943 123.894 164.015 123.913 164.072 123.955L165.235 124.802C165.266 124.825 165.293 124.853 165.312 124.887C165.332 124.92 165.345 124.957 165.349 124.995C165.354 125.033 165.351 125.072 165.34 125.109C165.329 125.146 165.311 125.181 165.286 125.21L162.226 128.887C162.198 128.922 162.162 128.949 162.122 128.967C162.081 128.985 162.037 128.993 161.992 128.99C161.948 128.988 161.905 128.975 161.867 128.953C161.828 128.93 161.796 128.899 161.772 128.862L160.946 127.612C160.914 127.56 160.9 127.499 160.906 127.439C160.911 127.378 160.936 127.321 160.976 127.276Z" fill="white"/>
<path d="M173.502 92.4324H172.548V92.4681C174.303 92.6521 175.928 93.4793 177.109 94.7902C178.29 96.1011 178.943 97.8029 178.944 99.5673H180.637C180.636 97.6754 179.883 95.8614 178.546 94.5236C177.208 93.1859 175.394 92.4337 173.502 92.4324Z" fill="#263238"/>
<path opacity="0.6" d="M173.502 92.4324H172.548V92.4681C174.303 92.6521 175.928 93.4793 177.109 94.7902C178.29 96.1011 178.943 97.8029 178.944 99.5673H180.637C180.636 97.6754 179.883 95.8614 178.546 94.5236C177.208 93.1859 175.394 92.4337 173.502 92.4324Z" fill="white"/>
<path d="M179.816 105.136C181.095 105.136 182.131 103.75 182.131 102.041C182.131 100.331 181.095 98.9451 179.816 98.9451C178.537 98.9451 177.5 100.331 177.5 102.041C177.5 103.75 178.537 105.136 179.816 105.136Z" fill="#407BFF"/>
<path d="M182.396 102.041C182.396 103.423 181.978 104.081 180.866 104.081C179.755 104.081 179.336 103.433 179.336 102.041C179.336 100.648 179.76 100.001 180.866 100.001C181.973 100.001 182.396 100.654 182.396 102.041Z" fill="#263238"/>
<path opacity="0.5" d="M182.396 102.041C182.396 103.423 181.978 104.081 180.866 104.081C179.755 104.081 179.336 103.433 179.336 102.041C179.336 100.648 179.76 100.001 180.866 100.001C181.973 100.001 182.396 100.654 182.396 102.041Z" fill="white"/>
<path d="M181.203 103.882C181.964 103.882 182.58 103.058 182.58 102.041C182.58 101.024 181.964 100.2 181.203 100.2C180.443 100.2 179.826 101.024 179.826 102.041C179.826 103.058 180.443 103.882 181.203 103.882Z" fill="#263238"/>
<path opacity="0.7" d="M181.203 103.882C181.964 103.882 182.58 103.058 182.58 102.041C182.58 101.024 181.964 100.2 181.203 100.2C180.443 100.2 179.826 101.024 179.826 102.041C179.826 103.058 180.443 103.882 181.203 103.882Z" fill="white"/>
<path d="M86.7408 209.595H84.2979L83.2269 145.692H87.8118L86.7408 209.595Z" fill="#263238"/>
<path opacity="0.7" d="M86.7408 209.595H84.2979L83.2269 145.692H87.8118L86.7408 209.595Z" fill="white"/>
<path d="M113.725 209.595H111.277L110.206 145.692H114.796L113.725 209.595Z" fill="#263238"/>
<path opacity="0.7" d="M113.725 209.595H111.277L110.206 145.692H114.796L113.725 209.595Z" fill="white"/>
<path d="M131.641 144.621H85.5168V149.619H131.641V144.621Z" fill="#263238"/>
<path opacity="0.5" d="M131.641 144.621H85.5168V149.619H131.641V144.621Z" fill="white"/>
<path d="M158.697 144.621H131.646V149.619H158.697V144.621Z" fill="#263238"/>
<path opacity="0.5" d="M158.697 144.621H131.646V149.619H158.697V144.621Z" fill="white"/>
<path d="M159.849 209.595H157.401L156.33 145.692H160.915L159.849 209.595Z" fill="#263238"/>
<path opacity="0.7" d="M159.849 209.595H157.401L156.33 145.692H160.915L159.849 209.595Z" fill="white"/>
<path d="M162.364 141.408H126.347C125.601 141.408 124.996 142.013 124.996 142.759V144.34C124.996 145.087 125.601 145.692 126.347 145.692H162.364C163.11 145.692 163.715 145.087 163.715 144.34V142.759C163.715 142.013 163.11 141.408 162.364 141.408Z" fill="#263238"/>
<path d="M129.673 141.408H80.7789C80.0325 141.408 79.4274 142.013 79.4274 142.759V144.34C79.4274 145.087 80.0325 145.692 80.7789 145.692H129.673C130.419 145.692 131.024 145.087 131.024 144.34V142.759C131.024 142.013 130.419 141.408 129.673 141.408Z" fill="#263238"/>
<path opacity="0.2" d="M129.673 141.408H80.7789C80.0325 141.408 79.4274 142.013 79.4274 142.759V144.34C79.4274 145.087 80.0325 145.692 80.7789 145.692H129.673C130.419 145.692 131.024 145.087 131.024 144.34V142.759C131.024 142.013 130.419 141.408 129.673 141.408Z" fill="white"/>
<path d="M132.865 209.595H130.422L129.351 145.692H133.936L132.865 209.595Z" fill="#263238"/>
<path opacity="0.7" d="M132.865 209.595H130.422L129.351 145.692H133.936L132.865 209.595Z" fill="white"/>
<path d="M131.58 141.413C131.391 141.413 131.209 141.338 131.075 141.204C130.941 141.07 130.866 140.888 130.866 140.699C130.866 140.509 130.941 140.328 131.075 140.194C131.209 140.06 131.391 139.985 131.58 139.985H151.036C151.226 139.985 151.407 140.06 151.541 140.194C151.675 140.328 151.75 140.509 151.75 140.699C151.75 140.888 151.675 141.07 151.541 141.204C151.407 141.338 151.226 141.413 151.036 141.413H131.58Z" fill="#407BFF"/>
<path d="M133.253 140.179L130.662 121.747C130.607 121.412 130.437 121.106 130.181 120.882C129.925 120.659 129.599 120.532 129.259 120.523H126.781V141.408H132.197C132.354 141.417 132.51 141.389 132.654 141.328C132.798 141.267 132.926 141.173 133.029 141.054C133.131 140.935 133.204 140.794 133.243 140.642C133.282 140.491 133.285 140.332 133.253 140.179Z" fill="#407BFF"/>
<path d="M131.126 141.408H109.14C108.8 141.399 108.474 141.271 108.219 141.046C107.963 140.822 107.795 140.515 107.743 140.179L105.152 121.747C105.12 121.594 105.124 121.436 105.164 121.285C105.203 121.134 105.276 120.994 105.378 120.875C105.48 120.757 105.608 120.664 105.752 120.603C105.896 120.542 106.052 120.515 106.207 120.523H128.204C128.543 120.533 128.869 120.66 129.125 120.884C129.381 121.107 129.551 121.412 129.606 121.747L132.197 140.179C132.23 140.333 132.226 140.493 132.187 140.646C132.147 140.799 132.072 140.941 131.968 141.06C131.864 141.18 131.734 141.273 131.588 141.333C131.442 141.394 131.284 141.419 131.126 141.408Z" fill="#407BFF"/>
<path opacity="0.7" d="M131.126 141.408H109.14C108.8 141.399 108.474 141.271 108.219 141.046C107.963 140.822 107.795 140.515 107.743 140.179L105.152 121.747C105.12 121.594 105.124 121.436 105.164 121.285C105.203 121.134 105.276 120.994 105.378 120.875C105.48 120.757 105.608 120.664 105.752 120.603C105.896 120.542 106.052 120.515 106.207 120.523H128.204C128.543 120.533 128.869 120.66 129.125 120.884C129.381 121.107 129.551 121.412 129.606 121.747L132.197 140.179C132.23 140.333 132.226 140.493 132.187 140.646C132.147 140.799 132.072 140.941 131.968 141.06C131.864 141.18 131.734 141.273 131.588 141.333C131.442 141.394 131.284 141.419 131.126 141.408Z" fill="white"/>
<path opacity="0.7" d="M119.733 130.463C119.758 130.602 119.751 130.746 119.714 130.882C119.677 131.019 119.61 131.146 119.517 131.253C119.425 131.361 119.31 131.446 119.181 131.504C119.051 131.561 118.91 131.589 118.769 131.585C118.459 131.575 118.161 131.458 117.928 131.253C117.695 131.049 117.539 130.769 117.489 130.463C117.464 130.324 117.47 130.18 117.507 130.044C117.544 129.907 117.612 129.78 117.704 129.673C117.796 129.565 117.911 129.48 118.041 129.423C118.17 129.365 118.311 129.337 118.453 129.341C118.763 129.349 119.062 129.466 119.295 129.671C119.529 129.876 119.684 130.156 119.733 130.463Z" fill="white"/>
<path d="M100.852 130.795H92.3559C92.2209 130.795 92.0876 130.824 91.9653 130.882C91.8431 130.939 91.7349 131.022 91.6483 131.126C91.5618 131.229 91.499 131.351 91.4644 131.481C91.4298 131.612 91.4242 131.748 91.4481 131.881V131.957C91.0242 131.852 90.5793 131.866 90.1629 131.998C88.6329 132.457 88.587 133.824 89.046 135.359C89.505 136.894 90.2904 138.011 91.8255 137.552C92.0725 137.477 92.3077 137.367 92.5242 137.226C92.8285 137.944 93.322 138.566 93.9522 139.026V140.148H99.2256V139.026C100.114 138.382 100.72 137.422 100.919 136.343L101.745 131.881C101.769 131.749 101.763 131.614 101.73 131.485C101.696 131.355 101.635 131.235 101.55 131.132C101.465 131.028 101.359 130.945 101.238 130.886C101.118 130.828 100.986 130.797 100.852 130.795ZM91.6266 136.578C90.6066 136.879 90.0966 136.144 89.8008 135.135C89.505 134.125 89.5305 133.232 90.5352 132.931C90.9053 132.809 91.3087 132.839 91.6572 133.013L92.2539 136.236C92.0723 136.395 91.8582 136.511 91.6266 136.578Z" fill="#407BFF"/>
<path opacity="0.5" d="M100.852 130.795H92.3559C92.2209 130.795 92.0876 130.824 91.9653 130.882C91.8431 130.939 91.7349 131.022 91.6483 131.126C91.5618 131.229 91.499 131.351 91.4644 131.481C91.4298 131.612 91.4242 131.748 91.4481 131.881V131.957C91.0242 131.852 90.5793 131.866 90.1629 131.998C88.6329 132.457 88.587 133.824 89.046 135.359C89.505 136.894 90.2904 138.011 91.8255 137.552C92.0725 137.477 92.3077 137.367 92.5242 137.226C92.8285 137.944 93.322 138.566 93.9522 139.026V140.148H99.2256V139.026C100.114 138.382 100.72 137.422 100.919 136.343L101.745 131.881C101.769 131.749 101.763 131.614 101.73 131.485C101.696 131.355 101.635 131.235 101.55 131.132C101.465 131.028 101.359 130.945 101.238 130.886C101.118 130.828 100.986 130.797 100.852 130.795ZM91.6266 136.578C90.6066 136.879 90.0966 136.144 89.8008 135.135C89.505 134.125 89.5305 133.232 90.5352 132.931C90.9053 132.809 91.3087 132.839 91.6572 133.013L92.2539 136.236C92.0723 136.395 91.8582 136.511 91.6266 136.578Z" fill="white"/>
<path d="M99.45 141.469H93.7431C93.3872 141.47 93.0366 141.382 92.7231 141.214L90.7851 140.153C90.71 140.111 90.651 140.044 90.6172 139.965C90.5834 139.886 90.5768 139.797 90.5982 139.714C90.6197 139.63 90.6681 139.556 90.736 139.503C90.8039 139.449 90.8875 139.42 90.9738 139.419H102.194C102.28 139.42 102.364 139.449 102.432 139.503C102.499 139.556 102.548 139.63 102.569 139.714C102.591 139.797 102.584 139.886 102.55 139.965C102.517 140.044 102.458 140.111 102.382 140.153L100.444 141.214C100.139 141.378 99.7973 141.466 99.45 141.469Z" fill="#407BFF"/>
<path opacity="0.4" d="M99.45 141.469H93.7431C93.3872 141.47 93.0366 141.382 92.7231 141.214L90.7851 140.153C90.71 140.111 90.651 140.044 90.6172 139.965C90.5834 139.886 90.5768 139.797 90.5982 139.714C90.6197 139.63 90.6681 139.556 90.736 139.503C90.8039 139.449 90.8875 139.42 90.9738 139.419H102.194C102.28 139.42 102.364 139.449 102.432 139.503C102.499 139.556 102.548 139.63 102.569 139.714C102.591 139.797 102.584 139.886 102.55 139.965C102.517 140.044 102.458 140.111 102.382 140.153L100.444 141.214C100.139 141.378 99.7973 141.466 99.45 141.469Z" fill="white"/>
<path d="M137.481 70.0179H103.744C102.268 70.0179 101.072 71.2144 101.072 72.6903V99.5112C101.072 100.987 102.268 102.184 103.744 102.184H137.481C138.957 102.184 140.153 100.987 140.153 99.5112V72.6903C140.153 71.2144 138.957 70.0179 137.481 70.0179Z" fill="#407BFF"/>
<path opacity="0.6" d="M137.481 70.0179H103.744C102.268 70.0179 101.072 71.2144 101.072 72.6903V99.5112C101.072 100.987 102.268 102.184 103.744 102.184H137.481C138.957 102.184 140.153 100.987 140.153 99.5112V72.6903C140.153 71.2144 138.957 70.0179 137.481 70.0179Z" fill="white"/>
<path d="M119.253 76.0564C119.253 76.0564 116.346 74.5672 114.867 77.8414C113.388 81.1156 109.65 79.147 111.221 85.7821C112.792 92.4172 106.08 90.163 109.308 95.008C112.537 99.853 117.468 96.538 120.171 96.6247C122.874 96.7114 128.097 98.4097 129.351 95.3905C130.606 92.3713 128.459 91.3564 128.413 89.7193C128.367 88.0822 131.085 84.1603 128.882 82.3855C124.853 79.1215 126.439 74.2255 119.253 76.0564Z" fill="#2E353A"/>
<path d="M120.171 92.9322C123.67 92.9322 126.505 89.3039 126.505 84.8283C126.505 80.3526 123.67 76.7244 120.171 76.7244C116.673 76.7244 113.837 80.3526 113.837 84.8283C113.837 89.3039 116.673 92.9322 120.171 92.9322Z" fill="#B97964"/>
<path d="M120.6 85.1956C120.751 85.9416 121.007 86.6627 121.36 87.3376C121.186 87.4236 120.995 87.4705 120.801 87.4749C120.608 87.4793 120.415 87.4411 120.238 87.3631L120.6 85.1956Z" fill="#A24E3F"/>
<path d="M117.81 85.221C117.81 85.5168 117.927 85.7667 118.121 85.782C118.315 85.7973 118.483 85.5627 118.504 85.272C118.524 84.9813 118.381 84.7314 118.192 84.7212C118.004 84.711 117.81 84.9303 117.81 85.221Z" fill="#2E353A"/>
<path d="M116.754 84.1857C116.727 84.1908 116.7 84.1908 116.673 84.1857C116.643 84.1521 116.626 84.1085 116.626 84.0633C116.626 84.0182 116.643 83.9746 116.673 83.9409C116.85 83.73 117.074 83.5637 117.328 83.4556C117.581 83.3475 117.856 83.3006 118.131 83.3187C118.177 83.3263 118.218 83.3512 118.245 83.3883C118.273 83.4254 118.285 83.4718 118.279 83.5176C118.277 83.5403 118.27 83.5622 118.258 83.5821C118.247 83.6019 118.232 83.6193 118.214 83.6331C118.196 83.647 118.175 83.657 118.153 83.6625C118.131 83.6681 118.108 83.6691 118.085 83.6655C117.867 83.6535 117.65 83.6934 117.45 83.7821C117.251 83.8708 117.075 84.0056 116.938 84.1755C116.911 84.1937 116.88 84.2043 116.848 84.2061C116.815 84.2079 116.783 84.2009 116.754 84.1857Z" fill="#2E353A"/>
<path d="M123.099 85.221C123.099 85.5168 122.976 85.7667 122.782 85.782C122.589 85.7973 122.42 85.5627 122.4 85.272C122.38 84.9813 122.522 84.7314 122.716 84.7212C122.91 84.711 123.078 84.9303 123.099 85.221Z" fill="#2E353A"/>
<path d="M124.149 84.1858C124.178 84.1909 124.207 84.1909 124.236 84.1858C124.266 84.1521 124.283 84.1085 124.283 84.0634C124.283 84.0182 124.266 83.9746 124.236 83.941C124.059 83.7297 123.835 83.5632 123.581 83.4551C123.328 83.347 123.052 83.3003 122.777 83.3188C122.732 83.3275 122.692 83.3527 122.665 83.3895C122.637 83.4263 122.625 83.472 122.629 83.5177C122.633 83.5405 122.64 83.5626 122.652 83.5825C122.664 83.6023 122.679 83.6197 122.698 83.6334C122.716 83.6472 122.737 83.6572 122.76 83.6627C122.782 83.6682 122.806 83.6692 122.828 83.6656C123.046 83.6543 123.264 83.6947 123.463 83.7833C123.663 83.8719 123.838 84.0063 123.976 84.1756C124.001 84.1934 124.03 84.2039 124.061 84.2057C124.092 84.2075 124.122 84.2006 124.149 84.1858Z" fill="#2E353A"/>
<path d="M120.605 89.7192C120.776 89.7181 120.946 89.7028 121.115 89.6733C121.139 89.6683 121.16 89.6546 121.174 89.6347C121.188 89.6149 121.194 89.5904 121.191 89.5662C121.189 89.554 121.185 89.5424 121.179 89.532C121.172 89.5215 121.164 89.5124 121.154 89.5053C121.144 89.4982 121.133 89.4931 121.121 89.4904C121.109 89.4877 121.096 89.4875 121.084 89.4897C120.698 89.5629 120.3 89.5457 119.921 89.4396C119.542 89.3334 119.193 89.1411 118.901 88.8777C118.883 88.8608 118.86 88.8514 118.835 88.8514C118.81 88.8514 118.787 88.8608 118.769 88.8777C118.76 88.8862 118.753 88.8965 118.748 88.9079C118.743 88.9193 118.74 88.9316 118.74 88.944C118.74 88.9564 118.743 88.9686 118.748 88.98C118.753 88.9914 118.76 89.0017 118.769 89.0103C119.265 89.4765 119.924 89.7308 120.605 89.7192Z" fill="#2E353A"/>
<path d="M119.58 98.2311C122.134 98.1965 124.641 97.5326 126.878 96.2982C126.065 96.1458 125.241 96.0673 124.414 96.0636C123.081 96.7971 121.575 97.1599 120.054 97.1142C117.31 97.1142 115.831 96.0636 115.831 96.0636C115.223 96.0631 114.615 96.0988 114.01 96.1707C114.811 96.9612 116.56 98.2311 119.58 98.2311Z" fill="#577AFB"/>
<path d="M123.695 96.9715L124.853 96.2371C124.258 96.1493 123.692 95.9183 123.206 95.5639C121.711 94.447 122.522 91.5961 122.522 91.5961H118.233C118.131 93.3046 118.177 94.8142 117.213 95.5231C116.644 95.9617 115.952 96.2114 115.234 96.2371L116.764 97.15C116.668 97.3642 117.784 97.7671 117.784 97.7671L122.043 98.0068L122.859 97.4968C122.859 97.4968 123.93 97.2928 123.695 96.9715Z" fill="#B97964"/>
<path d="M115.831 96.0637C115.831 96.0637 117.31 97.1143 120.054 97.1143C121.575 97.16 123.081 96.7972 124.414 96.0637C124.414 96.0637 132.916 95.8954 132.916 102.184H108.349C108.349 102.184 107.248 96.0637 115.831 96.0637Z" fill="#407BFF"/>
<path d="M113.49 83.2933C113.49 83.2933 113.771 86.0167 114.663 85.9249C115.556 85.8331 114.928 81.6307 116.611 81.3349C118.294 81.0391 119.253 80.6668 119.32 79.6111C119.386 78.5554 121.997 79.2949 121.645 77.9536C122.543 78.3486 123.26 79.0655 123.655 79.963C124.384 81.5236 124.588 80.728 125.123 81.8143C125.659 82.9006 126.143 86.1034 127 83.7625C127.857 81.4216 125.659 79.453 125.659 79.453L123.716 77.158L121.9 76.7449L120.345 76.4236H118.259L116.861 76.7449L114.867 78.8818L113.643 80.983L113.49 83.2933Z" fill="#2E353A"/>
<path d="M114.561 85.2312C115.041 86.1594 114.949 87.2253 114.357 87.6129C113.766 88.0005 112.894 87.5517 112.419 86.6235C111.945 85.6953 112.032 84.6294 112.623 84.2418C113.215 83.8542 114.087 84.303 114.561 85.2312Z" fill="#B97964"/>
<path d="M125.429 85.2312C124.95 86.1594 125.047 87.2253 125.638 87.6129C126.23 88.0005 127.097 87.5517 127.576 86.6235C128.056 85.6953 127.964 84.6294 127.367 84.2418C126.771 83.8542 125.909 84.303 125.429 85.2312Z" fill="#B97964"/>
<path d="M113.653 85.9401C113.526 85.9727 113.415 86.0537 113.346 86.1659C113.277 86.2781 113.253 86.4129 113.281 86.5419L113.541 88.2096C113.549 88.2535 113.573 88.2927 113.61 88.3185C113.646 88.3443 113.691 88.3547 113.735 88.3473C113.779 88.3398 113.818 88.3152 113.844 88.2788C113.87 88.2425 113.88 88.1974 113.873 88.1535L113.689 86.9958H113.796C113.919 86.9566 114.024 86.8749 114.092 86.7653C114.16 86.6557 114.186 86.5255 114.166 86.3981C114.147 86.2707 114.082 86.1545 113.984 86.0705C113.887 85.9865 113.762 85.9403 113.633 85.9401H113.653Z" fill="white"/>
<path d="M126.643 85.9401C126.771 85.9727 126.881 86.0537 126.951 86.1659C127.02 86.2781 127.043 86.4129 127.015 86.5419L126.75 88.2096C126.743 88.2535 126.718 88.2927 126.682 88.3185C126.646 88.3443 126.6 88.3547 126.556 88.3473C126.512 88.3397 126.473 88.3153 126.446 88.2792C126.419 88.2431 126.408 88.198 126.414 88.1535L126.597 86.9958H126.48C126.357 86.9565 126.252 86.8744 126.184 86.7643C126.116 86.6541 126.09 86.5233 126.11 86.3956C126.131 86.2678 126.196 86.1516 126.295 86.068C126.393 85.9845 126.519 85.9391 126.648 85.9401H126.643Z" fill="white"/>
<path d="M139.633 74.6079C142.171 74.6079 144.228 72.5506 144.228 70.0128C144.228 67.475 142.171 65.4177 139.633 65.4177C137.095 65.4177 135.038 67.475 135.038 70.0128C135.038 72.5506 137.095 74.6079 139.633 74.6079Z" fill="#407BFF"/>
<path d="M136.986 72.6597C136.914 72.588 136.874 72.4908 136.874 72.3894C136.874 72.288 136.914 72.1908 136.986 72.1191L141.739 67.3659C141.811 67.2943 141.908 67.254 142.009 67.254C142.111 67.254 142.208 67.2943 142.28 67.3659C142.351 67.4376 142.392 67.5348 142.392 67.6362C142.392 67.7375 142.351 67.8348 142.28 67.9065L137.532 72.6597C137.458 72.7304 137.361 72.77 137.259 72.77C137.157 72.77 137.059 72.7304 136.986 72.6597Z" fill="white"/>
<path d="M141.148 72.7516H139.806V71.7316C140.199 71.6899 140.562 71.5042 140.826 71.2103C141.09 70.9165 141.235 70.5352 141.234 70.1404V69.5998C141.234 69.5884 141.232 69.5771 141.228 69.5666C141.223 69.5561 141.217 69.5465 141.209 69.5385C141.201 69.5304 141.191 69.524 141.181 69.5197C141.17 69.5153 141.159 69.5131 141.148 69.5131H140.933C140.91 69.513 140.887 69.522 140.87 69.5381C140.853 69.5542 140.843 69.5763 140.842 69.5998C140.842 69.6116 140.844 69.6233 140.849 69.6342C140.853 69.645 140.86 69.6548 140.869 69.6629C140.877 69.6711 140.888 69.6773 140.899 69.6814C140.91 69.6854 140.922 69.6872 140.933 69.6865H141.061V70.1404C141.061 70.5191 140.91 70.8823 140.643 71.1501C140.375 71.4179 140.012 71.5684 139.633 71.5684C139.254 71.5684 138.891 71.4179 138.623 71.1501C138.355 70.8823 138.205 70.5191 138.205 70.1404V69.6865H138.337C138.36 69.6865 138.383 69.6773 138.399 69.6611C138.415 69.6448 138.424 69.6228 138.424 69.5998C138.423 69.5772 138.413 69.5558 138.397 69.5398C138.381 69.5238 138.36 69.5143 138.337 69.5131H138.118C138.096 69.5143 138.074 69.5238 138.058 69.5398C138.042 69.5558 138.033 69.5772 138.031 69.5998V70.1404C138.032 70.5349 138.178 70.9155 138.441 71.2092C138.705 71.5028 139.067 71.6888 139.459 71.7316V72.7516H138.118C138.072 72.7529 138.028 72.7723 137.995 72.8056C137.963 72.8389 137.945 72.8836 137.945 72.9301V73.1035H141.321V72.9301C141.321 72.8836 141.303 72.8389 141.271 72.8056C141.238 72.7723 141.194 72.7529 141.148 72.7516Z" fill="white"/>
<path d="M138.557 70.1607C138.576 70.434 138.697 70.6899 138.898 70.8769C139.098 71.0638 139.362 71.1677 139.635 71.1677C139.909 71.1677 140.173 71.0638 140.373 70.8769C140.573 70.6899 140.695 70.434 140.714 70.1607V68.0034C140.724 67.8555 140.704 67.7072 140.654 67.5675C140.605 67.4278 140.527 67.2998 140.426 67.1914C140.325 67.083 140.202 66.9966 140.066 66.9376C139.93 66.8785 139.784 66.848 139.635 66.848C139.487 66.848 139.341 66.8785 139.205 66.9376C139.069 66.9966 138.946 67.083 138.845 67.1914C138.744 67.2998 138.666 67.4278 138.617 67.5675C138.567 67.7072 138.547 67.8555 138.557 68.0034V70.1607Z" fill="white"/>
<path d="M91.9989 82.2732H41.4885C40.0126 82.2732 38.8161 83.4697 38.8161 84.9456V122.66C38.8161 124.136 40.0126 125.332 41.4885 125.332H91.9989C93.4748 125.332 94.6713 124.136 94.6713 122.66V84.9456C94.6713 83.4697 93.4748 82.2732 91.9989 82.2732Z" fill="#407BFF"/>
<path d="M63.3522 85.8942C63.3522 85.8942 60.7614 85.1037 60.1851 90.6627C59.6088 96.2217 55.6308 98.073 59.8536 100.113C64.0764 102.153 68.1564 99.9192 69.8139 100.113C71.4714 100.307 74.4651 99.2205 74.2764 96.4767C74.0877 93.7329 69.207 85.7667 69.207 85.7667L63.3522 85.8942Z" fill="#263238"/>
<path d="M84.4713 110.364C83.5584 113.424 80.937 121.533 78.9327 121.253C76.4694 120.916 74.7711 112.073 74.7711 112.073L75.4494 101.363C75.4494 101.363 78.1677 101.363 79.3611 115.051L82.2375 108.86L84.4713 110.364Z" fill="#263238"/>
<path d="M82.4823 108.951L83.5023 106.728L85.1037 105.417L85.9707 104.484C86.1909 104.246 86.481 104.084 86.799 104.022C87.1171 103.96 87.4467 104 87.7404 104.137L88.2504 104.377C88.5484 104.515 88.794 104.745 88.9511 105.033C89.1081 105.322 89.1682 105.653 89.1225 105.978L88.8522 107.916L84.5172 109.318C84.5172 109.318 84.3948 109.752 84.1857 110.456L82.4823 108.951Z" fill="#EEC1BB"/>
<path d="M82.0743 108.171L85.1139 110.252L84.8793 111.404L81.5184 109.018L82.0743 108.171Z" fill="#263238"/>
<path opacity="0.2" d="M82.0743 108.171L85.1139 110.252L84.8793 111.404L81.5184 109.018L82.0743 108.171Z" fill="white"/>
<path d="M58.9152 125.333C58.9152 125.333 58.4511 113.179 54.7944 102.383C61.5614 100.799 68.5593 100.453 75.4494 101.363C75.4494 101.363 77.1477 109.099 75.1077 125.333H58.9152Z" fill="#263238"/>
<path opacity="0.2" d="M58.9152 125.333C58.9152 125.333 58.4511 113.179 54.7944 102.383C61.5614 100.799 68.5593 100.453 75.4494 101.363C75.4494 101.363 77.1477 109.099 75.1077 125.333H58.9152Z" fill="white"/>
<path d="M61.4958 118.539C62.1129 118.305 62.475 118.157 62.475 118.157L65.2188 116.882L67.2588 114.944C67.3855 114.822 67.4839 114.674 67.5471 114.511C67.6104 114.347 67.6368 114.171 67.6246 113.996C67.6125 113.821 67.562 113.65 67.4767 113.497C67.3915 113.344 67.2736 113.211 67.1313 113.108L65.841 112.2C65.7102 112.106 65.5619 112.04 65.4049 112.005C65.248 111.969 65.0856 111.966 64.9272 111.994C64.7689 112.023 64.6179 112.083 64.4831 112.171C64.3484 112.259 64.2326 112.373 64.1427 112.506L61.8375 115.938C61.8375 115.938 61.3275 116.086 60.5013 116.29L61.4958 118.539Z" fill="#EEC1BB"/>
<path d="M61.5468 118.855C58.5582 119.983 49.6026 123.068 46.9098 120.64C43.6611 117.708 54.7944 102.382 54.7944 102.382C57.7677 105.743 56.6967 109.216 56.6967 109.216C56.6967 109.216 50.9694 115.26 51.51 116.749C51.9843 118.08 57.8697 116.749 60.5625 116.081L61.5468 118.855Z" fill="#263238"/>
<path d="M60.9144 115.714L62.1894 118.942L61.1694 119.539L59.8536 115.714H60.9144Z" fill="#263238"/>
<path opacity="0.2" d="M60.9144 115.714L62.1894 118.942L61.1694 119.539L59.8536 115.714H60.9144Z" fill="white"/>
<path d="M68.6817 100.883H67.7331C67.5883 99.9156 67.6775 98.9275 67.9932 98.0016L64.2702 94.2072C64.4589 95.9412 64.5405 99.2256 63.7296 101.031C63.2196 101.067 62.7453 101.107 62.2812 101.153C62.5158 101.837 63.4134 103.576 66.504 103.576C69.5946 103.576 69.0234 101.623 68.6817 100.883Z" fill="#EEC1BB"/>
<path opacity="0.1" d="M64.9689 95.5995L64.5405 96.747C65.21 98.0517 66.3191 99.0777 67.6719 99.6438C67.7164 99.086 67.8242 98.535 67.9932 98.0016L65.5248 95.4822L64.9689 95.5995Z" fill="black"/>
<path d="M62.373 91.3665C63.2757 94.8039 63.5817 96.2829 65.6931 97.7211C68.8653 99.8937 72.8943 98.0373 73.0422 94.3959C73.1799 91.1166 71.6856 86.0421 68.0034 85.3281C67.1938 85.171 66.3575 85.2229 65.5734 85.4786C64.7894 85.7343 64.0834 86.1856 63.522 86.7898C62.9607 87.394 62.5625 88.1313 62.365 88.932C62.1676 89.7327 62.1773 90.5706 62.3934 91.3665H62.373Z" fill="#EEC1BB"/>
<path d="M62.0925 94.2786C62.2513 94.5806 62.4683 94.8483 62.7308 95.0662C62.9934 95.2841 63.2964 95.4481 63.6225 95.5485C64.4946 95.8137 64.9485 95.0386 64.719 94.2022C64.515 93.4525 63.8163 92.412 62.9289 92.514C62.6218 92.5607 62.3456 92.7267 62.1603 92.976C61.975 93.2253 61.8956 93.5376 61.9395 93.8451C61.9619 93.9982 62.0139 94.1454 62.0925 94.2786Z" fill="#EEC1BB"/>
<path d="M70.2984 91.3206C70.6757 91.9181 71.1339 92.4604 71.6601 92.9322C71.5378 93.0654 71.3874 93.1698 71.2198 93.2377C71.0523 93.3056 70.8716 93.3354 70.6911 93.3249L70.2984 91.3206Z" fill="#D58745"/>
<path d="M67.2333 90.0303C67.2098 90.0355 67.1854 90.0355 67.1619 90.0303C67.1305 90.0103 67.1082 89.9789 67.0996 89.9427C67.091 89.9065 67.0969 89.8684 67.116 89.8365C67.2469 89.6068 67.4311 89.4119 67.6529 89.2681C67.8748 89.1244 68.1279 89.0359 68.391 89.0103C68.4285 89.0102 68.4647 89.0243 68.4921 89.0499C68.5196 89.0755 68.5363 89.1105 68.5389 89.148C68.5403 89.185 68.5273 89.2211 68.5025 89.2487C68.4778 89.2763 68.4433 89.2932 68.4063 89.2959C68.1891 89.3191 67.9806 89.3936 67.7979 89.5133C67.6152 89.6331 67.4637 89.7945 67.3557 89.9844C67.3417 90.0028 67.3228 90.0169 67.3011 90.025C67.2795 90.0331 67.256 90.035 67.2333 90.0303Z" fill="#2E353A"/>
<path d="M70.6095 88.5615C70.5928 88.5443 70.5806 88.5233 70.5738 88.5003C70.5684 88.4825 70.5666 88.4639 70.5686 88.4454C70.5706 88.427 70.5763 88.4091 70.5853 88.3929C70.5944 88.3767 70.6066 88.3625 70.6213 88.3512C70.6359 88.3398 70.6528 88.3316 70.6707 88.3269C70.9237 88.2484 71.1917 88.2316 71.4525 88.2777C71.7134 88.3239 71.9594 88.4316 72.1701 88.5921C72.1877 88.6029 72.2027 88.6174 72.2141 88.6346C72.2255 88.6518 72.2331 88.6712 72.2363 88.6916C72.2394 88.712 72.2382 88.7328 72.2325 88.7527C72.2269 88.7725 72.217 88.7909 72.2036 88.8066C72.1902 88.8222 72.1735 88.8348 72.1548 88.8434C72.136 88.852 72.1156 88.8565 72.095 88.8564C72.0743 88.8564 72.054 88.8519 72.0352 88.8432C72.0165 88.8346 71.9999 88.822 71.9865 88.8063C71.8113 88.6757 71.6073 88.589 71.3917 88.5535C71.176 88.518 70.955 88.5347 70.7472 88.6023C70.7227 88.6077 70.6972 88.6068 70.6731 88.5997C70.649 88.5926 70.6271 88.5794 70.6095 88.5615Z" fill="#2E353A"/>
<path d="M68.2023 91.2441C68.2584 91.5297 68.4522 91.7541 68.6409 91.6929C68.8296 91.6317 68.9316 91.3971 68.8704 91.1115C68.8092 90.8259 68.6205 90.6321 68.4369 90.6678C68.2533 90.7035 68.1462 90.9585 68.2023 91.2441Z" fill="#2E353A"/>
<path d="M71.4 90.6168C71.451 90.8973 71.6499 91.0962 71.8335 91.0605C72.0171 91.0248 72.1242 90.7698 72.0681 90.4842C72.012 90.1986 71.8182 89.9997 71.6346 90.0354C71.451 90.0711 71.349 90.3312 71.4 90.6168Z" fill="#2E353A"/>
<path d="M71.5632 90.066L72.2058 89.7396C72.2058 89.7396 71.961 90.3363 71.5632 90.066Z" fill="#2E353A"/>
<path d="M68.34 90.6983L68.9775 90.3719C68.9775 90.3719 68.7531 90.9686 68.34 90.6983Z" fill="#2E353A"/>
<path d="M71.0022 94.2327C70.2094 94.188 69.4143 94.2118 68.6256 94.3041C68.7756 94.5781 69.0098 94.7966 69.2937 94.927C69.5775 95.0575 69.8959 95.093 70.2015 95.0283C71.094 94.9467 71.0022 94.2327 71.0022 94.2327Z" fill="#2E353A"/>
<path d="M69.7476 94.6917C70.0947 94.6408 70.4492 94.6922 70.7676 94.8396C70.6091 94.9528 70.4215 95.0183 70.227 95.0283C69.8799 95.0791 69.5254 95.0277 69.207 94.8804C69.3655 94.7671 69.5531 94.7017 69.7476 94.6917Z" fill="#DE5753"/>
<path d="M70.9206 94.2276C70.908 94.2888 70.8783 94.3453 70.835 94.3904C70.7917 94.4355 70.7365 94.4675 70.6758 94.4826C70.1666 94.5223 69.655 94.5223 69.1458 94.4826C69.0653 94.4848 68.9855 94.4679 68.9128 94.4333C68.8401 94.3987 68.7767 94.3475 68.7276 94.2837C69.4563 94.2124 70.1892 94.1937 70.9206 94.2276Z" fill="white"/>
<path d="M63.3522 94.0542C63.3522 94.0542 64.8822 92.769 64.5405 90.0303C64.1988 87.2916 67.6668 89.8467 68.3604 87.5517C69.054 85.2567 72.0426 89.913 73.5114 87.108C74.9802 84.303 68.2788 83.6196 67.6107 84.4305C66.9426 85.2414 57.783 83.9205 63.3522 94.0542Z" fill="#263238"/>
<path d="M90.1629 116.81H43.3194C42.649 116.81 42.1056 117.354 42.1056 118.024V120.329C42.1056 121 42.649 121.543 43.3194 121.543H90.1629C90.8333 121.543 91.3767 121 91.3767 120.329V118.024C91.3767 117.354 90.8333 116.81 90.1629 116.81Z" fill="white"/>
<path d="M48.2766 120.36V117.999L49.7556 119.182L48.2766 120.36Z" fill="#263238"/>
<path d="M52.1373 119.875L52.785 119.192L52.1373 118.504V119.875Z" fill="#263238"/>
<path d="M52.785 118.529V119.192V119.855H53.0757V118.529H52.785Z" fill="#263238"/>
<path d="M45.8898 118.504L45.2472 119.192L45.8898 119.875V118.504Z" fill="#263238"/>
<path d="M45.2472 119.855V119.192V118.529H44.9514V119.855H45.2472Z" fill="#263238"/>
<path d="M89.0919 118.845H57.5892V119.539H89.0919V118.845Z" fill="#263238"/>
<path d="M72.5118 117.626H71.3898V120.727H72.5118V117.626Z" fill="#407BFF"/>
<path d="M170.237 81.3524C171.752 74.9349 167.777 68.5047 161.36 66.99C154.943 65.4754 148.512 69.4499 146.998 75.8673C145.483 82.2848 149.457 88.7151 155.875 90.2297C162.292 91.7444 168.723 87.7699 170.237 81.3524Z" fill="#407BFF"/>
<path opacity="0.7" d="M170.237 81.3524C171.752 74.9349 167.777 68.5047 161.36 66.99C154.943 65.4754 148.512 69.4499 146.998 75.8673C145.483 82.2848 149.457 88.7151 155.875 90.2297C162.292 91.7444 168.723 87.7699 170.237 81.3524Z" fill="white"/>
<g opacity="0.8">
<path d="M156.213 82.6711C156.859 82.0436 157.725 81.6926 158.625 81.6926C159.526 81.6926 160.391 82.0436 161.038 82.6711C161.685 83.2678 162.665 82.2988 162.012 81.697C161.102 80.8207 159.888 80.3311 158.625 80.3311C157.362 80.3311 156.148 80.8207 155.239 81.697C154.586 82.2988 155.56 83.2678 156.213 82.6711Z" fill="#407BFF"/>
<path d="M158.156 84.6141C158.28 84.4911 158.448 84.4221 158.623 84.4221C158.798 84.4221 158.965 84.4911 159.089 84.6141C159.742 85.2159 160.716 84.2418 160.064 83.64C159.677 83.267 159.16 83.0586 158.623 83.0586C158.085 83.0586 157.569 83.267 157.182 83.64C156.529 84.2418 157.508 85.2159 158.156 84.6141Z" fill="#407BFF"/>
<path d="M153.653 80.1108C154.985 78.8194 156.767 78.0971 158.623 78.0971C160.478 78.0971 162.261 78.8194 163.593 80.1108C164.245 80.7075 165.22 79.7385 164.567 79.1367C162.971 77.5976 160.84 76.7375 158.623 76.7375C156.406 76.7375 154.275 77.5976 152.679 79.1367C152.026 79.7385 153.005 80.7126 153.653 80.1108Z" fill="#407BFF"/>
<path d="M151.322 77.775C153.28 75.8782 155.899 74.8175 158.625 74.8175C161.351 74.8175 163.971 75.8782 165.928 77.775C166.576 78.3819 167.55 77.4129 166.903 76.8009C164.683 74.6528 161.714 73.4519 158.625 73.4519C155.536 73.4519 152.568 74.6528 150.348 76.8009C149.7 77.4129 150.674 78.3819 151.322 77.775Z" fill="#407BFF"/>
</g>
<path d="M63.546 153.689C70.3285 153.689 75.8268 148.19 75.8268 141.408C75.8268 134.625 70.3285 129.127 63.546 129.127C56.7635 129.127 51.2652 134.625 51.2652 141.408C51.2652 148.19 56.7635 153.689 63.546 153.689Z" fill="#407BFF"/>
<path opacity="0.7" d="M63.546 153.689C70.3285 153.689 75.8268 148.19 75.8268 141.408C75.8268 134.625 70.3285 129.127 63.546 129.127C56.7635 129.127 51.2652 134.625 51.2652 141.408C51.2652 148.19 56.7635 153.689 63.546 153.689Z" fill="white"/>
<path d="M60.8736 137.501V140.668L57.0588 137.879V144.937L60.8736 142.142V145.314H70.0281V137.501H60.8736Z" fill="#407BFF"/>
<path d="M208.857 95.7969C210.206 90.084 206.668 84.3596 200.955 83.0113C195.242 81.6629 189.517 85.2011 188.169 90.914C186.821 96.6269 190.359 102.351 196.072 103.7C201.785 105.048 207.509 101.51 208.857 95.7969Z" fill="#407BFF"/>
<path opacity="0.7" d="M208.857 95.7969C210.206 90.084 206.668 84.3596 200.955 83.0113C195.242 81.6629 189.517 85.2011 188.169 90.914C186.821 96.6269 190.359 102.351 196.072 103.7C201.785 105.048 207.509 101.51 208.857 95.7969Z" fill="white"/>
<path d="M201.613 98.94H198.9V96.9C199.7 96.8098 200.439 96.4284 200.976 95.8283C201.513 95.2282 201.811 94.4515 201.812 93.6462V92.5446C201.811 92.4982 201.791 92.454 201.758 92.4217C201.725 92.3893 201.68 92.3712 201.634 92.3712H201.19C201.164 92.3668 201.138 92.3681 201.113 92.3749C201.088 92.3817 201.065 92.394 201.045 92.4107C201.025 92.4275 201.009 92.4484 200.998 92.4719C200.987 92.4955 200.981 92.5212 200.981 92.5472C200.981 92.5731 200.987 92.5988 200.998 92.6224C201.009 92.6459 201.025 92.6668 201.045 92.6836C201.065 92.7003 201.088 92.7126 201.113 92.7194C201.138 92.7262 201.164 92.7275 201.19 92.7231H201.45V93.6462C201.45 94.4185 201.143 95.1592 200.597 95.7054C200.051 96.2515 199.31 96.5583 198.538 96.5583C197.766 96.5583 197.025 96.2515 196.479 95.7054C195.933 95.1592 195.626 94.4185 195.626 93.6462V92.7231H195.891C195.917 92.7275 195.943 92.7262 195.968 92.7194C195.993 92.7126 196.016 92.7003 196.036 92.6836C196.056 92.6668 196.072 92.6459 196.083 92.6224C196.094 92.5988 196.1 92.5731 196.1 92.5472C196.1 92.5212 196.094 92.4955 196.083 92.4719C196.072 92.4484 196.056 92.4275 196.036 92.4107C196.016 92.394 195.993 92.3817 195.968 92.3749C195.943 92.3681 195.917 92.3668 195.891 92.3712H195.447C195.424 92.3705 195.401 92.3745 195.379 92.3829C195.358 92.3913 195.338 92.404 195.321 92.4202C195.305 92.4363 195.292 92.4557 195.282 92.477C195.273 92.4984 195.269 92.5214 195.269 92.5446V93.6462C195.269 94.4518 195.566 95.2291 196.103 95.8294C196.641 96.4298 197.38 96.8109 198.181 96.9V98.94H195.432C195.337 98.94 195.247 98.9776 195.18 99.0446C195.113 99.1115 195.075 99.2023 195.075 99.297V99.654H201.96V99.297C201.96 99.2041 201.924 99.1148 201.859 99.0481C201.794 98.9814 201.706 98.9427 201.613 98.94Z" fill="#407BFF"/>
<path d="M198.523 95.8801C199.107 95.8801 199.667 95.648 200.08 95.2348C200.494 94.8216 200.726 94.2612 200.726 93.6769H196.319C196.319 93.9664 196.375 94.2532 196.486 94.5208C196.596 94.7884 196.758 95.0316 196.963 95.2363C197.168 95.441 197.411 95.6033 197.679 95.7137C197.946 95.8242 198.233 95.8808 198.523 95.8801Z" fill="#407BFF"/>
<path d="M200.726 89.2501C200.726 88.6658 200.494 88.1054 200.08 87.6922C199.667 87.279 199.107 87.0469 198.523 87.0469C197.938 87.0469 197.378 87.279 196.965 87.6922C196.552 88.1054 196.319 88.6658 196.319 89.2501V93.2587H200.726V89.2501Z" fill="#407BFF"/>
</svg>
